<svg width="40" height="40" viewBox="0 0 40 40" fill="none" xmlns="http://www.w3.org/2000/svg">
<rect width="40" height="40" rx="5.32286" fill="#139ED5"/>
<path d="M29.9998 19.0006H12.4138L17.7068 13.7076C17.8023 13.6153 17.8785 13.505 17.9309 13.383C17.9833 13.261 18.0109 13.1298 18.012 12.997C18.0132 12.8642 17.9879 12.7325 17.9376 12.6096C17.8873 12.4867 17.8131 12.3751 17.7192 12.2812C17.6253 12.1873 17.5136 12.113 17.3907 12.0627C17.2678 12.0125 17.1362 11.9872 17.0034 11.9883C16.8706 11.9895 16.7394 12.0171 16.6174 12.0695C16.4954 12.1219 16.385 12.1981 16.2928 12.2936L9.29279 19.2936C9.10532 19.4811 9 19.7354 9 20.0006C9 20.2657 9.10532 20.52 9.29279 20.7076L16.2928 27.7076C16.4814 27.8897 16.734 27.9905 16.9962 27.9882C17.2584 27.986 17.5092 27.8808 17.6946 27.6954C17.88 27.51 17.9852 27.2592 17.9875 26.997C17.9897 26.7348 17.8889 26.4822 17.7068 26.2936L12.4138 21.0006H29.9998C30.265 21.0006 30.5194 20.8952 30.7069 20.7077C30.8944 20.5201 30.9998 20.2658 30.9998 20.0006C30.9998 19.7354 30.8944 19.481 30.7069 19.2935C30.5194 19.1059 30.265 19.0006 29.9998 19.0006Z" fill="white"/>
</svg>
