<svg width="20" height="20" viewBox="0 0 20 20" fill="none" xmlns="http://www.w3.org/2000/svg">
<g clip-path="url(#clip0_6386_7192)">
<g clip-path="url(#clip1_6386_7192)">
<path d="M0.875521 13.5781H10.0396V15.2619H15.7681V13.5818H18.044C18.1914 15.5843 18.203 17.3672 16.1491 18.7262C16.1241 18.7427 16.1039 18.7654 16.0482 18.8149C16.3008 19.0247 16.5498 19.232 16.7962 19.4369C16.4635 19.755 16.1962 20.0106 15.8898 20.3042C15.6195 20.0253 15.3271 19.7018 15.0084 19.407C14.9149 19.3201 14.7491 19.2846 14.6133 19.2761C14.3913 19.2626 14.1662 19.2987 13.9424 19.2993C10.9668 19.3011 7.99122 19.3005 5.01503 19.3005C4.87252 19.3005 4.72023 19.3281 4.58873 19.2883C4.19178 19.169 3.93979 19.3531 3.7037 19.6375C3.50247 19.8797 3.27311 20.0981 3.06332 20.3195C2.78014 20.0216 2.52386 19.7525 2.24007 19.4534C2.43028 19.2852 2.67188 19.0712 2.94344 18.8302C2.75628 18.6962 2.61622 18.6033 2.4835 18.5005C1.48899 17.7341 0.951363 16.7176 0.881026 15.4693C0.846163 14.8509 0.87491 14.2289 0.87491 13.5781H0.875521Z" fill="black"/>
<path d="M0.880903 8.94481C0.87601 8.83411 0.867447 8.73441 0.867447 8.63472C0.866836 7.0139 0.865001 5.39369 0.867447 3.77287C0.869894 1.9918 2.106 0.748973 3.88462 0.761817C4.48157 0.766099 5.09687 0.753866 5.67058 0.889036C6.68833 1.12941 7.32932 1.83523 7.6388 2.82974C7.69874 3.02301 7.77642 3.11659 7.98865 3.17409C9.18622 3.49886 10.0266 4.61814 10.0419 5.86709C10.0443 6.06832 10.0419 6.26954 10.0419 6.4879H4.37331C4.10297 5.05852 4.87974 3.58327 6.50362 3.12271C6.35682 2.48478 5.72868 1.94654 5.06934 1.9233C4.57087 1.90556 4.07055 1.90373 3.57207 1.9233C2.71273 1.95694 2.02159 2.74594 2.01792 3.69214C2.01181 5.32274 2.01609 6.95396 2.01609 8.58456C2.01609 8.69588 2.01609 8.8072 2.01609 8.9442H0.87968L0.880903 8.94481Z" fill="black"/>
<path d="M10.0238 12.4321C9.90388 12.4321 9.81397 12.4321 9.72406 12.4321C6.81148 12.4321 3.89829 12.4327 0.985709 12.4315C0.358788 12.4315 -0.0919827 12.1348 -0.250395 11.6284C-0.48893 10.8663 0.0511387 10.1323 0.874392 10.1213C1.75025 10.1097 2.6261 10.1183 3.50195 10.1183C5.55948 10.1183 7.61639 10.1183 9.67391 10.1183C9.784 10.1183 9.8941 10.1183 10.0238 10.1183V12.4315V12.4321Z" fill="black"/>
<path d="M14.6151 14.1452H11.2065C11.201 14.0375 11.1918 13.9397 11.1918 13.8418C11.1906 12.6608 11.1906 11.4791 11.1918 10.298C11.1924 9.44359 11.6591 8.97386 12.5099 8.97019C12.8255 8.96897 13.1411 8.96224 13.4567 8.97202C14.1656 8.99465 14.6286 9.47111 14.6304 10.1818C14.6341 11.4143 14.6316 12.6461 14.6304 13.8785C14.6304 13.9586 14.6219 14.0382 14.6151 14.1452Z" fill="black"/>
<path d="M15.7886 12.4222V10.1194C16.3427 10.1194 16.8889 10.1176 17.4345 10.1201C17.7189 10.1213 18.0094 10.098 18.2877 10.1439C18.895 10.2442 19.2902 10.7415 19.2651 11.3219C19.2406 11.8913 18.8204 12.38 18.2241 12.4112C17.4241 12.4534 16.6204 12.4216 15.7892 12.4216L15.7886 12.4222Z" fill="black"/>
</g>
</g>
<defs>
<clipPath id="clip0_6386_7192">
<rect width="18.625" height="18.625" fill="white" transform="translate(0.625 0.761719)"/>
</clipPath>
<clipPath id="clip1_6386_7192">
<rect width="19.5722" height="19.5562" fill="white" transform="translate(-0.306641 0.761719)"/>
</clipPath>
</defs>
</svg>
