<svg width="76" height="80" viewBox="0 0 76 80" fill="none" xmlns="http://www.w3.org/2000/svg">
<path d="M27.4292 35.1554V15.9588L19.3875 11.1261V30.6915L8.90797 24.3932V4.82788L0.871094 0V28.8667L8.90797 33.6993L19.3779 39.9928H19.3875V39.9976H19.3779L8.90797 46.2815L0.871094 51.119V79.9904L0.880673 80.0048L8.90797 75.1769L19.3875 68.8786L27.4292 64.046L33.9813 60.109L42.023 55.2763V29.2115L48.4554 25.3463L56.4922 20.5185L67.0915 14.1436V23.8999L56.4922 30.2748L48.4554 35.1027V63.9693L56.4922 68.802L67.0915 75.1721L75.1284 80.0048V52.2445L67.0915 47.4166L56.4922 41.0417L55.2757 40.3137L56.4922 39.5857L67.0915 33.2108L75.1284 28.3829V0L67.0915 4.82788L56.4922 11.2028L48.4554 16.0354L42.023 19.9006L33.9813 24.7381V50.7981L27.4292 54.7351L19.3875 59.5725L8.90797 65.8708V55.5972L19.3875 49.2989L27.1179 44.6483L27.4244 44.4663V35.1602L27.4292 35.1554ZM67.0915 56.7132V65.8612L56.4922 59.4863V50.3383L67.0915 56.7132Z" fill="#139ED5"/>
</svg>
