<svg width="50" height="824" viewBox="0 0 50 824" fill="none" xmlns="http://www.w3.org/2000/svg">
<path d="M35.1586 10.87C35.0586 10.86 34.9386 10.86 34.8286 10.87C32.4486 10.79 30.5586 8.84 30.5586 6.44C30.5586 3.99 32.5386 2 34.9986 2C37.4486 2 39.4386 3.99 39.4386 6.44C39.4286 8.84 37.5386 10.79 35.1586 10.87Z" stroke="#E2E2E2" stroke-linecap="round" stroke-linejoin="round"/>
<path d="M42.4112 4C44.3512 4 45.9112 5.57 45.9112 7.5C45.9112 9.39 44.4113 10.93 42.5413 11C42.4613 10.99 42.3713 10.99 42.2812 11" stroke="#E2E2E2" stroke-linecap="round" stroke-linejoin="round"/>
<path d="M30.1588 14.56C27.7387 16.18 27.7387 18.82 30.1588 20.43C32.9088 22.27 37.4188 22.27 40.1688 20.43C42.5888 18.81 42.5888 16.17 40.1688 14.56C37.4288 12.73 32.9188 12.73 30.1588 14.56Z" stroke="#E2E2E2" stroke-linecap="round" stroke-linejoin="round"/>
<path d="M44.3398 20C45.0598 19.85 45.7398 19.56 46.2998 19.13C47.8598 17.96 47.8598 16.03 46.2998 14.86C45.7498 14.44 45.0798 14.16 44.3698 14" stroke="#E2E2E2" stroke-linecap="round" stroke-linejoin="round"/>
</svg>
