<svg width="101" height="100" viewBox="0 0 101 100" fill="none" xmlns="http://www.w3.org/2000/svg">
<circle cx="50.5" cy="50" r="50" fill="#139ED5" fill-opacity="0.15"/>
<g clip-path="url(#clip0_7643_5711)">
<path d="M64.7939 43.2334L51.2598 56.7686L50.5 57.5283L46.4258 61.6016L41.5918 56.7686L36.2061 51.3818L41.04 46.5479L46.4258 51.9346L50.5 47.8604L59.96 38.4004L64.7939 43.2334Z" fill="#139ED5"/>
<path d="M50.5 25C36.6934 25 25.5 36.1934 25.5 50C25.5 63.8066 36.6934 75 50.5 75C64.3066 75 75.5 63.8066 75.5 50C75.5 36.1934 64.3066 25 50.5 25ZM50.5 73.249C37.6807 73.249 27.251 62.8193 27.251 50C27.251 37.1807 37.6807 26.751 50.5 26.751C63.3193 26.751 73.749 37.1807 73.749 50C73.749 62.8193 63.3193 73.249 50.5 73.249Z" fill="#139ED5"/>
</g>
<defs>
<clipPath id="clip0_7643_5711">
<rect width="50" height="50" fill="white" transform="translate(25.5 25)"/>
</clipPath>
</defs>
</svg>
