<svg width="101" height="100" viewBox="0 0 101 100" fill="none" xmlns="http://www.w3.org/2000/svg">
<circle cx="50.5" cy="50" r="50" fill="#E83535" fill-opacity="0.15"/>
<g clip-path="url(#clip0_7643_5826)">
<path d="M66.9527 33.4484C66.9346 33.4283 66.9174 33.4075 66.8981 33.3882C66.8566 33.3467 66.813 33.3083 66.7681 33.2724C62.6479 29.3861 57.0978 27 51.0005 27C38.3184 27 28.0007 37.318 28.0007 50.0008C28.0011 56.0954 30.3851 61.643 34.2683 65.7626C34.3054 65.8096 34.3449 65.8551 34.3883 65.8983C34.4107 65.9205 34.4344 65.9402 34.4577 65.961C38.6433 70.298 44.5122 73 51.0007 73C63.6823 73 73.9996 62.6827 73.9996 50.0006C73.9994 43.5073 71.2943 37.6346 66.9527 33.4484ZM51.0005 30.146C55.7274 30.146 60.0726 31.8077 63.4858 34.5761L35.5766 62.4853C32.8086 59.0724 31.1471 54.7271 31.1467 50.0006C31.1467 39.0529 40.0531 30.146 51.0005 30.146ZM51.0005 69.854C45.9105 69.854 41.2622 67.9274 37.7446 64.7664L65.7668 36.7443C68.9275 40.262 70.8535 44.9104 70.8535 50.0006C70.8535 60.9478 61.9474 69.854 51.0005 69.854Z" fill="#E83535"/>
</g>
<defs>
<clipPath id="clip0_7643_5826">
<rect width="46" height="46" fill="white" transform="translate(28 27)"/>
</clipPath>
</defs>
</svg>
