<svg width="14" height="14" viewBox="0 0 14 14" fill="none" xmlns="http://www.w3.org/2000/svg">
<path d="M12.8018 1.64055L12.8014 1.64018C12.6758 1.53574 12.5243 1.46728 12.3629 1.44211C12.2016 1.41694 12.0364 1.43598 11.885 1.49722L11.8848 1.49729L1.43277 5.71719C1.43248 5.71731 1.4322 5.71743 1.43191 5.71755C1.26343 5.78707 1.12003 5.9061 1.02067 6.0589C0.921133 6.21197 0.870505 6.39168 0.8755 6.5742C0.880495 6.75671 0.940877 6.93339 1.04863 7.08078C1.15638 7.22816 1.30639 7.33929 1.47877 7.39942C1.47878 7.39943 1.4788 7.39944 1.47881 7.39944L3.59315 8.13479L3.73351 8.1836L3.77652 8.32584L4.95474 12.2221C4.9548 12.2223 4.95486 12.2225 4.95492 12.2227C4.96148 12.2439 4.97044 12.2642 4.98161 12.2833C4.98641 12.2891 4.99247 12.2967 4.99892 12.3058L4.76073 12.4741L4.99779 12.3042C5.0148 12.328 5.03535 12.3489 5.05873 12.3664L5.06084 12.368C5.07349 12.3776 5.07787 12.3807 5.08085 12.3826L5.08607 12.3859L5.08603 12.3859C5.10809 12.4006 5.13207 12.412 5.15726 12.42L5.18439 12.4223L5.19958 12.4288C5.20552 12.4295 5.21148 12.43 5.21746 12.4304C5.22447 12.4297 5.23215 12.4292 5.24037 12.4291L5.24066 12.4291C5.26629 12.4286 5.29172 12.4248 5.31628 12.4176L5.31852 12.4164C5.3246 12.4134 5.33379 12.4089 5.34488 12.4042L5.34696 12.4033L5.34696 12.4033C5.3653 12.3957 5.3828 12.3863 5.39918 12.3751L5.46365 12.3208L7.02668 10.5951L7.20797 10.3949L7.42147 10.5603L9.77246 12.3815L9.77302 12.3819C9.92884 12.5032 10.1206 12.5692 10.3181 12.5694L12.8018 1.64055ZM12.8018 1.64055C12.9264 1.74377 13.0206 1.87891 13.0743 2.03152C13.1279 2.18413 13.1391 2.34846 13.1066 2.50694L13.1066 2.50732L11.2037 11.8487L11.4891 11.9085M12.8018 1.64055L13.3924 2.56554L11.4891 11.9085M11.4891 11.9085L11.2033 11.8503L11.2035 11.8495M11.4891 11.9085C11.4327 12.1775 11.2856 12.419 11.0724 12.5924L11.2035 11.8495M11.2035 11.8495C11.1607 12.0527 11.0495 12.2351 10.8883 12.3661C10.7272 12.4972 10.5259 12.5689 10.3181 12.5694L11.2035 11.8495ZM4.96831 12.2682C4.96792 12.2678 4.96797 12.2678 4.96834 12.2682L4.96831 12.2682ZM5.67192 8.80263L5.67236 8.80218L7.24691 7.22709L6.90592 6.76219L4.53453 7.99708L4.32008 8.10875L4.39006 8.34019L4.84742 9.85281L5.41229 9.82718L5.59283 8.94985L5.59297 8.94921C5.60427 8.89364 5.63174 8.84265 5.67192 8.80263ZM10.1302 11.9204L10.4995 12.2065L10.5944 11.749L12.5352 2.39177L12.6455 1.86002L12.1413 2.06173L1.65381 6.25731L0.946585 6.54024L1.66192 6.80201L3.83446 7.59704L3.95528 7.64125L4.06939 7.58184L9.99914 4.49447L9.99937 4.49435C10.0611 4.46212 10.1324 4.45308 10.2003 4.46886C10.2681 4.48465 10.3281 4.52421 10.3693 4.58039C10.4105 4.63657 10.4302 4.70565 10.4249 4.77512C10.4196 4.84459 10.3895 4.90985 10.3402 4.95908L10.3401 4.95922L6.20833 9.09097L6.14651 9.15279L6.12889 9.23843L5.95048 10.1055L5.73525 11.1516L6.45231 10.3601L6.9569 9.80319C6.95696 9.80313 6.95702 9.80306 6.95709 9.80299C7.00652 9.74867 7.07458 9.71493 7.14775 9.70849C7.22095 9.70205 7.29389 9.7234 7.35206 9.76829C7.35211 9.76832 7.35216 9.76836 7.3522 9.7684L10.1302 11.9204Z" fill="#323232" stroke="#323232" stroke-width="0.583333"/>
</svg>
