<svg width="16" height="15" viewBox="0 0 16 15" fill="none" xmlns="http://www.w3.org/2000/svg">
<path fill-rule="evenodd" clip-rule="evenodd" d="M3.34493 12.2704V2.7779H3.16239C2.85993 2.7779 2.61475 2.53271 2.61475 2.23026C2.61475 1.9278 2.85993 1.68262 3.16239 1.68262H12.2897C12.5922 1.68262 12.8374 1.9278 12.8374 2.23026C12.8374 2.53271 12.5922 2.7779 12.2897 2.7779H12.1072V12.2704H12.2897C12.5922 12.2704 12.8374 12.5155 12.8374 12.818C12.8374 13.1204 12.5922 13.3656 12.2897 13.3656H9.73409C9.43163 13.3656 9.18644 13.1204 9.18644 12.818V10.9925C9.18644 10.6901 8.94126 10.4449 8.6388 10.4449H6.81333C6.51088 10.4449 6.26569 10.6901 6.26569 10.9925V12.818C6.26569 13.1204 6.0205 13.3656 5.71805 13.3656H3.16239C2.85993 13.3656 2.61475 13.1204 2.61475 12.818C2.61475 12.5155 2.85993 12.2704 3.16239 12.2704H3.34493ZM5.5355 4.23828C5.5355 4.03665 5.69896 3.87319 5.9006 3.87319H6.63078C6.83242 3.87319 6.99588 4.03665 6.99588 4.23828V4.96847C6.99588 5.17011 6.83242 5.33357 6.63078 5.33357H5.9006C5.69896 5.33357 5.5355 5.17011 5.5355 4.96847V4.23828ZM5.9006 6.79394C5.69896 6.79394 5.5355 6.9574 5.5355 7.15904V7.88923C5.5355 8.09086 5.69896 8.25432 5.9006 8.25432H6.63078C6.83242 8.25432 6.99588 8.09086 6.99588 7.88923V7.15904C6.99588 6.9574 6.83242 6.79394 6.63078 6.79394H5.9006ZM8.45626 4.23828C8.45626 4.03665 8.61971 3.87319 8.82135 3.87319H9.55154C9.75317 3.87319 9.91663 4.03665 9.91663 4.23828V4.96847C9.91663 5.17011 9.75317 5.33357 9.55154 5.33357H8.82135C8.61971 5.33357 8.45626 5.17011 8.45626 4.96847V4.23828ZM8.82135 6.79394C8.61971 6.79394 8.45626 6.9574 8.45626 7.15904V7.88923C8.45626 8.09086 8.61971 8.25432 8.82135 8.25432H9.55154C9.75317 8.25432 9.91663 8.09086 9.91663 7.88923V7.15904C9.91663 6.9574 9.75317 6.79394 9.55154 6.79394H8.82135Z" fill="#323232"/>
</svg>
