<svg width="24" height="24" viewBox="0 0 24 24" fill="none" xmlns="http://www.w3.org/2000/svg">
<path fill-rule="evenodd" clip-rule="evenodd" d="M20.3999 12.0008C20.3999 12.4978 19.997 12.9008 19.4999 12.9008L6.7344 12.9008L11.7237 17.652C12.082 17.9965 12.0932 18.5663 11.7487 18.9246C11.4041 19.2829 10.8344 19.294 10.4761 18.9495L3.87611 12.6495C3.69963 12.4798 3.5999 12.2456 3.5999 12.0008C3.5999 11.756 3.69963 11.5217 3.87611 11.352L10.4761 5.05203C10.8344 4.70752 11.4041 4.71869 11.7487 5.07698C12.0932 5.43528 12.082 6.00502 11.7237 6.34953L6.7344 11.1008L19.4999 11.1008C19.997 11.1008 20.3999 11.5037 20.3999 12.0008Z" fill="#fff"/>
</svg>
