<svg width="20" height="24" viewBox="0 0 20 24" fill="none" xmlns="http://www.w3.org/2000/svg">
<path fill-rule="evenodd" clip-rule="evenodd" d="M3.84859 6.65115C3.84859 10.0423 6.60859 12.8023 9.99974 12.8023C13.3909 12.8023 16.1509 10.0423 16.1509 6.65115C16.1509 3.26 13.3909 0.5 9.99974 0.5C6.60859 0.5 3.84859 3.26 3.84859 6.65115ZM5.45324 6.65115C5.45324 4.1479 7.49649 2.10465 9.99974 2.10465C12.503 2.10465 14.5462 4.1479 14.5462 6.65115C14.5462 9.15441 12.503 11.1977 9.99974 11.1977C7.49649 11.1977 5.45324 9.15441 5.45324 6.65115ZM18.3868 22.6977C18.3868 23.1363 18.7505 23.5 19.1891 23.5C19.6277 23.5 19.9915 23.1363 19.9915 22.6977C19.9915 18.1298 15.5093 14.407 9.99996 14.407C4.49061 14.407 0.00830078 18.1298 0.00830078 22.6977C0.00830078 23.1363 0.372021 23.5 0.810625 23.5C1.24923 23.5 1.61295 23.1363 1.61295 22.6977C1.61295 19.007 5.37852 16.0116 9.99996 16.0116C14.6213 16.0116 18.3868 19.007 18.3868 22.6977Z" fill="#139ED5"/>
</svg>
