<svg width="74" height="80" viewBox="0 0 74 80" fill="none" xmlns="http://www.w3.org/2000/svg">
<g clip-path="url(#clip0_4336_687)">
<path d="M26.4661 35.1554V15.9588L18.4523 11.1261V30.6915L8.00903 24.3932V4.82788L0 0V28.8667L8.00903 33.6993L18.4427 39.9928H18.4523V39.9976H18.4427L8.00903 46.2815L0 51.119V79.9904L0.00954592 80.0048L8.00903 75.1769L18.4523 68.8786L26.4661 64.046L32.9955 60.109L41.0093 55.2763V29.2115L47.4194 25.3463L55.4284 20.5185L65.991 14.1436V23.8999L55.4284 30.2748L47.4194 35.1027V63.9693L55.4284 68.802L65.991 75.1721L74 80.0048V52.2445L65.991 47.4166L55.4284 41.0417L54.2161 40.3137L55.4284 39.5857L65.991 33.2108L74 28.3829V0L65.991 4.82788L55.4284 11.2028L47.4194 16.0354L41.0093 19.9006L32.9955 24.7381V50.7981L26.4661 54.7351L18.4523 59.5725L8.00903 65.8708V55.5972L18.4523 49.2989L26.1558 44.6483L26.4613 44.4663V35.1602L26.4661 35.1554ZM65.991 56.7132V65.8612L55.4284 59.4863V50.3383L65.991 56.7132Z" fill="#FBFAFA"/>
</g>
<defs>
<clipPath id="clip0_4336_687">
<rect width="74" height="80" fill="white"/>
</clipPath>
</defs>
</svg>
