<svg width="16" height="16" viewBox="0 0 16 16" fill="none" xmlns="http://www.w3.org/2000/svg">
<path fill-rule="evenodd" clip-rule="evenodd" d="M5.01957 2.31246C5.21483 2.50772 5.21483 2.82431 5.01957 3.01957L3.87312 4.16601H9.99935C12.1164 4.16601 13.8327 5.88225 13.8327 7.99935C13.8327 10.1164 12.1164 11.8327 9.99935 11.8327H5.33269C5.05654 11.8327 4.83269 11.6088 4.83269 11.3327C4.83269 11.0565 5.05654 10.8327 5.33269 10.8327H9.99935C11.5641 10.8327 12.8327 9.56415 12.8327 7.99935C12.8327 6.43454 11.5641 5.16601 9.99935 5.16601H3.87312L5.01957 6.31246C5.21483 6.50772 5.21483 6.82428 5.01957 7.01955C4.82431 7.21481 4.50772 7.21481 4.31246 7.01955L2.31246 5.01957C2.1172 4.82431 2.1172 4.50772 2.31246 4.31246L4.31246 2.31246C4.50772 2.1172 4.82431 2.1172 5.01957 2.31246Z" fill="white"/>
</svg>
