<svg width="19" height="20" viewBox="0 0 19 20" fill="none" xmlns="http://www.w3.org/2000/svg">
<g clip-path="url(#clip0_6386_7186)">
<g clip-path="url(#clip1_6386_7186)">
<path d="M9.32369 17.0227C6.5316 17.0227 3.74025 17.0227 0.948168 17.0227C0.66588 17.0227 0.535367 17.152 0.535367 17.4306C0.535367 17.5028 0.539034 17.575 0.534634 17.6465C0.528769 17.7331 0.51997 17.8197 0.503839 17.9042C0.443716 18.2124 0.14823 18.4593 -0.20518 18.4557C-0.560056 18.4521 -0.854075 18.1886 -0.9076 17.85C-0.920065 17.7706 -0.926664 17.6891 -0.926664 17.6089C-0.927397 15.9688 -0.938395 14.3279 -0.922998 12.6877C-0.914199 11.732 -0.560789 10.9003 0.116702 10.208C0.528035 9.78788 1.01709 9.48901 1.57653 9.29843C2.01646 9.149 2.47106 9.10352 2.93445 9.10352C7.22889 9.10496 11.5233 9.10135 15.8178 9.1064C17.076 9.10785 18.0951 9.6074 18.8504 10.6007C19.2214 11.0895 19.4428 11.6446 19.5183 12.251C19.544 12.4553 19.555 12.6632 19.5557 12.8697C19.5586 14.4622 19.5579 16.0547 19.5572 17.6472C19.5572 17.8962 19.4948 18.1229 19.2866 18.2875C19.0666 18.4615 18.821 18.507 18.5593 18.4009C18.3085 18.2983 18.1501 18.1099 18.1142 17.8407C18.0959 17.7049 18.0981 17.5656 18.0944 17.4285C18.0885 17.2068 17.9954 17.0733 17.8092 17.0321C17.7681 17.0227 17.7249 17.0235 17.6823 17.0235C14.8969 17.0235 12.1114 17.0235 9.32515 17.0235L9.32369 17.0227Z" fill="black"/>
<path d="M9.22156 2.625C11.0326 2.625 12.8429 2.625 14.6532 2.625C15.2596 2.625 15.8264 2.75855 16.3154 3.12744C16.9445 3.60173 17.3119 4.22617 17.3427 5.01015C17.369 5.67502 17.3573 6.34134 17.3602 7.00693C17.3624 7.43574 17.3602 7.86454 17.3602 8.29335C17.3602 8.33161 17.358 8.37204 17.3478 8.40886C17.3163 8.52508 17.2525 8.57128 17.1322 8.5489C17.001 8.52436 16.8741 8.47166 16.7429 8.45722C16.4342 8.42402 16.1248 8.40092 15.8146 8.38503C15.6079 8.37421 15.5441 8.33739 15.5147 8.13742C15.4209 7.50359 14.8248 6.93329 14.0622 6.94196C13.2117 6.95134 12.3612 6.94412 11.5114 6.94412C10.8786 6.94412 10.3382 7.31518 10.1234 7.89992C10.0926 7.98366 10.0809 8.07462 10.0648 8.16269C10.0347 8.32078 9.97531 8.37998 9.81547 8.38215C9.48039 8.38576 9.14457 8.38576 8.80949 8.38215C8.65552 8.3807 8.59466 8.32078 8.5668 8.14536C8.52794 7.8992 8.43116 7.67974 8.27278 7.48699C7.98609 7.13759 7.61509 6.94773 7.15756 6.94557C6.2799 6.94124 5.40224 6.9434 4.52385 6.94484C3.78624 6.94557 3.2092 7.51298 3.11535 8.13598C3.08528 8.33739 3.02443 8.37276 2.81766 8.38576C2.47525 8.40813 2.13284 8.4399 1.79116 8.47599C1.68631 8.48682 1.58586 8.53158 1.48174 8.5489C1.36956 8.56695 1.3175 8.52941 1.28597 8.42113C1.27351 8.37854 1.26764 8.33306 1.26764 8.2883C1.26691 7.25959 1.25298 6.23089 1.27058 5.20218C1.28891 4.12583 1.79409 3.33463 2.78247 2.85601C3.174 2.66759 3.59853 2.625 4.0282 2.625C5.75932 2.625 7.49044 2.625 9.22156 2.625Z" fill="black"/>
</g>
</g>
<defs>
<clipPath id="clip0_6386_7186">
<rect width="18.625" height="18.625" fill="white" transform="translate(0 0.761719)"/>
</clipPath>
<clipPath id="clip1_6386_7186">
<rect width="20.4875" height="15.8313" fill="white" transform="translate(-0.931152 2.625)"/>
</clipPath>
</defs>
</svg>
