<svg width="18" height="18" viewBox="0 0 18 18" fill="none" xmlns="http://www.w3.org/2000/svg">
<g clip-path="url(#clip0_8461_10056)">
<path fill-rule="evenodd" clip-rule="evenodd" d="M4.4751 16.276C5.23485 14.311 7.14285 12.916 9.3741 12.916C11.6054 12.916 13.5134 14.311 14.2731 16.276C14.3399 16.4485 14.3174 16.6435 14.2124 16.7965C14.1074 16.9495 13.9341 17.041 13.7481 17.041H5.0001C4.81485 17.041 4.64085 16.9495 4.53585 16.7965C4.4316 16.6435 4.40835 16.4485 4.4751 16.276Z" fill="#139ED5"/>
<path fill-rule="evenodd" clip-rule="evenodd" d="M9.54884 13.6006C9.48134 13.9036 9.18059 14.0949 8.87759 14.0274C8.57459 13.9599 8.38334 13.6591 8.45084 13.3561C8.45084 13.3561 8.96384 11.0446 8.45009 8.65585C8.12009 7.1236 7.36409 5.5501 5.71634 4.58935C5.44859 4.4326 5.35784 4.08835 5.51384 3.81985C5.67059 3.5521 6.01484 3.46135 6.28334 3.61735C8.23559 4.7566 9.15959 6.6031 9.54959 8.41885C10.1158 11.0521 9.54884 13.6006 9.54884 13.6006Z" fill="#139ED5"/>
<path fill-rule="evenodd" clip-rule="evenodd" d="M9.79147 10.5893C9.72997 10.8938 9.43297 11.091 9.12922 11.0295C8.82472 10.968 8.62747 10.6718 8.68897 10.3673C8.68897 10.3673 8.92447 9.05702 10.63 7.44452C10.8557 7.23152 11.212 7.24127 11.425 7.46702C11.6387 7.69277 11.6282 8.04902 11.4032 8.26202C10.027 9.56327 9.79147 10.5893 9.79147 10.5893Z" fill="#139ED5"/>
<path fill-rule="evenodd" clip-rule="evenodd" d="M10.7129 8.88873C10.6581 8.74173 10.4691 8.18598 10.4541 7.54173C10.4346 6.70773 10.6971 5.75223 11.7426 5.21673C13.6109 4.26123 15.9119 4.93323 16.9236 6.09873C17.0474 6.24123 17.0916 6.43473 17.0414 6.61623C16.9919 6.79773 16.8554 6.94173 16.6769 7.00173C16.6769 7.00173 15.7559 7.33698 15.1274 8.59398C14.8169 9.21423 14.0241 9.88023 13.1819 10.1105C12.7169 10.2372 12.2421 10.235 11.8176 10.064C11.6721 10.0055 11.5304 9.92673 11.3976 9.82548C11.5994 9.57273 11.8476 9.29898 12.1521 9.01173C12.3771 8.79873 12.3876 8.44248 12.1739 8.21673C11.9609 7.99098 11.6046 7.98123 11.3789 8.19423C11.1254 8.43348 10.9049 8.66598 10.7129 8.88873Z" fill="#139ED5"/>
<path fill-rule="evenodd" clip-rule="evenodd" d="M6.95553 7.79256C6.66603 7.92232 6.38703 7.98307 6.12303 7.99432C5.31228 8.02807 4.59378 7.57881 4.02828 6.94731C3.48753 6.34281 3.08778 5.58456 2.86503 5.10381C2.37603 4.05156 1.08153 2.61756 1.08153 2.61756C0.960777 2.48331 0.912027 2.29956 0.950277 2.12331C0.988527 1.94706 1.10853 1.79931 1.27353 1.72656C3.47178 0.762064 6.14103 0.507814 8.22678 2.17806C9.19653 2.95506 9.32478 3.94356 9.11703 4.85556C8.84178 6.06456 7.92228 7.11382 7.92228 7.11382C7.91553 7.12132 7.90803 7.12881 7.90128 7.13631C7.37178 5.91231 6.51228 4.78206 5.15853 3.99231C4.89003 3.83631 4.54578 3.92706 4.38903 4.19481C4.23303 4.46331 4.32378 4.80756 4.59153 4.96431C5.79378 5.66557 6.52203 6.69306 6.95553 7.79256Z" fill="#139ED5"/>
</g>
<defs>
<clipPath id="clip0_8461_10056">
<rect width="18" height="18" fill="white"/>
</clipPath>
</defs>
</svg>
