<svg width="24" height="24" viewBox="0 0 24 24" fill="none" xmlns="http://www.w3.org/2000/svg">
<path fill-rule="evenodd" clip-rule="evenodd" d="M9.39344 9.22778C9.33203 9.27467 9.2545 9.29525 9.17792 9.28498C9.10133 9.27472 9.03196 9.23445 8.98507 9.17303C8.93817 9.11162 8.9176 9.03409 8.92786 8.9575C8.93813 8.88092 8.9784 8.81155 9.03982 8.76466L11.8232 6.63616C11.8748 6.5968 11.938 6.57576 12.0029 6.57639C12.0678 6.57702 12.1306 6.59927 12.1814 6.63963L14.9602 8.76466C15.0216 8.81155 15.0619 8.88092 15.0722 8.9575C15.0824 9.03409 15.0619 9.11162 15.015 9.17303C14.9681 9.23445 14.8987 9.27472 14.8221 9.28498C14.7455 9.29525 14.668 9.27467 14.6066 9.22778L14.4313 9.09372V11.6228C14.4313 11.6952 14.417 11.7669 14.3893 11.8338C14.3615 11.9006 14.3208 11.9613 14.2696 12.0124L14.269 12.0119C14.218 12.0632 14.1574 12.1039 14.0906 12.1318C14.0239 12.1596 13.9523 12.174 13.8799 12.1742H10.1203C9.97415 12.174 9.83402 12.1158 9.73066 12.0125C9.6273 11.9091 9.56914 11.769 9.56894 11.6228V9.09372L9.39363 9.22778H9.39344ZM12.2689 11.5903V10.1597H11.7311V11.5901L12.2689 11.5903ZM11.1471 11.5903V9.86772C11.1471 9.79027 11.1778 9.71599 11.2326 9.66122C11.2874 9.60646 11.3617 9.57569 11.4391 9.57569H12.561C12.6384 9.5757 12.7127 9.60647 12.7675 9.66124C12.8222 9.716 12.853 9.79027 12.853 9.86772V11.5901H13.8473V8.64709L12 7.23452L10.1528 8.64709V11.5901L11.1471 11.5903ZM10.3495 2.62591H8.68919V4.49102H15.3108V2.62591L13.6506 2.62483C13.5823 2.6248 13.5163 2.60079 13.4639 2.55698C13.4116 2.51318 13.3763 2.45238 13.3643 2.3852C13.3277 2.18364 13.1741 1.9982 12.9471 1.85898C12.413 1.53142 11.587 1.53142 11.0529 1.85898C10.8334 1.99361 10.6826 2.17141 10.6398 2.36523C10.632 2.43683 10.5981 2.50304 10.5445 2.55115C10.4909 2.59926 10.4215 2.62588 10.3495 2.62591ZM15.8948 2.62122V2.33369C15.8948 2.25624 15.864 2.18197 15.8092 2.1272C15.7545 2.07244 15.6802 2.04167 15.6027 2.04166H13.8652C13.7514 1.77072 13.5355 1.5362 13.2506 1.36145C12.5287 0.918578 11.4716 0.918578 10.7495 1.36145C10.4645 1.5362 10.2486 1.77072 10.1349 2.04166H8.39716C8.31972 2.04167 8.24545 2.07244 8.19069 2.12721C8.13594 2.18197 8.10518 2.25624 8.10518 2.33369V2.62122H5.87064C5.24669 2.62283 4.64874 2.8714 4.20753 3.31261C3.76632 3.75381 3.51773 4.35175 3.51611 4.9757V20.6179C3.51772 21.2419 3.7663 21.8398 4.20752 22.281C4.64873 22.7222 5.24668 22.9708 5.87064 22.9724H18.1294C18.7534 22.9708 19.3513 22.7222 19.7925 22.281C20.2337 21.8398 20.4823 21.2419 20.4839 20.6179V4.9757C20.4823 4.35175 20.2337 3.75381 19.7925 3.31261C19.3513 2.8714 18.7534 2.62283 18.1294 2.62122H15.8948ZM18.2145 18.7845L16.4318 20.6553V19.2584C16.4324 19.1329 16.4825 19.0127 16.5712 18.924C16.66 18.8352 16.7801 18.7851 16.9056 18.7846L18.2145 18.7845ZM16.1391 21.6759H5.87064C5.59026 21.6753 5.32154 21.5637 5.12328 21.3654C4.92503 21.1671 4.81338 20.8984 4.81277 20.618V4.97584C4.81334 4.69544 4.92497 4.42668 5.12323 4.22839C5.3215 4.0301 5.59024 3.91843 5.87064 3.91783H8.10518V3.20533H5.87064C5.40159 3.20693 4.9522 3.39397 4.62053 3.72564C4.28885 4.05731 4.10179 4.50669 4.10018 4.97575V20.6179C4.10178 21.087 4.28883 21.5364 4.62051 21.8681C4.95219 22.1998 5.40158 22.3868 5.87064 22.3884H18.1294C18.5985 22.3868 19.0479 22.1998 19.3795 21.8681C19.7112 21.5364 19.8983 21.087 19.8999 20.6179V4.97575C19.8982 4.50669 19.7112 4.05731 19.3795 3.72564C19.0478 3.39397 18.5984 3.20693 18.1294 3.20533H15.8948V3.91783H18.1294C18.4098 3.91843 18.6785 4.03008 18.8767 4.22833C19.075 4.42657 19.1867 4.69528 19.1873 4.97566V18.4924C19.1873 18.5331 19.1788 18.5734 19.1624 18.6106C19.1459 18.6478 19.1218 18.6812 19.0917 18.7085L16.3653 21.5695C16.3377 21.6028 16.3031 21.6296 16.264 21.648C16.225 21.6664 16.1823 21.6759 16.1391 21.6759ZM7.74016 14.0935C7.66336 14.0925 7.59003 14.0613 7.53606 14.0066C7.48209 13.952 7.45183 13.8783 7.45183 13.8014C7.45183 13.7246 7.48209 13.6509 7.53606 13.5963C7.59003 13.5416 7.66336 13.5104 7.74016 13.5094H12.702C12.7406 13.5089 12.779 13.5161 12.8149 13.5306C12.8507 13.545 12.8833 13.5665 12.9109 13.5936C12.9384 13.6208 12.9602 13.6532 12.9751 13.6888C12.99 13.7245 12.9977 13.7628 12.9977 13.8014C12.9977 13.8401 12.99 13.8784 12.9751 13.9141C12.9602 13.9497 12.9384 13.9821 12.9109 14.0092C12.8833 14.0364 12.8507 14.0578 12.8149 14.0723C12.779 14.0868 12.7406 14.0939 12.702 14.0935H7.74016ZM10.0387 15.7423C9.96122 15.7423 9.88695 15.7116 9.83218 15.6568C9.77741 15.602 9.74664 15.5277 9.74664 15.4503C9.74664 15.3728 9.77741 15.2986 9.83218 15.2438C9.88695 15.189 9.96122 15.1583 10.0387 15.1583H16.3932C16.4707 15.1583 16.545 15.189 16.5997 15.2438C16.6545 15.2986 16.6853 15.3728 16.6853 15.4503C16.6853 15.5277 16.6545 15.602 16.5997 15.6568C16.545 15.7116 16.4707 15.7423 16.3932 15.7423H10.0387ZM7.74016 15.7423C7.66271 15.7423 7.58843 15.7116 7.53366 15.6568C7.4789 15.602 7.44813 15.5277 7.44813 15.4503C7.44813 15.3728 7.4789 15.2986 7.53366 15.2438C7.58843 15.189 7.66271 15.1583 7.74016 15.1583H8.94508C9.02253 15.1583 9.09681 15.189 9.15158 15.2438C9.20635 15.2986 9.23711 15.3728 9.23711 15.4503C9.23711 15.5277 9.20635 15.602 9.15158 15.6568C9.09681 15.7116 9.02253 15.7423 8.94508 15.7423H7.74016ZM7.74016 17.3912C7.66336 17.3902 7.59003 17.359 7.53606 17.3043C7.48209 17.2497 7.45183 17.176 7.45183 17.0991C7.45183 17.0223 7.48209 16.9486 7.53606 16.894C7.59003 16.8393 7.66336 16.8081 7.74016 16.8071H16.3933C16.4319 16.8067 16.4703 16.8138 16.5062 16.8283C16.542 16.8428 16.5747 16.8642 16.6022 16.8913C16.6297 16.9185 16.6515 16.9509 16.6664 16.9865C16.6813 17.0222 16.689 17.0605 16.689 17.0991C16.689 17.1378 16.6813 17.1761 16.6664 17.2118C16.6515 17.2474 16.6297 17.2798 16.6022 17.3069C16.5747 17.3341 16.542 17.3555 16.5062 17.37C16.4703 17.3845 16.4319 17.3916 16.3933 17.3912H7.74016ZM14.1941 19.04C14.1558 19.04 14.1178 19.0325 14.0824 19.0178C14.047 19.0031 14.0148 18.9816 13.9876 18.9545C13.9605 18.9274 13.939 18.8952 13.9243 18.8598C13.9097 18.8243 13.9021 18.7864 13.9021 18.748C13.9021 18.7097 13.9097 18.6717 13.9243 18.6362C13.939 18.6008 13.9605 18.5686 13.9876 18.5415C14.0148 18.5144 14.047 18.4929 14.0824 18.4782C14.1178 18.4635 14.1558 18.456 14.1941 18.456H16.2176C16.4089 18.291 16.6531 18.2003 16.9057 18.2004H18.6032V4.97566C18.6027 4.85017 18.5526 4.72998 18.4638 4.64125C18.3751 4.55252 18.2549 4.50243 18.1294 4.50189H15.8948V4.78314C15.8948 4.86059 15.864 4.93487 15.8093 4.98964C15.7545 5.0444 15.6802 5.07517 15.6028 5.07517H8.39716C8.35881 5.07517 8.32084 5.06762 8.28541 5.05294C8.24998 5.03826 8.21779 5.01675 8.19068 4.98963C8.16357 4.96252 8.14206 4.93032 8.12739 4.89489C8.11272 4.85946 8.10517 4.82149 8.10518 4.78314V4.50189H5.87064C5.74516 4.50243 5.62496 4.55252 5.53622 4.64125C5.44749 4.72998 5.39739 4.85017 5.39683 4.97566V20.6178C5.39737 20.7433 5.44747 20.8635 5.53621 20.9523C5.62495 21.041 5.74515 21.0911 5.87064 21.0917H15.8478V19.2583C15.8478 19.1849 15.8554 19.1118 15.8706 19.04H14.1941ZM7.74016 19.04C7.66271 19.04 7.58843 19.0093 7.53366 18.9545C7.4789 18.8997 7.44813 18.8255 7.44813 18.748C7.44813 18.6705 7.4789 18.5963 7.53366 18.5415C7.58843 18.4867 7.66271 18.456 7.74016 18.456H13.1178C13.1561 18.456 13.1941 18.4635 13.2295 18.4782C13.2649 18.4929 13.2971 18.5144 13.3243 18.5415C13.3514 18.5686 13.3729 18.6008 13.3876 18.6362C13.4022 18.6717 13.4098 18.7097 13.4098 18.748C13.4098 18.7864 13.4022 18.8243 13.3876 18.8598C13.3729 18.8952 13.3514 18.9274 13.3243 18.9545C13.2971 18.9816 13.2649 19.0031 13.2295 19.0178C13.1941 19.0325 13.1561 19.04 13.1178 19.04H7.74016Z" fill="#E2E2E2"/>
</svg>
