<svg width="24" height="24" viewBox="0 0 24 24" fill="none" xmlns="http://www.w3.org/2000/svg">
<g clip-path="url(#clip0_5815_5019)">
<path fill-rule="evenodd" clip-rule="evenodd" d="M9.39295 9.22778C9.33154 9.27467 9.25401 9.29525 9.17743 9.28498C9.10084 9.27472 9.03147 9.23445 8.98458 9.17303C8.93768 9.11162 8.91711 9.03409 8.92738 8.9575C8.93764 8.88092 8.97791 8.81155 9.03933 8.76466L11.8227 6.63616C11.8743 6.5968 11.9375 6.57576 12.0024 6.57639C12.0673 6.57702 12.1301 6.59927 12.1809 6.63963L14.9597 8.76466C15.0211 8.81155 15.0614 8.88092 15.0717 8.9575C15.082 9.03409 15.0614 9.11162 15.0145 9.17303C14.9676 9.23445 14.8982 9.27472 14.8216 9.28498C14.7451 9.29525 14.6675 9.27467 14.6061 9.22778L14.4308 9.09372V11.6228C14.4308 11.6952 14.4166 11.7669 14.3888 11.8338C14.361 11.9006 14.3204 11.9613 14.2691 12.0124L14.2685 12.0119C14.2175 12.0632 14.1569 12.1039 14.0901 12.1318C14.0234 12.1596 13.9518 12.174 13.8795 12.1742H10.1198C9.97367 12.174 9.83353 12.1158 9.73017 12.0125C9.62681 11.9091 9.56865 11.769 9.56845 11.6228V9.09372L9.39314 9.22778H9.39295ZM12.2685 11.5903V10.1597H11.7306V11.5901L12.2685 11.5903ZM11.1466 11.5903V9.86772C11.1466 9.79027 11.1774 9.71599 11.2321 9.66122C11.2869 9.60646 11.3612 9.57569 11.4386 9.57569H12.5605C12.6379 9.5757 12.7122 9.60647 12.767 9.66124C12.8217 9.716 12.8525 9.79027 12.8525 9.86772V11.5901H13.8468V8.64709L11.9995 7.23452L10.1523 8.64709V11.5901L11.1466 11.5903ZM10.349 2.62591H8.6887V4.49102H15.3103V2.62591L13.6501 2.62483C13.5818 2.6248 13.5158 2.60079 13.4634 2.55698C13.4111 2.51318 13.3758 2.45238 13.3638 2.3852C13.3272 2.18364 13.1736 1.9982 12.9466 1.85898C12.4125 1.53142 11.5865 1.53142 11.0524 1.85898C10.833 1.99361 10.6821 2.17141 10.6393 2.36523C10.6315 2.43683 10.5976 2.50304 10.544 2.55115C10.4904 2.59926 10.421 2.62588 10.349 2.62591ZM15.8943 2.62122V2.33369C15.8943 2.25624 15.8635 2.18197 15.8087 2.1272C15.754 2.07244 15.6797 2.04167 15.6022 2.04166H13.8647C13.7509 1.77072 13.535 1.5362 13.2501 1.36145C12.5282 0.918578 11.4711 0.918578 10.749 1.36145C10.464 1.5362 10.2481 1.77072 10.1344 2.04166H8.39667C8.31923 2.04167 8.24496 2.07244 8.19021 2.12721C8.13545 2.18197 8.10469 2.25624 8.10469 2.33369V2.62122H5.87016C5.2462 2.62283 4.64826 2.8714 4.20704 3.31261C3.76583 3.75381 3.51725 4.35175 3.51562 4.9757V20.6179C3.51723 21.2419 3.76582 21.8398 4.20703 22.281C4.64824 22.7222 5.24619 22.9708 5.87016 22.9724H18.1289C18.7529 22.9708 19.3508 22.7222 19.792 22.281C20.2332 21.8398 20.4818 21.2419 20.4834 20.6179V4.9757C20.4818 4.35175 20.2332 3.75381 19.792 3.31261C19.3508 2.8714 18.7529 2.62283 18.1289 2.62122H15.8943ZM18.214 18.7845L16.4313 20.6553V19.2584C16.4319 19.1329 16.482 19.0127 16.5707 18.924C16.6595 18.8352 16.7797 18.7851 16.9051 18.7846L18.214 18.7845ZM16.1386 21.6759H5.87016C5.58978 21.6753 5.32105 21.5637 5.1228 21.3654C4.92454 21.1671 4.81289 20.8984 4.81228 20.618V4.97584C4.81285 4.69544 4.92448 4.42668 5.12275 4.22839C5.32101 4.0301 5.58975 3.91843 5.87016 3.91783H8.10469V3.20533H5.87016C5.4011 3.20693 4.95172 3.39397 4.62004 3.72564C4.28836 4.05731 4.10131 4.50669 4.09969 4.97575V20.6179C4.10129 21.087 4.28834 21.5364 4.62002 21.8681C4.9517 22.1998 5.40109 22.3868 5.87016 22.3884H18.1289C18.598 22.3868 19.0474 22.1998 19.379 21.8681C19.7107 21.5364 19.8978 21.087 19.8994 20.6179V4.97575C19.8978 4.50669 19.7107 4.05731 19.379 3.72564C19.0473 3.39397 18.598 3.20693 18.1289 3.20533H15.8943V3.91783H18.1289C18.4093 3.91843 18.678 4.03008 18.8762 4.22833C19.0745 4.42657 19.1862 4.69528 19.1868 4.97566V18.4924C19.1868 18.5331 19.1783 18.5734 19.1619 18.6106C19.1454 18.6478 19.1213 18.6812 19.0912 18.7085L16.3648 21.5695C16.3372 21.6028 16.3027 21.6296 16.2636 21.648C16.2245 21.6664 16.1818 21.6759 16.1386 21.6759ZM7.73967 14.0935C7.66287 14.0925 7.58954 14.0613 7.53557 14.0066C7.4816 13.952 7.45134 13.8783 7.45134 13.8014C7.45134 13.7246 7.4816 13.6509 7.53557 13.5963C7.58954 13.5416 7.66287 13.5104 7.73967 13.5094H12.7015C12.7401 13.5089 12.7785 13.5161 12.8144 13.5306C12.8502 13.545 12.8829 13.5665 12.9104 13.5936C12.9379 13.6208 12.9597 13.6532 12.9746 13.6888C12.9895 13.7245 12.9972 13.7628 12.9972 13.8014C12.9972 13.8401 12.9895 13.8784 12.9746 13.9141C12.9597 13.9497 12.9379 13.9821 12.9104 14.0092C12.8829 14.0364 12.8502 14.0578 12.8144 14.0723C12.7785 14.0868 12.7401 14.0939 12.7015 14.0935H7.73967ZM10.0382 15.7423C9.96074 15.7423 9.88646 15.7116 9.83169 15.6568C9.77692 15.602 9.74616 15.5277 9.74616 15.4503C9.74616 15.3728 9.77692 15.2986 9.83169 15.2438C9.88646 15.189 9.96074 15.1583 10.0382 15.1583H16.3927C16.4702 15.1583 16.5445 15.189 16.5992 15.2438C16.654 15.2986 16.6848 15.3728 16.6848 15.4503C16.6848 15.5277 16.654 15.602 16.5992 15.6568C16.5445 15.7116 16.4702 15.7423 16.3927 15.7423H10.0382ZM7.73967 15.7423C7.66222 15.7423 7.58794 15.7116 7.53317 15.6568C7.47841 15.602 7.44764 15.5277 7.44764 15.4503C7.44764 15.3728 7.47841 15.2986 7.53317 15.2438C7.58794 15.189 7.66222 15.1583 7.73967 15.1583H8.94459C9.02205 15.1583 9.09632 15.189 9.15109 15.2438C9.20586 15.2986 9.23662 15.3728 9.23662 15.4503C9.23662 15.5277 9.20586 15.602 9.15109 15.6568C9.09632 15.7116 9.02205 15.7423 8.94459 15.7423H7.73967ZM7.73967 17.3912C7.66287 17.3902 7.58954 17.359 7.53557 17.3043C7.4816 17.2497 7.45134 17.176 7.45134 17.0991C7.45134 17.0223 7.4816 16.9486 7.53557 16.894C7.58954 16.8393 7.66287 16.8081 7.73967 16.8071H16.3928C16.4315 16.8067 16.4698 16.8138 16.5057 16.8283C16.5415 16.8428 16.5742 16.8642 16.6017 16.8913C16.6292 16.9185 16.651 16.9509 16.6659 16.9865C16.6809 17.0222 16.6885 17.0605 16.6885 17.0991C16.6885 17.1378 16.6809 17.1761 16.6659 17.2118C16.651 17.2474 16.6292 17.2798 16.6017 17.3069C16.5742 17.3341 16.5415 17.3555 16.5057 17.37C16.4698 17.3845 16.4315 17.3916 16.3928 17.3912H7.73967ZM14.1937 19.04C14.1553 19.04 14.1173 19.0325 14.0819 19.0178C14.0465 19.0031 14.0143 18.9816 13.9872 18.9545C13.96 18.9274 13.9385 18.8952 13.9239 18.8598C13.9092 18.8243 13.9016 18.7864 13.9016 18.748C13.9016 18.7097 13.9092 18.6717 13.9239 18.6362C13.9385 18.6008 13.96 18.5686 13.9872 18.5415C14.0143 18.5144 14.0465 18.4929 14.0819 18.4782C14.1173 18.4635 14.1553 18.456 14.1937 18.456H16.2171C16.4084 18.291 16.6526 18.2003 16.9052 18.2004H18.6027V4.97566C18.6022 4.85017 18.5521 4.72998 18.4633 4.64125C18.3746 4.55252 18.2544 4.50243 18.1289 4.50189H15.8943V4.78314C15.8943 4.86059 15.8636 4.93487 15.8088 4.98964C15.754 5.0444 15.6797 5.07517 15.6023 5.07517H8.39667C8.35832 5.07517 8.32035 5.06762 8.28492 5.05294C8.2495 5.03826 8.21731 5.01675 8.19019 4.98963C8.16308 4.96252 8.14157 4.93032 8.1269 4.89489C8.11223 4.85946 8.10468 4.82149 8.10469 4.78314V4.50189H5.87016C5.74467 4.50243 5.62447 4.55252 5.53574 4.64125C5.447 4.72998 5.3969 4.85017 5.39634 4.97566V20.6178C5.39689 20.7433 5.44698 20.8635 5.53572 20.9523C5.62446 21.041 5.74466 21.0911 5.87016 21.0917H15.8473V19.2583C15.8473 19.1849 15.8549 19.1118 15.8701 19.04H14.1937ZM7.73967 19.04C7.66222 19.04 7.58794 19.0093 7.53317 18.9545C7.47841 18.8997 7.44764 18.8255 7.44764 18.748C7.44764 18.6705 7.47841 18.5963 7.53317 18.5415C7.58794 18.4867 7.66222 18.456 7.73967 18.456H13.1173C13.1556 18.456 13.1936 18.4635 13.229 18.4782C13.2645 18.4929 13.2966 18.5144 13.3238 18.5415C13.3509 18.5686 13.3724 18.6008 13.3871 18.6362C13.4017 18.6717 13.4093 18.7097 13.4093 18.748C13.4093 18.7864 13.4017 18.8243 13.3871 18.8598C13.3724 18.8952 13.3509 18.9274 13.3238 18.9545C13.2966 18.9816 13.2645 19.0031 13.229 19.0178C13.1936 19.0325 13.1556 19.04 13.1173 19.04H7.73967Z" fill="#139ED5"/>
</g>
<defs>
<clipPath id="clip0_5815_5019">
<rect width="24" height="24" fill="white"/>
</clipPath>
</defs>
</svg>
