<svg width="24" height="24" viewBox="0 0 24 24" fill="none" xmlns="http://www.w3.org/2000/svg">
<path d="M23 7.00088C22.9995 6.81621 22.9478 6.6353 22.8507 6.47821C22.7536 6.32112 22.6149 6.19398 22.45 6.11088L12.45 1.11088C12.3104 1.04054 12.1563 1.00391 12 1.00391C11.8437 1.00391 11.6896 1.04054 11.55 1.11088L1.55002 6.11088C1.38622 6.1948 1.24875 6.32229 1.15276 6.47932C1.05677 6.63635 1.00598 6.81683 1.00598 7.00088C1.00598 7.18492 1.05677 7.3654 1.15276 7.52243C1.24875 7.67946 1.38622 7.80696 1.55002 7.89088L4.76002 9.50088L1.55002 11.1109C1.38622 11.1948 1.24875 11.3223 1.15276 11.4793C1.05677 11.6364 1.00598 11.8168 1.00598 12.0009C1.00598 12.1849 1.05677 12.3654 1.15276 12.5224C1.24875 12.6795 1.38622 12.807 1.55002 12.8909L4.76002 14.5009L1.55002 16.1109C1.38622 16.1948 1.24875 16.3223 1.15276 16.4793C1.05677 16.6364 1.00598 16.8168 1.00598 17.0009C1.00598 17.1849 1.05677 17.3654 1.15276 17.5224C1.24875 17.6795 1.38622 17.807 1.55002 17.8909L11.55 22.8909C11.6896 22.9612 11.8437 22.9978 12 22.9978C12.1563 22.9978 12.3104 22.9612 12.45 22.8909L22.45 17.8909C22.6138 17.807 22.7513 17.6795 22.8473 17.5224C22.9433 17.3654 22.9941 17.1849 22.9941 17.0009C22.9941 16.8168 22.9433 16.6364 22.8473 16.4793C22.7513 16.3223 22.6138 16.1948 22.45 16.1109L19.24 14.5009L22.45 12.8909C22.6138 12.807 22.7513 12.6795 22.8473 12.5224C22.9433 12.3654 22.9941 12.1849 22.9941 12.0009C22.9941 11.8168 22.9433 11.6364 22.8473 11.4793C22.7513 11.3223 22.6138 11.1948 22.45 11.1109L19.24 9.50088L22.45 7.89088C22.6149 7.80778 22.7536 7.68064 22.8507 7.52354C22.9478 7.36645 22.9995 7.18555 23 7.00088ZM19.76 17.0009L12 20.8809L4.24002 17.0009L7.00002 15.6209L11.55 17.8909C11.6896 17.9612 11.8437 17.9978 12 17.9978C12.1563 17.9978 12.3104 17.9612 12.45 17.8909L17 15.6209L19.76 17.0009ZM19.76 12.0009L12 15.8809L4.24002 12.0009L7.00002 10.6209L11.55 12.8909C11.6896 12.9612 11.8437 12.9978 12 12.9978C12.1563 12.9978 12.3104 12.9612 12.45 12.8909L17 10.6209L19.76 12.0009ZM12 10.8809L4.24002 7.00088L12 3.12088L19.76 7.00088L12 10.8809Z" fill="#139ED5"/>
</svg>
