<svg width="18" height="18" viewBox="0 0 18 18" fill="none" xmlns="http://www.w3.org/2000/svg">
<g clip-path="url(#clip0_8461_10021)">
<path d="M12.7219 11.3111L11.8571 9.91723C12.7647 11.0449 14.444 11.101 15.4245 10.0584C16.3197 9.10649 16.274 7.61154 15.322 6.71618C14.3704 5.82124 12.8752 5.86663 11.9798 6.81873C11.2919 7.55019 11.1671 8.59022 11.5544 9.4294L9.46246 6.05777L12.5668 5.16196C13.5309 4.88377 13.9865 3.78021 13.4967 2.90247C13.141 2.26515 12.4028 1.96133 11.7017 2.16369L7.00184 3.51988C5.78329 3.87155 5.2376 5.28806 5.90669 6.36652L7.32722 8.656L4.83594 10.2018C7.83311 10.2707 9.99867 11.1832 12.7219 11.3111Z" fill="#139ED5"/>
<path d="M0.671673 12.8642C7.48485 10.9274 10.058 14.8374 17.6057 12.8672C17.8875 12.7936 18.0563 12.5055 17.9828 12.2238C17.9092 11.942 17.6211 11.7732 17.3394 11.8467C10.0879 13.7397 7.51122 9.82346 0.383286 11.8497C0.103161 11.9293 -0.0594012 12.221 0.0202277 12.5011C0.0998918 12.7813 0.391653 12.9438 0.671673 12.8642Z" fill="#139ED5"/>
<path d="M17.3394 14.3069C10.0746 16.2033 7.52535 12.2796 0.383286 14.3099C0.103161 14.3895 -0.0594012 14.6812 0.0202277 14.9614C0.0998566 15.2415 0.391618 15.4041 0.671673 15.3244C7.48485 13.3877 10.058 17.2976 17.6057 15.3274C17.8875 15.2539 18.0563 14.9658 17.9828 14.684C17.9092 14.4022 17.6211 14.2334 17.3394 14.3069Z" fill="#139ED5"/>
</g>
<defs>
<clipPath id="clip0_8461_10021">
<rect width="18" height="18" fill="white"/>
</clipPath>
</defs>
</svg>
