<svg width="24" height="24" viewBox="0 0 24 24" fill="none" xmlns="http://www.w3.org/2000/svg">
<path fill-rule="evenodd" clip-rule="evenodd" d="M12 22C6.48583 22 2 17.5142 2 12C2 6.48583 6.48583 2 12 2C17.5142 2 22 6.48583 22 12C22 12.49 21.9633 12.9942 21.8875 13.54C21.8567 13.7675 21.6483 13.9275 21.4183 13.8958C21.1908 13.8642 21.0308 13.6542 21.0625 13.4267C21.1121 13.0667 21.1437 12.7276 21.1579 12.3999H16.6119C16.6027 12.4005 16.5935 12.4008 16.5842 12.4008C16.5749 12.4008 16.5656 12.4005 16.5565 12.3999H15.3336C15.1036 12.3999 14.9169 12.2133 14.9169 11.9833C14.9169 11.7533 15.1036 11.5666 15.3336 11.5666H16.1628C16.1288 10.1292 15.9402 8.73659 15.6121 7.50238C14.6023 7.69381 13.5238 7.80517 12.4164 7.82756V11.9619C12.4168 11.969 12.417 11.9761 12.417 11.9833C12.417 12.1945 12.2595 12.3692 12.0557 12.3963C12.0374 12.3987 12.0187 12.4 11.9998 12.4L11.9918 12.3999H7.8376C7.86763 13.8607 8.05552 15.2586 8.38663 16.4959C9.40498 16.2991 10.4779 16.1892 11.5831 16.1681V15.724C11.5831 15.494 11.7698 15.3073 11.9998 15.3073C12.2298 15.3073 12.4164 15.494 12.4164 15.724V16.5761L12.4165 16.5815L12.4164 16.5868V21.1259C12.6446 21.0696 12.8918 20.9617 13.14 20.8008C13.4 20.6308 13.7875 20.8392 13.7875 21.15C13.7875 21.1628 13.7869 21.1754 13.7858 21.188C13.8426 21.2485 13.8821 21.3266 13.895 21.415C13.9283 21.6425 13.7708 21.8542 13.5425 21.8867C13.0733 21.9558 12.4675 22 12 22ZM19.1962 6.32809C20.3459 7.78358 21.0643 9.59468 21.1565 11.5666H16.9963C16.962 10.0699 16.7666 8.61796 16.4277 7.32674C17.4559 7.07769 18.3946 6.74126 19.1962 6.32809ZM7.00386 12.3999C7.03309 13.9119 7.22775 15.3733 7.57095 16.6717C6.55017 16.9167 5.60599 17.257 4.8025 17.6703C3.64705 16.2069 2.92756 14.3841 2.84195 12.3999H7.00386ZM7.00463 11.5666H2.84345C2.9357 9.59463 3.65411 7.78349 4.80384 6.32797C5.60549 6.74134 6.54445 7.0779 7.57312 7.327C7.23076 8.63659 7.03637 10.0828 7.00463 11.5666ZM7.83787 11.5666H11.5831V7.82756C10.4761 7.80517 9.39805 7.69388 8.38859 7.50257C8.05703 8.75769 7.86876 10.1477 7.83787 11.5666ZM15.375 6.70015C14.4409 6.87205 13.443 6.97262 12.4164 6.99408V2.87883C13.5785 3.15356 14.6788 4.57436 15.375 6.70015ZM8.62469 6.70017C9.3275 4.55229 10.4426 3.12304 11.5831 2.87184V6.99408C10.5566 6.97261 9.55874 6.87205 8.62469 6.70017ZM11.5831 21.1217V17.0015C10.5619 17.0214 9.56933 17.1213 8.62471 17.2988C9.32132 19.4251 10.4212 20.8462 11.5831 21.1217ZM14.3343 3.13449C15.9981 3.57298 17.4785 4.46871 18.6321 5.67854C17.9189 6.02608 17.0947 6.31155 16.1952 6.52699C15.7311 5.07579 15.0899 3.91715 14.3343 3.13449ZM9.655 3.13732C8.90767 3.91979 8.2679 5.07762 7.8048 6.52705C6.90521 6.31158 6.08098 6.02607 5.36793 5.67846C6.51913 4.47127 7.99555 3.57682 9.655 3.13732ZM7.80467 17.4726C8.26879 18.924 8.91003 20.0828 9.66574 20.8655C8.00114 20.4268 6.52021 19.5305 5.36629 18.3198C6.08021 17.9728 6.90883 17.6847 7.80467 17.4726ZM16.082 21.8123H16.0911C16.2636 21.8123 16.4178 21.7065 16.4811 21.5448L17.8878 17.8873L21.5453 16.4807C21.7086 16.4173 21.8161 16.2582 21.812 16.0823C21.8078 15.9065 21.6936 15.7515 21.527 15.6965L13.572 13.0448C13.4228 12.994 13.257 13.034 13.1453 13.1457C13.0336 13.2573 12.9945 13.4223 13.0445 13.5723L15.6961 21.5273C15.752 21.694 15.9061 21.8082 16.082 21.8123ZM16.1195 20.1623L14.0986 14.0998L20.1603 16.1215L17.4145 17.1773C17.3045 17.2198 17.2178 17.3065 17.1753 17.4165L16.1195 20.1623Z" fill="#E2E2E2"/>
</svg>
