<svg width="33" height="33" viewBox="0 0 33 33" fill="none" xmlns="http://www.w3.org/2000/svg">
<g clip-path="url(#clip0_6634_2331)">
<path d="M16.4458 0.5C7.57858 0.5 0.455765 7.62282 0.455765 16.49C0.455765 25.3572 7.57858 32.48 16.4458 32.48C25.3129 32.48 32.4358 25.3572 32.4358 16.49C32.4358 7.62282 25.3129 0.5 16.4458 0.5ZM12.3756 10.094L13.9746 8.495L16.4458 6.02382L18.9169 8.495L20.5159 10.094L22.8418 12.4198L20.3706 14.891L18.0448 12.5652L16.4458 10.9662L14.8468 12.5652L12.5209 14.891L10.0498 12.4198L12.3756 10.094ZM18.7716 16.49L16.4458 18.8158L14.1199 16.49L16.4458 14.1642L18.7716 16.49ZM5.97958 16.49L8.45076 14.0188L10.9219 16.49L8.45076 18.9612L5.97958 16.49ZM16.4458 26.9562L13.9746 24.485L12.3756 22.886L10.0498 20.5602L12.5209 18.089L14.8468 20.4148L16.4458 22.0138L18.0448 20.4148L20.3706 18.089L22.8418 20.5602L16.4458 26.9562ZM24.4408 18.9612L21.9696 16.49L24.4408 14.0188L26.9119 16.49L24.4408 18.9612Z" fill="#F0B90B"/>
</g>
<defs>
<clipPath id="clip0_6634_2331">
<rect width="31.98" height="31.98" fill="white" transform="translate(0.455765 0.5)"/>
</clipPath>
</defs>
</svg>
