<svg width="33" height="33" viewBox="0 0 33 33" fill="none" xmlns="http://www.w3.org/2000/svg">
<circle cx="16.4458" cy="16.49" r="15.99" fill="#139ED5"/>
<path d="M14.2537 15.4124V11.1494L12.5862 10.0763V14.4211L10.4132 13.0225V8.6776L8.74673 7.60547V14.0159L10.4132 15.0891L12.5843 16.4867H12.5862V16.4877H12.5843L10.4132 17.8832L8.74673 18.9575V25.3689L8.74872 25.3721L10.4132 24.3L12.5862 22.9014L14.2537 21.8282L15.6124 20.9539L17.2799 19.8807V14.0925L18.6137 13.2341L20.2802 12.162L22.478 10.7463V12.9129L20.2802 14.3286L18.6137 15.4007V21.8111L20.2802 22.8843L22.478 24.2989L24.1445 25.3721V19.2074L22.478 18.1353L20.2802 16.7196L20.0279 16.5579L20.2802 16.3963L22.478 14.9806L24.1445 13.9085V7.60547L22.478 8.6776L20.2802 10.0933L18.6137 11.1665L17.2799 12.0248L15.6124 13.0991V18.8862L14.2537 19.7605L12.5862 20.8347L10.4132 22.2334V19.9519L12.5862 18.5533L14.1892 17.5205L14.2528 17.4801V15.4135L14.2537 15.4124ZM22.478 20.1998V22.2313L20.2802 20.8156V18.7841L22.478 20.1998Z" fill="white"/>
</svg>
