<svg width="19" height="19" viewBox="0 0 19 19" fill="none" xmlns="http://www.w3.org/2000/svg">
<path d="M14.8257 3.16893C15.1133 3.06433 15.2617 2.74635 15.1571 2.45871C15.0525 2.17106 14.7345 2.02267 14.4469 2.12727L5.21499 5.48431V2.6481C5.21499 2.34203 4.96687 2.0939 4.66079 2.0939H3.55239C3.24632 2.0939 2.9982 2.34203 2.9982 2.6481V6.29042L2.25448 6.56086C1.96683 6.66546 1.81844 6.98344 1.92304 7.27109C2.02764 7.55874 2.34562 7.70713 2.63327 7.60253L14.8257 3.16893Z" fill="#139ED5"/>
<path fill-rule="evenodd" clip-rule="evenodd" d="M3.0122 8.64419L14.0822 4.61874V7.147L17.0424 8.22346C17.3301 8.32806 17.4785 8.64604 17.3739 8.93369C17.2693 9.22133 16.9513 9.36972 16.6637 9.26512L16.2989 9.13247V15.3947H16.8532C17.1592 15.3947 17.4074 15.6428 17.4074 15.9489C17.4074 16.255 17.1592 16.5031 16.8532 16.5031H2.444C2.13792 16.5031 1.8898 16.255 1.8898 15.9489C1.8898 15.6428 2.13792 15.3947 2.444 15.3947H2.9982V8.64921L3.0122 8.64419ZM14.0822 15.3947V8.3264L15.1905 8.72941V15.3947H14.0822ZM7.43179 10.9611C7.12571 10.9611 6.87759 11.2092 6.87759 11.5153V14.8405C6.87759 15.1466 7.12571 15.3947 7.43179 15.3947H9.64859C9.95466 15.3947 10.2028 15.1466 10.2028 14.8405V11.5153C10.2028 11.2092 9.95466 10.9611 9.64859 10.9611H7.43179Z" fill="#139ED5"/>
</svg>
