<svg width="18" height="18" viewBox="0 0 18 18" fill="none" xmlns="http://www.w3.org/2000/svg">
<g clip-path="url(#clip0_4169_2175)">
<g clip-path="url(#clip1_4169_2175)">
<path d="M9.32338 16.261C6.5313 16.261 3.73995 16.261 0.947862 16.261C0.665575 16.261 0.535062 16.3903 0.535062 16.6689C0.535062 16.7411 0.538728 16.8133 0.534329 16.8848C0.528463 16.9714 0.519665 17.058 0.503534 17.1425C0.44341 17.4507 0.147925 17.6976 -0.205485 17.694C-0.560361 17.6904 -0.854381 17.4269 -0.907905 17.0883C-0.92037 17.0089 -0.926969 16.9273 -0.926969 16.8472C-0.927702 15.2071 -0.9387 13.5662 -0.923303 11.926C-0.914504 10.9702 -0.561094 10.1386 0.116396 9.4463C0.52773 9.02616 1.01678 8.72729 1.57623 8.53671C2.01616 8.38728 2.47075 8.3418 2.93414 8.3418C7.22858 8.34324 11.523 8.33963 15.8175 8.34468C17.0757 8.34613 18.0948 8.84568 18.85 9.83902C19.2211 10.3277 19.4425 10.8829 19.518 11.4893C19.5437 11.6936 19.5547 11.9015 19.5554 12.1079C19.5583 13.7005 19.5576 15.293 19.5569 16.8855C19.5569 17.1345 19.4945 17.3612 19.2863 17.5258C19.0663 17.6998 18.8207 17.7453 18.559 17.6391C18.3082 17.5366 18.1498 17.3482 18.1139 17.0789C18.0956 16.9432 18.0978 16.8039 18.0941 16.6667C18.0882 16.4451 17.9951 16.3116 17.8089 16.2704C17.7678 16.261 17.7246 16.2618 17.682 16.2618C14.8965 16.2618 12.1111 16.2618 9.32485 16.2618L9.32338 16.261Z" fill="black"/>
<path d="M9.2215 1.86328C11.0325 1.86328 12.8428 1.86328 14.6532 1.86328C15.2595 1.86328 15.8263 1.99683 16.3154 2.36572C16.9445 2.84001 17.3118 3.46445 17.3426 4.24844C17.369 4.91331 17.3573 5.57962 17.3602 6.24521C17.3624 6.67402 17.3602 7.10283 17.3602 7.53163C17.3602 7.56989 17.358 7.61032 17.3477 7.64714C17.3162 7.76336 17.2524 7.80956 17.1322 7.78719C17.0009 7.76264 16.8741 7.70994 16.7428 7.69551C16.4341 7.6623 16.1247 7.6392 15.8146 7.62331C15.6078 7.61249 15.544 7.57567 15.5147 7.3757C15.4208 6.74188 14.8247 6.17158 14.0622 6.18024C13.2117 6.18962 12.3611 6.1824 11.5113 6.1824C10.8786 6.1824 10.3382 6.55346 10.1234 7.1382C10.0926 7.22194 10.0808 7.3129 10.0647 7.40097C10.0346 7.55907 9.97525 7.61826 9.8154 7.62043C9.48033 7.62404 9.14451 7.62404 8.80943 7.62043C8.65546 7.61898 8.5946 7.55907 8.56674 7.38364C8.52788 7.13748 8.43109 6.91802 8.27272 6.72527C7.98603 6.37587 7.61503 6.18601 7.1575 6.18385C6.27984 6.17952 5.40218 6.18168 4.52379 6.18313C3.78618 6.18385 3.20914 6.75126 3.11528 7.37426C3.08522 7.57567 3.02437 7.61104 2.8176 7.62404C2.47519 7.64642 2.13278 7.67818 1.7911 7.71427C1.68625 7.7251 1.5858 7.76986 1.48168 7.78719C1.3695 7.80523 1.31744 7.76769 1.28591 7.65941C1.27345 7.61682 1.26758 7.57134 1.26758 7.52658C1.26685 6.49787 1.25292 5.46917 1.27052 4.44046C1.28885 3.36411 1.79403 2.57291 2.7824 2.09429C3.17394 1.90587 3.59847 1.86328 4.02814 1.86328C5.75926 1.86328 7.49038 1.86328 9.2215 1.86328Z" fill="black"/>
</g>
</g>
<defs>
<clipPath id="clip0_4169_2175">
<rect width="18" height="18" fill="white"/>
</clipPath>
<clipPath id="clip1_4169_2175">
<rect width="20.4875" height="15.8313" fill="white" transform="translate(-0.931305 1.86328)"/>
</clipPath>
</defs>
</svg>
