<svg width="25" height="24" viewBox="0 0 25 24" fill="none" xmlns="http://www.w3.org/2000/svg">
<path d="M22.06 10.7405L20.7 9.16055C20.44 8.86055 20.23 8.30055 20.23 7.90055V6.20055C20.23 5.14055 19.36 4.27055 18.3 4.27055H16.6C16.21 4.27055 15.64 4.06055 15.34 3.80055L13.76 2.44055C13.07 1.85055 11.94 1.85055 11.24 2.44055L9.67 3.81055C9.37 4.06055 8.8 4.27055 8.41 4.27055H6.68C5.62 4.27055 4.75 5.14055 4.75 6.20055V7.91055C4.75 8.30055 4.54 8.86055 4.29 9.16055L2.94 10.7505C2.36 11.4405 2.36 12.5605 2.94 13.2505L4.29 14.8405C4.54 15.1405 4.75 15.7005 4.75 16.0905V17.8005C4.75 18.8605 5.62 19.7305 6.68 19.7305H8.41C8.8 19.7305 9.37 19.9405 9.67 20.2005L11.25 21.5605C11.94 22.1505 13.07 22.1505 13.77 21.5605L15.35 20.2005C15.65 19.9405 16.21 19.7305 16.61 19.7305H18.31C19.37 19.7305 20.24 18.8605 20.24 17.8005V16.1005C20.24 15.7105 20.45 15.1405 20.71 14.8405L22.07 13.2605C22.65 12.5705 22.65 11.4305 22.06 10.7405ZM16.66 10.1105L11.83 14.9405C11.69 15.0805 11.5 15.1605 11.3 15.1605C11.1 15.1605 10.91 15.0805 10.77 14.9405L8.35 12.5205C8.06 12.2305 8.06 11.7505 8.35 11.4605C8.64 11.1705 9.12 11.1705 9.41 11.4605L11.3 13.3505L15.6 9.05055C15.89 8.76055 16.37 8.76055 16.66 9.05055C16.95 9.34055 16.95 9.82055 16.66 10.1105Z" fill="#171717"/>
</svg>
