<svg width="19" height="20" viewBox="0 0 19 20" fill="none" xmlns="http://www.w3.org/2000/svg">
<path fill-rule="evenodd" clip-rule="evenodd" d="M3.97507 16.1281V4.02188H3.74226C3.35652 4.02188 3.04382 3.70917 3.04382 3.32344C3.04382 2.9377 3.35652 2.625 3.74226 2.625H15.3829C15.7686 2.625 16.0813 2.9377 16.0813 3.32344C16.0813 3.70917 15.7686 4.02188 15.3829 4.02188H15.1501V16.1281H15.3829C15.7686 16.1281 16.0813 16.4408 16.0813 16.8266C16.0813 17.2123 15.7686 17.525 15.3829 17.525H12.1235C11.7378 17.525 11.4251 17.2123 11.4251 16.8266V14.4984C11.4251 14.1127 11.1124 13.8 10.7266 13.8H8.39851C8.01277 13.8 7.70007 14.1127 7.70007 14.4984V16.8266C7.70007 17.2123 7.38737 17.525 7.00164 17.525H3.74226C3.35652 17.525 3.04382 17.2123 3.04382 16.8266C3.04382 16.4408 3.35652 16.1281 3.74226 16.1281H3.97507ZM6.76868 5.8844C6.76868 5.62724 6.97715 5.41878 7.23431 5.41878H8.16556C8.42272 5.41878 8.63118 5.62724 8.63118 5.8844V6.81565C8.63118 7.07281 8.42272 7.28128 8.16556 7.28128H7.23431C6.97715 7.28128 6.76868 7.07281 6.76868 6.81565V5.8844ZM7.23431 9.14368C6.97715 9.14368 6.76868 9.35214 6.76868 9.6093V10.5406C6.76868 10.7977 6.97715 11.0062 7.23431 11.0062H8.16556C8.42272 11.0062 8.63118 10.7977 8.63118 10.5406V9.6093C8.63118 9.35214 8.42272 9.14368 8.16556 9.14368H7.23431ZM10.4937 5.8844C10.4937 5.62724 10.7022 5.41878 10.9593 5.41878H11.8906C12.1477 5.41878 12.3562 5.62724 12.3562 5.8844V6.81565C12.3562 7.07281 12.1477 7.28128 11.8906 7.28128H10.9593C10.7022 7.28128 10.4937 7.07281 10.4937 6.81565V5.8844ZM10.9593 9.14368C10.7022 9.14368 10.4937 9.35214 10.4937 9.6093V10.5406C10.4937 10.7977 10.7022 11.0062 10.9593 11.0062H11.8906C12.1477 11.0062 12.3562 10.7977 12.3562 10.5406V9.6093C12.3562 9.35214 12.1477 9.14368 11.8906 9.14368H10.9593Z" fill="black"/>
</svg>
