<svg width="50" height="50" viewBox="0 0 50 50" fill="none" xmlns="http://www.w3.org/2000/svg">
<path d="M39.5833 15.1048H36.9792V12.5007C36.9792 9.34023 34.4104 6.77148 31.25 6.77148H10.4167C7.25625 6.77148 4.6875 9.34023 4.6875 12.5007V31.4173C4.6875 32.3715 5.20833 33.2486 6.04583 33.7048C6.4375 33.9173 6.86458 34.0215 7.29167 34.0215C7.78542 34.0215 8.27917 33.8819 8.71042 33.6007L12.4938 31.1486C12.6583 31.0423 12.8396 30.9715 13.0208 30.9048V33.334C13.0208 36.4944 15.5896 39.0631 18.75 39.0631H34.8583C36.1687 39.0631 37.4417 39.4402 38.5437 40.1507L41.2896 41.9319C41.7208 42.2132 42.2125 42.3527 42.7083 42.3527C43.1354 42.3527 43.5625 42.2465 43.9542 42.0361C44.7917 41.5798 45.3125 40.7027 45.3125 39.7486V20.8319C45.3125 17.6715 42.7437 15.1048 39.5833 15.1048ZM10.7917 28.5277L7.8125 30.459V12.5007C7.8125 11.0652 8.98125 9.89648 10.4167 9.89648H31.25C32.6854 9.89648 33.8542 11.0652 33.8542 12.5007V25.0007C33.8542 26.4361 32.6854 27.6048 31.25 27.6048H13.9083C12.7979 27.6048 11.7187 27.9236 10.7917 28.5277ZM42.1875 38.7902L40.2417 37.5298C38.6354 36.4902 36.7729 35.9382 34.8583 35.9382H18.75C17.3146 35.9382 16.1458 34.7694 16.1458 33.334V30.7298H31.25C34.4104 30.7298 36.9792 28.1611 36.9792 25.0007V18.2298H39.5833C41.0187 18.2298 42.1875 19.3986 42.1875 20.834V38.7902Z" fill="#139ED5"/>
</svg>
