<svg width="21" height="21" viewBox="0 0 21 21" fill="none" xmlns="http://www.w3.org/2000/svg">
<path d="M15.6536 18.0516L15.2843 17.7655L11.1172 14.5374L15.6536 18.0516ZM15.6536 18.0516L15.7485 17.5942M15.6536 18.0516L15.7485 17.5942M15.7485 17.5942L18.6597 3.55828L18.77 3.02653L18.2658 3.22825L2.53465 9.5216L1.82742 9.80454L2.54275 10.0663L5.80156 11.2589L5.92238 11.3031L6.03649 11.2437L14.9311 6.6126L14.9313 6.61248C15.0549 6.54801 15.1975 6.52993 15.3332 6.5615C15.4689 6.59307 15.5889 6.67221 15.6713 6.78458C15.7537 6.89696 15.7932 7.03514 15.7825 7.17409C15.7718 7.31304 15.7117 7.44358 15.6131 7.54205L15.613 7.54219L9.41537 13.7398L9.35355 13.8016L9.33593 13.8873L9.06832 15.1879L8.85309 16.234M15.7485 17.5942L8.85309 16.234M8.85309 16.234L9.57015 15.4425M8.85309 16.234L9.57015 15.4425M9.57015 15.4425L10.3271 14.607C10.3272 14.6069 10.3273 14.6068 10.3274 14.6068C10.3274 14.6067 10.3274 14.6067 10.3274 14.6067C10.4262 14.4981 10.5623 14.4306 10.7086 14.4177C10.8549 14.4048 11.0007 14.4475 11.117 14.5372L9.57015 15.4425ZM19.2951 2.34841L19.2955 2.34878C19.5027 2.52047 19.6594 2.74527 19.7487 2.99912C19.838 3.25298 19.8566 3.52634 19.8026 3.78995L19.8025 3.79034L16.948 17.8032C16.9479 17.8034 16.9479 17.8037 16.9478 17.8039C16.8769 18.1417 16.6921 18.4448 16.4243 18.6626C16.1564 18.8804 15.8218 18.9996 15.4765 19.0001C15.148 18.9998 14.8289 18.89 14.5697 18.6882L14.5691 18.6878L11.0427 15.956L10.8292 15.7906L10.6479 15.9907L8.2967 18.5866L8.18727 18.6788C8.15256 18.7032 8.11526 18.7237 8.07603 18.74L8.07395 18.7408C8.06127 18.7462 8.05053 18.7514 8.04292 18.7552L8.03303 18.7603L8.02925 18.7622C7.97559 18.7794 7.91967 18.7887 7.86329 18.7897L7.86298 18.7897C7.85077 18.7899 7.83974 18.7908 7.83022 18.792C7.80658 18.7911 7.78303 18.7888 7.75966 18.7851L7.74064 18.777L7.70839 18.7743C7.65154 18.7582 7.59748 18.7334 7.54818 18.7007L7.54821 18.7006L7.54299 18.6973C7.53283 18.6909 7.522 18.683 7.50263 18.6682L7.50052 18.6667C7.45367 18.6316 7.41247 18.5896 7.37833 18.5421C7.36951 18.5297 7.36134 18.5199 7.35567 18.5134L7.35357 18.511C7.32767 18.4691 7.3072 18.424 7.29265 18.3769C7.29259 18.3767 7.29253 18.3765 7.29248 18.3763L5.52495 12.5312L5.48193 12.389L5.34157 12.3402L2.16995 11.2371C1.88342 11.1372 1.63407 10.9525 1.45498 10.7075C1.27588 10.4625 1.17553 10.1689 1.16723 9.86553C1.15893 9.56219 1.24307 9.2635 1.40849 9.0091C1.57375 8.75496 1.81231 8.55702 2.09257 8.44151C2.09286 8.4414 2.09314 8.44128 2.09343 8.44116L17.7724 2.11096L17.7726 2.11089C18.0241 2.00914 18.2986 1.97749 18.5667 2.01932C18.8347 2.06114 19.0865 2.17487 19.2951 2.34841ZM7.3623 18.5247L7.36146 18.5234L7.3623 18.5247ZM8.40472 13.1009L8.40517 13.1004L10.767 10.7378L10.426 10.2729L6.8689 12.1252L6.65445 12.2369L6.72443 12.4683L7.41048 14.7373L7.97535 14.7116L8.24617 13.3956L8.2463 13.395C8.26899 13.2835 8.3241 13.1812 8.40472 13.1009Z" fill="#323232" stroke="#323232" stroke-width="0.583333"/>
</svg>
