<svg width="66" height="66" viewBox="0 0 66 66" fill="none" xmlns="http://www.w3.org/2000/svg">
<path d="M0.00500374 32.9975C0.00500374 51.1934 14.8066 65.995 33.0025 65.995C51.1984 65.995 66 51.1934 66 32.9975C66 14.8016 51.1934 0 32.9975 0C14.8016 0 0 14.8016 0 32.9975H0.00500374ZM13.492 52.2581C12.4722 50.4385 11.5974 48.474 10.8825 46.3944H18.0559C18.5158 48.474 19.0807 50.4335 19.7355 52.2581H13.492ZM19.9805 52.928C20.8053 55.1125 21.7651 57.082 22.8298 58.7916H18.3858C16.7012 57.102 15.1916 55.1275 13.8869 52.928H19.9805ZM10.6576 45.7246C10.0527 43.855 9.57782 41.8955 9.2479 39.8659H17.0061C17.2211 41.8955 17.526 43.855 17.9159 45.7246H10.6626H10.6576ZM16.6462 33.3324C16.6562 35.337 16.7562 37.2965 16.9361 39.1961H9.13794C8.858 37.2965 8.70802 35.332 8.68803 33.3324H16.6412H16.6462ZM8.69303 32.6626C8.70803 30.658 8.863 28.6985 9.14294 26.7989H16.9412C16.7612 28.7035 16.6612 30.663 16.6512 32.6626H8.69803H8.69303ZM9.24292 26.1291C9.57285 24.0995 10.0477 22.14 10.6526 20.2704H17.9059C17.516 22.14 17.2111 24.1045 16.9961 26.1291H9.23792H9.24292ZM10.8825 19.6005C11.6024 17.521 12.4722 15.5515 13.492 13.7369H19.7355C19.0807 15.5615 18.5158 17.526 18.0559 19.6005H10.8825ZM13.8869 13.067C15.1866 10.8675 16.6962 8.89298 18.3808 7.20836H22.8298C21.7651 8.91797 20.8103 10.8825 19.9855 13.067H13.8919H13.8869ZM19.0757 6.53851C21.885 3.91911 25.1343 2.07453 28.6385 1.22472C26.669 2.32447 24.8494 4.13906 23.2497 6.53851H19.0757ZM25.4342 1.57464C22.7748 2.69439 20.3054 4.384 18.1109 6.53851H14.4667C17.731 4.24403 21.4401 2.53942 25.4342 1.57464ZM13.5419 7.20836H17.466C15.8414 8.91797 14.3768 10.8825 13.117 13.067H7.5833C9.3129 10.8675 11.3124 8.89298 13.5419 7.20836ZM7.05842 13.7369H12.7421C11.7424 15.5615 10.8825 17.526 10.1777 19.6005H3.59418C4.54397 17.521 5.70873 15.5515 7.05842 13.7369ZM3.28926 20.2704H9.95275C9.35789 22.14 8.88798 24.1045 8.56305 26.1291H1.41469C1.85459 24.0995 2.48444 22.14 3.28926 20.2704ZM1.27473 26.7989H8.4631C8.18816 28.7035 8.03319 30.663 8.0182 32.6626H0.679869C0.699864 30.658 0.904819 28.6985 1.27473 26.7989ZM0.679869 33.3324H8.0182C8.03319 35.337 8.18317 37.2965 8.4631 39.1961H1.27473C0.904819 37.2965 0.699864 35.332 0.679869 33.3324ZM1.41469 39.8659H8.56305C8.88798 41.8955 9.35789 43.855 9.95275 45.7246H3.28926C2.48444 43.855 1.85459 41.8955 1.41469 39.8659ZM3.58921 46.3944H10.1727C10.8775 48.474 11.7374 50.4335 12.7371 52.2581H7.05342C5.69873 50.4385 4.53899 48.474 3.58921 46.3944ZM7.57329 52.928H13.107C14.3667 55.1125 15.8314 57.082 17.4611 58.7916H13.5419C11.3074 57.102 9.3029 55.1275 7.57329 52.928ZM14.4667 59.4615H18.1109C20.3004 61.616 22.7698 63.3006 25.4292 64.4203C21.4352 63.4606 17.731 61.7559 14.4667 59.4615ZM19.0757 59.4615H23.2497C24.8444 61.8559 26.6689 63.6705 28.6335 64.7703C25.1293 63.9255 21.885 62.0759 19.0757 59.4615ZM32.6626 65.2851C29.4533 65.1452 26.474 63.0157 24.0146 59.4615H32.6626V65.2851ZM32.6626 58.7916H23.5646C22.4799 57.102 21.5051 55.1275 20.6603 52.928H32.6626V58.7916ZM32.6626 52.2581H20.4054C19.7455 50.4385 19.1856 48.474 18.7207 46.3944H32.6626V52.2581ZM32.6626 45.7246H18.5758C18.1859 43.855 17.8809 41.8955 17.666 39.8659H32.6626V45.7246ZM32.6626 39.1961H17.596C17.416 37.2965 17.3161 35.332 17.3061 33.3324H32.6626V39.1961ZM32.6626 32.6626H17.3061C17.3161 30.658 17.416 28.6985 17.596 26.7989H32.6626V32.6626ZM32.6626 26.1291H17.666C17.8809 24.0995 18.1859 22.14 18.5758 20.2704H32.6626V26.1291ZM32.6626 19.6005H18.7207C19.1856 17.521 19.7455 15.5515 20.4054 13.7369H32.6626V19.6005ZM32.6626 13.067H20.6603C21.5001 10.8675 22.4749 8.89298 23.5596 7.20836H32.6626V13.067ZM32.6626 6.53851H24.0096C26.474 2.98432 29.4483 0.849807 32.6626 0.709839V6.53351V6.53851ZM52.5081 13.7369C53.5278 15.5515 54.4026 17.521 55.1175 19.6005H47.9441C47.4842 17.521 46.9193 15.5615 46.2645 13.7369H52.5081ZM46.0196 13.067C45.1947 10.8825 44.24 8.91797 43.1752 7.20836H47.6242C49.3038 8.89298 50.8134 10.8675 52.1181 13.067H46.0245H46.0196ZM55.3424 20.2704C55.9473 22.14 56.4222 24.0995 56.7521 26.1291H48.9939C48.7789 24.0995 48.474 22.14 48.0841 20.2704H55.3374H55.3424ZM49.3538 32.6676C49.3438 30.663 49.2438 28.7035 49.0639 26.8039H56.8621C57.142 28.7035 57.297 30.668 57.312 32.6676H49.3588H49.3538ZM57.307 33.3374C57.292 35.342 57.137 37.3015 56.8571 39.2011H49.0588C49.2388 37.2965 49.3388 35.337 49.3488 33.3374H57.302H57.307ZM48.9989 39.8709H56.7571C56.4272 41.9005 55.9523 43.86 55.3474 45.7296H48.0941C48.484 43.855 48.7889 41.8955 49.0039 39.8709H48.9989ZM55.1175 46.3994C54.4026 48.479 53.5278 50.4485 52.5081 52.2631H46.2645C46.9193 50.4385 47.4842 48.474 47.9441 46.3994H55.1175ZM52.1131 52.933C50.8084 55.1325 49.2988 57.112 47.6142 58.7966H43.1702C44.235 57.087 45.1947 55.1175 46.0196 52.933H52.1131ZM46.9193 59.4665C44.11 62.0809 40.8657 63.9305 37.3615 64.7753C39.3311 63.6755 41.1506 61.8609 42.7453 59.4665H46.9193ZM40.5708 64.4253C43.2302 63.3056 45.6946 61.621 47.8891 59.4665H51.5333C48.269 61.7609 44.5649 63.4606 40.5708 64.4253ZM52.4581 58.7966H48.539C50.1686 57.087 51.6283 55.1175 52.893 52.933H58.4267C56.6971 55.1325 54.6926 57.107 52.4581 58.7966ZM58.9466 52.2631H53.2629C54.2627 50.4385 55.1225 48.474 55.8273 46.3994H62.4108C61.461 48.479 60.3013 50.4485 58.9466 52.2631ZM62.7157 45.7296H56.0522C56.6471 43.855 57.117 41.8955 57.4419 39.8709H64.5903C64.1504 41.9005 63.5206 43.86 62.7157 45.7296ZM64.7303 39.2011H57.5419C57.8169 37.2965 57.9718 35.337 57.9868 33.3374H65.3252C65.3052 35.342 65.1002 37.3015 64.7303 39.2011ZM65.3252 32.6676H57.9868C57.9718 30.663 57.8219 28.7035 57.5419 26.8039H64.7303C65.1002 28.7035 65.3052 30.668 65.3252 32.6676ZM64.5903 26.1341H57.4419C57.117 24.1045 56.6471 22.145 56.0522 20.2754H62.7157C63.5206 22.145 64.1504 24.1045 64.5903 26.1341ZM62.4108 19.6055H55.8273C55.1225 17.526 54.2627 15.5665 53.2629 13.7419H58.9466C60.3013 15.5615 61.461 17.526 62.4108 19.6055ZM58.4267 13.072H52.893C51.6333 10.8875 50.1736 8.92297 48.544 7.21336H52.4631C54.6926 8.90298 56.6971 10.8725 58.4217 13.072H58.4267ZM51.5433 6.54351H47.8991C45.7046 4.389 43.2352 2.69939 40.5758 1.57964C44.5699 2.54442 48.279 4.24903 51.5433 6.54351ZM46.9343 6.54351H42.7603C41.1607 4.14406 39.3411 2.32947 37.3715 1.22972C40.8757 2.07953 44.12 3.92411 46.9343 6.54351ZM33.3424 0.714837C36.5567 0.854806 39.531 2.98932 41.9954 6.54351H33.3424V0.709839V0.714837ZM33.3424 7.21336H42.4454C43.5301 8.89798 44.5049 10.8725 45.3447 13.072H33.3424V7.20336V7.21336ZM33.3424 13.7419H45.5996C46.2595 15.5565 46.8194 17.526 47.2843 19.6055H33.3424V13.7419ZM33.3424 20.2754H47.4292C47.8191 22.145 48.1241 24.1045 48.339 26.1341H33.3424V20.2754ZM33.3424 26.8039H48.409C48.589 28.7035 48.6889 30.668 48.6989 32.6676H33.3424V26.8039ZM33.3424 33.3374H48.6989C48.6889 35.342 48.589 37.3015 48.409 39.2011H33.3424V33.3374ZM33.3424 39.8709H48.339C48.1241 41.9005 47.8191 43.86 47.4292 45.7296H33.3424V39.8709ZM33.3424 46.3994H47.2843C46.8194 48.479 46.2595 50.4485 45.5996 52.2631H33.3424V46.3994ZM33.3424 52.933H45.3447C44.5049 55.1325 43.5301 57.112 42.4404 58.7966H33.3424V52.933ZM33.3424 59.4665H41.9904C39.531 63.0157 36.5517 65.1502 33.3424 65.2901V59.4665Z" fill="white"/>
</svg>
