<svg width="24" height="24" viewBox="0 0 24 24" fill="none" xmlns="http://www.w3.org/2000/svg">
<path fill-rule="evenodd" clip-rule="evenodd" d="M3.6001 11.9992C3.6001 11.5022 4.00304 11.0992 4.5001 11.0992L17.2656 11.0992L12.2763 6.34797C11.918 6.00345 11.9068 5.43371 12.2513 5.07542C12.5959 4.71712 13.1656 4.70595 13.5239 5.05047L20.1239 11.3505C20.3004 11.5202 20.4001 11.7544 20.4001 11.9992C20.4001 12.244 20.3004 12.4783 20.1239 12.648L13.5239 18.948C13.1656 19.2925 12.5959 19.2813 12.2513 18.923C11.9068 18.5647 11.918 17.995 12.2763 17.6505L17.2656 12.8992L4.5001 12.8992C4.00304 12.8992 3.6001 12.4963 3.6001 11.9992Z" fill="#fff"/>
</svg>
