<svg width="44" height="44" viewBox="0 0 44 44" fill="none" xmlns="http://www.w3.org/2000/svg">
<rect x="0.5" y="0.5" width="43" height="43" rx="21.5" stroke="#FBFAFA"/>
<path fill-rule="evenodd" clip-rule="evenodd" d="M30.3999 22.0008C30.3999 22.4978 29.997 22.9008 29.4999 22.9008L16.7344 22.9008L21.7237 27.652C22.082 27.9965 22.0932 28.5663 21.7487 28.9246C21.4041 29.2829 20.8344 29.294 20.4761 28.9495L13.8761 22.6495C13.6996 22.4798 13.5999 22.2456 13.5999 22.0008C13.5999 21.756 13.6996 21.5217 13.8761 21.352L20.4761 15.052C20.8344 14.7075 21.4041 14.7187 21.7487 15.077C22.0932 15.4353 22.082 16.005 21.7237 16.3495L16.7344 21.1008L29.4999 21.1008C29.997 21.1008 30.3999 21.5037 30.3999 22.0008Z" fill="#808080"/>
</svg>
