<svg width="62" height="45" viewBox="0 0 62 45" fill="none" xmlns="http://www.w3.org/2000/svg">
<path d="M48.1633 44.6918H38.304H35.6492H35.0758V31.4672H39.4009C40.4978 31.4672 41.1459 30.2208 40.4978 29.3234L32.0844 17.6818C31.5484 16.9339 30.4391 16.9339 29.9031 17.6818L21.4898 29.3234C20.8416 30.2208 21.4773 31.4672 22.5866 31.4672H26.9117V44.6918H26.3384H23.6835H12.2538C5.71005 44.3303 0.5 38.2104 0.5 31.5794C0.5 27.005 2.98038 23.0165 6.65734 20.8602C6.3208 19.9503 6.1463 18.9781 6.1463 17.956C6.1463 13.2819 9.92297 9.50525 14.5971 9.50525C15.6067 9.50525 16.5789 9.67975 17.4888 10.0163C20.1935 4.28273 26.0268 0.306641 32.8073 0.306641C41.5821 0.319105 48.8114 7.03733 49.634 15.6003C56.3772 16.7594 61.5 23.004 61.5 30.0713C61.5 37.6246 55.6169 44.1683 48.1633 44.6918Z" fill="#919191"/>
</svg>
