<svg width="20" height="20" viewBox="0 0 20 20" fill="none" xmlns="http://www.w3.org/2000/svg">
<path d="M9.99736 20.0012C8.68396 20.0036 7.38307 19.7464 6.16938 19.2445C4.95569 18.7426 3.85318 18.0058 2.92515 17.0764C-0.975049 13.1762 -0.975049 6.83057 2.92515 2.93038C3.85178 1.99854 4.95406 1.25974 6.16815 0.756748C7.38221 0.25375 8.684 -0.00345047 9.99818 3.4955e-05C12.67 3.4955e-05 15.1819 1.0403 17.0704 2.93038C18.9597 4.81967 20.0007 7.33149 20.0007 10.0034C20.0007 12.6753 18.9604 15.1871 17.0704 17.0764C16.1422 18.0058 15.0395 18.7426 13.8257 19.2445C12.6119 19.7464 11.3109 20.0036 9.99736 20.0012ZM9.99818 1.60044C8.89422 1.59731 7.80064 1.81325 6.78076 2.23577C5.76087 2.65828 4.83495 3.27897 4.05664 4.06185C2.46983 5.64869 1.59601 7.7588 1.59601 10.0034C1.59601 12.248 2.46983 14.3573 4.05664 15.9449C7.33267 19.2209 12.6636 19.2218 15.9389 15.9449C17.5257 14.3581 18.4003 12.248 18.4003 10.0034C18.4003 7.7588 17.5265 5.64947 15.9389 4.06185C15.1605 3.2792 14.2348 2.65867 13.2151 2.23617C12.1953 1.81367 11.102 1.59759 9.99818 1.60044Z" fill="#919191"/>
<path d="M6.60195 14.1986C6.44355 14.1989 6.28858 14.1522 6.15678 14.0644C6.02498 13.9765 5.92223 13.8514 5.86163 13.7051C5.80099 13.5587 5.78526 13.3977 5.81631 13.2423C5.8474 13.087 5.92395 12.9444 6.03622 12.8326L12.8259 6.04292C12.9002 5.96863 12.9884 5.90971 13.0855 5.86946C13.1826 5.82926 13.2866 5.80859 13.3917 5.80859C13.4967 5.80859 13.6008 5.82926 13.6978 5.86946C13.7949 5.90971 13.8831 5.96863 13.9574 6.04292C14.0317 6.11721 14.0907 6.20541 14.1309 6.30249C14.1711 6.39957 14.1918 6.50359 14.1918 6.60865C14.1918 6.71372 14.1711 6.81778 14.1309 6.91486C14.0907 7.0119 14.0317 7.1001 13.9574 7.17439L7.16769 13.9642C7.09358 14.0387 7.00543 14.0978 6.9083 14.1381C6.81121 14.1783 6.70706 14.1989 6.60195 14.1986Z" fill="#919191"/>
<path d="M13.3926 14.1986C13.2875 14.1987 13.1834 14.178 13.0863 14.1378C12.9892 14.0976 12.901 14.0385 12.8268 13.9642L6.03706 7.17439C5.96277 7.1001 5.90385 7.0119 5.86365 6.91486C5.82345 6.81778 5.80273 6.71372 5.80273 6.60865C5.80273 6.50359 5.82345 6.39957 5.86365 6.30249C5.90385 6.20541 5.96277 6.11721 6.03706 6.04292C6.11139 5.96863 6.19959 5.90971 6.29663 5.86946C6.39372 5.82926 6.49778 5.80859 6.60284 5.80859C6.7079 5.80859 6.81192 5.82926 6.90901 5.86946C7.00609 5.90971 7.09429 5.96863 7.16858 6.04292L13.9583 12.8326C14.0706 12.9444 14.1471 13.087 14.1782 13.2423C14.2093 13.3977 14.1935 13.5587 14.1329 13.7051C14.0723 13.8514 13.9695 13.9765 13.8377 14.0644C13.7059 14.1522 13.551 14.1989 13.3926 14.1986Z" fill="#919191"/>
</svg>
