<svg width="100" height="100" viewBox="0 0 100 100" fill="none" xmlns="http://www.w3.org/2000/svg">
<circle cx="50" cy="50" r="50" fill="#139ED5" fill-opacity="0.15"/>
<g clip-path="url(#clip0_5261_3597)">
<path d="M64.2949 43.2334L50.7607 56.7686L50.001 57.5283L45.9268 61.6016L41.0928 56.7686L35.707 51.3818L40.541 46.5479L45.9268 51.9346L50.001 47.8604L59.4609 38.4004L64.2949 43.2334Z" fill="#139ED5"/>
<path d="M50 25C36.1934 25 25 36.1934 25 50C25 63.8066 36.1934 75 50 75C63.8066 75 75 63.8066 75 50C75 36.1934 63.8066 25 50 25ZM50 73.249C37.1807 73.249 26.751 62.8193 26.751 50C26.751 37.1807 37.1807 26.751 50 26.751C62.8193 26.751 73.249 37.1807 73.249 50C73.249 62.8193 62.8193 73.249 50 73.249Z" fill="#139ED5"/>
</g>
<defs>
<clipPath id="clip0_5261_3597">
<rect width="50" height="50" fill="white" transform="translate(25 25)"/>
</clipPath>
</defs>
</svg>
