<svg width="62" height="61" viewBox="0 0 62 61" fill="none" xmlns="http://www.w3.org/2000/svg">
<g clip-path="url(#clip0_5261_2910)">
<path d="M48.1633 52.6918H38.304H35.6492H35.0758V39.4672H39.4009C40.4978 39.4672 41.1459 38.2208 40.4978 37.3234L32.0844 25.6818C31.5484 24.9339 30.4391 24.9339 29.9031 25.6818L21.4898 37.3234C20.8416 38.2208 21.4773 39.4672 22.5866 39.4672H26.9117V52.6918H26.3384H23.6835H12.2538C5.71005 52.3303 0.5 46.2104 0.5 39.5794C0.5 35.005 2.98038 31.0165 6.65734 28.8602C6.3208 27.9503 6.1463 26.9781 6.1463 25.956C6.1463 21.2819 9.92297 17.5053 14.5971 17.5053C15.6067 17.5053 16.5789 17.6798 17.4888 18.0163C20.1935 12.2827 26.0268 8.30664 32.8073 8.30664C41.5821 8.3191 48.8114 15.0373 49.634 23.6003C56.3772 24.7594 61.5 31.004 61.5 38.0713C61.5 45.6246 55.6169 52.1683 48.1633 52.6918Z" fill="#919191"/>
</g>
<defs>
<clipPath id="clip0_5261_2910">
<rect width="61" height="61" fill="white" transform="translate(0.5)"/>
</clipPath>
</defs>
</svg>
