<svg width="101" height="100" viewBox="0 0 101 100" fill="none" xmlns="http://www.w3.org/2000/svg">
<circle cx="50.5" cy="50" r="50" fill="#139ED5" fill-opacity="0.15"/>
<g clip-path="url(#clip0_6644_3290)">
<path fill-rule="evenodd" clip-rule="evenodd" d="M45.0696 44.2228C44.9417 44.3204 44.7802 44.3633 44.6206 44.3419C44.4611 44.3205 44.3165 44.2366 44.2188 44.1087C44.1212 43.9807 44.0783 43.8192 44.0997 43.6597C44.1211 43.5001 44.205 43.3556 44.3329 43.2579L50.1316 38.8235C50.2391 38.7415 50.3708 38.6977 50.506 38.699C50.6411 38.7003 50.772 38.7467 50.8778 38.8308L56.6671 43.2579C56.795 43.3556 56.8789 43.5001 56.9003 43.6597C56.9217 43.8192 56.8788 43.9807 56.7811 44.1087C56.6835 44.2366 56.5389 44.3205 56.3794 44.3419C56.2198 44.3633 56.0583 44.3204 55.9304 44.2228L55.5651 43.9435V49.2124C55.5652 49.3632 55.5355 49.5126 55.4776 49.6519C55.4198 49.7912 55.3351 49.9177 55.2282 50.0241L55.227 50.023C55.1208 50.1298 54.9945 50.2147 54.8554 50.2727C54.7164 50.3307 54.5672 50.3608 54.4165 50.3611H46.584C46.2794 50.3607 45.9875 50.2396 45.7722 50.0242C45.5568 49.8089 45.4357 49.5169 45.4353 49.2124V43.9435L45.07 44.2228H45.0696ZM51.0603 49.1446V46.1644H49.9397V49.1443L51.0603 49.1446ZM48.723 49.1446V45.556C48.723 45.3946 48.7871 45.2399 48.9012 45.1258C49.0153 45.0117 49.1701 44.9476 49.3314 44.9476H51.6687C51.83 44.9476 51.9847 45.0117 52.0988 45.1258C52.2129 45.2399 52.277 45.3946 52.277 45.556V49.1443H54.3484V43.013L50.5 40.0701L46.6516 43.013V49.1443L48.723 49.1446ZM47.0613 30.4688H43.6024V34.3545H57.3974V30.4688L53.9387 30.4666C53.7965 30.4665 53.6588 30.4165 53.5498 30.3253C53.4408 30.234 53.3673 30.1073 53.3422 29.9674C53.2659 29.5475 52.9459 29.1611 52.473 28.8711C51.3603 28.1887 49.6395 28.1887 48.5268 28.8711C48.0696 29.1516 47.7553 29.522 47.6661 29.9258C47.65 30.0749 47.5793 30.2129 47.4677 30.3131C47.3561 30.4133 47.2113 30.4688 47.0613 30.4688ZM58.6141 30.4591V29.8601C58.614 29.6987 58.5499 29.544 58.4358 29.4299C58.3217 29.3158 58.167 29.2517 58.0057 29.2517H54.3857C54.1487 28.6872 53.6989 28.1986 53.1053 27.8346C51.6014 26.9119 49.399 26.9119 47.8947 27.8346C47.3011 28.1986 46.8513 28.6872 46.6143 29.2517H42.994C42.8327 29.2517 42.678 29.3158 42.5639 29.4299C42.4498 29.544 42.3857 29.6987 42.3857 29.8601V30.4591H37.7305C36.4306 30.4624 35.1848 30.9803 34.2657 31.8995C33.3465 32.8186 32.8286 34.0643 32.8252 35.3643V67.9521C32.8285 69.2521 33.3464 70.4978 34.2656 71.417C35.1848 72.3362 36.4305 72.8541 37.7305 72.8574H63.2695C64.5695 72.8541 65.8152 72.3362 66.7344 71.417C67.6536 70.4978 68.1714 69.2521 68.1748 67.9521V35.3643C68.1714 34.0643 67.6535 32.8186 66.7343 31.8995C65.8152 30.9803 64.5694 30.4624 63.2695 30.4591H58.6141ZM63.4469 64.1326L59.7329 68.03V65.1198C59.7341 64.8584 59.8385 64.608 60.0233 64.4231C60.2082 64.2383 60.4586 64.1339 60.72 64.1327L63.4469 64.1326ZM59.123 70.1563H37.7305C37.1463 70.1551 36.5865 69.9225 36.1735 69.5094C35.7604 69.0964 35.5278 68.5366 35.5266 67.9524V35.3646C35.5277 34.7804 35.7603 34.2205 36.1734 33.8074C36.5864 33.3943 37.1463 33.1616 37.7305 33.1604H42.3857V31.676H37.7305C36.7533 31.6793 35.817 32.069 35.1261 32.76C34.4351 33.4509 34.0454 34.3872 34.042 35.3644V67.9522C34.0453 68.9295 34.435 69.8657 35.126 70.5567C35.817 71.2477 36.7533 71.6374 37.7305 71.6407H63.2695C64.2467 71.6374 65.183 71.2477 65.874 70.5567C66.565 69.8657 66.9547 68.9295 66.958 67.9522V35.3644C66.9546 34.3872 66.5649 33.4509 65.8739 32.76C65.1829 32.069 64.2467 31.6793 63.2695 31.676H58.6142V33.1604H63.2695C63.8536 33.1616 64.4135 33.3942 64.8265 33.8072C65.2395 34.2202 65.4721 34.7801 65.4734 35.3642V63.5241C65.4735 63.6089 65.4559 63.6927 65.4216 63.7703C65.3873 63.8478 65.3371 63.9173 65.2743 63.9742L59.5942 69.9348C59.5368 70.0041 59.4648 70.0599 59.3834 70.0982C59.3019 70.1365 59.213 70.1564 59.123 70.1563ZM41.6253 54.3596C41.4653 54.3575 41.3125 54.2926 41.2001 54.1787C41.0876 54.0648 41.0246 53.9112 41.0246 53.7512C41.0246 53.5912 41.0876 53.4376 41.2001 53.3238C41.3125 53.2099 41.4653 53.1449 41.6253 53.1429H51.9624C52.0429 53.1419 52.1229 53.1568 52.1976 53.1869C52.2723 53.2171 52.3403 53.2617 52.3976 53.3183C52.4549 53.3749 52.5004 53.4423 52.5315 53.5166C52.5625 53.5909 52.5785 53.6707 52.5785 53.7512C52.5785 53.8318 52.5625 53.9115 52.5315 53.9858C52.5004 54.0601 52.4549 54.1276 52.3976 54.1841C52.3403 54.2407 52.2723 54.2854 52.1976 54.3155C52.1229 54.3456 52.0429 54.3606 51.9624 54.3596H41.6253ZM46.4139 57.7947C46.2525 57.7947 46.0978 57.7306 45.9837 57.6165C45.8696 57.5024 45.8055 57.3477 45.8055 57.1863C45.8055 57.025 45.8696 56.8702 45.9837 56.7561C46.0978 56.642 46.2525 56.5779 46.4139 56.5779H59.6525C59.8139 56.5779 59.9686 56.642 60.0827 56.7561C60.1968 56.8702 60.2609 57.025 60.2609 57.1863C60.2609 57.3477 60.1968 57.5024 60.0827 57.6165C59.9686 57.7306 59.8139 57.7947 59.6525 57.7947H46.4139ZM41.6253 57.7947C41.4639 57.7947 41.3092 57.7306 41.1951 57.6165C41.081 57.5024 41.0169 57.3477 41.0169 57.1863C41.0169 57.025 41.081 56.8702 41.1951 56.7561C41.3092 56.642 41.4639 56.5779 41.6253 56.5779H44.1355C44.2969 56.5779 44.4517 56.642 44.5657 56.7561C44.6798 56.8702 44.7439 57.025 44.7439 57.1863C44.7439 57.3477 44.6798 57.5024 44.5657 57.6165C44.4517 57.7306 44.2969 57.7947 44.1355 57.7947H41.6253ZM41.6253 61.2298C41.4653 61.2278 41.3125 61.1628 41.2001 61.0489C41.0876 60.935 41.0246 60.7815 41.0246 60.6214C41.0246 60.4614 41.0876 60.3078 41.2001 60.194C41.3125 60.0801 41.4653 60.0151 41.6253 60.0131H59.6526C59.7332 60.0121 59.8131 60.0271 59.8878 60.0572C59.9625 60.0873 60.0305 60.1319 60.0878 60.1885C60.1451 60.2451 60.1906 60.3125 60.2217 60.3868C60.2527 60.4611 60.2687 60.5409 60.2687 60.6214C60.2687 60.702 60.2527 60.7817 60.2217 60.856C60.1906 60.9304 60.1451 60.9978 60.0878 61.0544C60.0305 61.1109 59.9625 61.1556 59.8878 61.1857C59.8131 61.2158 59.7332 61.2308 59.6526 61.2298H41.6253ZM55.0711 64.6649C54.9912 64.6649 54.9121 64.6492 54.8383 64.6186C54.7645 64.5881 54.6974 64.5432 54.6409 64.4867C54.5844 64.4302 54.5396 64.3632 54.509 64.2894C54.4784 64.2156 54.4627 64.1364 54.4627 64.0565C54.4627 63.9766 54.4784 63.8975 54.509 63.8237C54.5396 63.7499 54.5844 63.6828 54.6409 63.6263C54.6974 63.5698 54.7645 63.525 54.8383 63.4945C54.9121 63.4639 54.9912 63.4481 55.0711 63.4481H59.2866C59.6852 63.1045 60.1939 62.9156 60.7201 62.9157H64.2566V35.3642C64.2555 35.1027 64.1511 34.8523 63.9662 34.6675C63.7814 34.4826 63.531 34.3783 63.2695 34.3771H58.6142V34.9631C58.6142 35.1244 58.5501 35.2792 58.436 35.3933C58.3219 35.5074 58.1671 35.5715 58.0058 35.5715H42.994C42.9142 35.5715 42.835 35.5557 42.7612 35.5252C42.6874 35.4946 42.6204 35.4498 42.5639 35.3933C42.5074 35.3368 42.4626 35.2697 42.432 35.1959C42.4015 35.1221 42.3857 35.043 42.3857 34.9631V34.3771H37.7305C37.469 34.3783 37.2186 34.4826 37.0338 34.6675C36.8489 34.8523 36.7445 35.1027 36.7434 35.3642V67.9521C36.7445 68.2135 36.8489 68.4639 37.0337 68.6488C37.2186 68.8337 37.469 68.938 37.7305 68.9392H58.5162V65.1196C58.5162 64.9668 58.5321 64.8144 58.5637 64.6649H55.0711ZM41.6253 64.6649C41.4639 64.6649 41.3092 64.6008 41.1951 64.4867C41.081 64.3726 41.0169 64.2179 41.0169 64.0565C41.0169 63.8952 41.081 63.7404 41.1951 63.6263C41.3092 63.5122 41.4639 63.4481 41.6253 63.4481H52.8286C52.9085 63.4481 52.9876 63.4639 53.0614 63.4945C53.1353 63.525 53.2023 63.5698 53.2588 63.6263C53.3153 63.6828 53.3601 63.7499 53.3907 63.8237C53.4213 63.8975 53.437 63.9766 53.437 64.0565C53.437 64.1364 53.4213 64.2156 53.3907 64.2894C53.3601 64.3632 53.3153 64.4302 53.2588 64.4867C53.2023 64.5432 53.1353 64.5881 53.0614 64.6186C52.9876 64.6492 52.9085 64.6649 52.8286 64.6649H41.6253Z" fill="#139ED5"/>
</g>
<defs>
<clipPath id="clip0_6644_3290">
<rect width="50" height="50" fill="white" transform="translate(25.5 25)"/>
</clipPath>
</defs>
</svg>
