<svg width="20" height="20" viewBox="0 0 20 20" fill="none" xmlns="http://www.w3.org/2000/svg">
<path d="M6.24967 2.08333C6.24967 1.6231 5.87658 1.25 5.41634 1.25C4.9561 1.25 4.58301 1.6231 4.58301 2.08333V2.91667C4.58301 3.3769 4.9561 3.75 5.41634 3.75C5.87658 3.75 6.24967 3.3769 6.24967 2.91667V2.08333Z" fill="black"/>
<path d="M15.4167 2.08333C15.4167 1.6231 15.0436 1.25 14.5833 1.25C14.1231 1.25 13.75 1.6231 13.75 2.08333V2.91667C13.75 3.3769 14.1231 3.75 14.5833 3.75C15.0436 3.75 15.4167 3.3769 15.4167 2.91667V2.08333Z" fill="black"/>
<path d="M1.66699 7.5V17.0833C1.66699 18.0037 2.41324 18.75 3.33366 18.75H16.667C17.5874 18.75 18.3337 18.0037 18.3337 17.0833V7.5H1.66699ZM6.66699 15.8333C6.66699 16.2937 6.29408 16.6667 5.83366 16.6667H5.00033C4.53991 16.6667 4.16699 16.2937 4.16699 15.8333V15C4.16699 14.5396 4.53991 14.1667 5.00033 14.1667H5.83366C6.29408 14.1667 6.66699 14.5396 6.66699 15V15.8333ZM6.66699 11.25C6.66699 11.7104 6.29408 12.0833 5.83366 12.0833H5.00033C4.53991 12.0833 4.16699 11.7104 4.16699 11.25V10.4167C4.16699 9.95625 4.53991 9.58333 5.00033 9.58333H5.83366C6.29408 9.58333 6.66699 9.95625 6.66699 10.4167V11.25ZM11.2503 15.8333C11.2503 16.2937 10.8774 16.6667 10.417 16.6667H9.58366C9.12324 16.6667 8.75033 16.2937 8.75033 15.8333V15C8.75033 14.5396 9.12324 14.1667 9.58366 14.1667H10.417C10.8774 14.1667 11.2503 14.5396 11.2503 15V15.8333ZM11.2503 11.25C11.2503 11.7104 10.8774 12.0833 10.417 12.0833H9.58366C9.12324 12.0833 8.75033 11.7104 8.75033 11.25V10.4167C8.75033 9.95625 9.12324 9.58333 9.58366 9.58333H10.417C10.8774 9.58333 11.2503 9.95625 11.2503 10.4167V11.25ZM15.8337 15.8333C15.8337 16.2937 15.4607 16.6667 15.0003 16.6667H14.167C13.7066 16.6667 13.3337 16.2937 13.3337 15.8333V15C13.3337 14.5396 13.7066 14.1667 14.167 14.1667H15.0003C15.4607 14.1667 15.8337 14.5396 15.8337 15V15.8333ZM15.8337 11.25C15.8337 11.7104 15.4607 12.0833 15.0003 12.0833H14.167C13.7066 12.0833 13.3337 11.7104 13.3337 11.25V10.4167C13.3337 9.95625 13.7066 9.58333 14.167 9.58333H15.0003C15.4607 9.58333 15.8337 9.95625 15.8337 10.4167V11.25Z" fill="black"/>
<path d="M18.3337 6.66667V4.16667C18.3337 3.24625 17.5874 2.5 16.667 2.5H16.2503V2.91667C16.2503 3.83583 15.5028 4.58333 14.5837 4.58333C13.6645 4.58333 12.917 3.83583 12.917 2.91667V2.5H7.08366V2.91667C7.08366 3.83583 6.33616 4.58333 5.41699 4.58333C4.49783 4.58333 3.75033 3.83583 3.75033 2.91667V2.5H3.33366C2.41324 2.5 1.66699 3.24625 1.66699 4.16667V6.66667H18.3337Z" fill="black"/>
</svg>
