<svg width="16" height="16" viewBox="0 0 16 16" fill="none" xmlns="http://www.w3.org/2000/svg">
<rect x="2.5" y="2.5" width="11" height="11" rx="5.5" stroke="black"/>
<path d="M10.6522 5.34835C10.7108 5.40695 10.7437 5.48644 10.7437 5.56932C10.7437 5.6522 10.7108 5.73169 10.6522 5.79029L8.44251 8L10.6522 10.2097C10.7108 10.2683 10.7437 10.3478 10.7437 10.4307C10.7437 10.5136 10.7108 10.593 10.6522 10.6517C10.5936 10.7103 10.5141 10.7432 10.4312 10.7432C10.3484 10.7432 10.2689 10.7103 10.2103 10.6517L8.00057 8.44194L5.79086 10.6517C5.73225 10.7103 5.65277 10.7432 5.56989 10.7432C5.48701 10.7432 5.40752 10.7103 5.34892 10.6517C5.29031 10.593 5.25739 10.5136 5.25739 10.4307C5.25739 10.3478 5.29031 10.2683 5.34892 10.2097L7.55862 8L5.34892 5.79029C5.29031 5.73169 5.25739 5.6522 5.25739 5.56932C5.25739 5.48644 5.29031 5.40695 5.34892 5.34835C5.40752 5.28974 5.48701 5.25682 5.56989 5.25682C5.65277 5.25682 5.73225 5.28974 5.79086 5.34835L8.00057 7.55806L10.2103 5.34835C10.2689 5.28974 10.3484 5.25682 10.4312 5.25682C10.5141 5.25682 10.5936 5.28974 10.6522 5.34835Z" fill="black"/>
</svg>
