<svg width="12" height="12" viewBox="0 0 12 12" fill="none" xmlns="http://www.w3.org/2000/svg">
<path d="M10.5 2.99023C8.835 2.82523 7.16 2.74023 5.49 2.74023C4.5 2.74023 3.51 2.79023 2.52 2.89023L1.5 2.99023" stroke="#FF3F3F" stroke-linecap="round" stroke-linejoin="round"/>
<path d="M4.25 2.485L4.36 1.83C4.44 1.355 4.5 1 5.345 1H6.655C7.5 1 7.565 1.375 7.64 1.835L7.75 2.485" stroke="#FF3F3F" stroke-linecap="round" stroke-linejoin="round"/>
<path d="M9.4252 4.57031L9.1002 9.60531C9.0452 10.3903 9.0002 11.0003 7.6052 11.0003H4.3952C3.0002 11.0003 2.9552 10.3903 2.9002 9.60531L2.5752 4.57031" stroke="#FF3F3F" stroke-linecap="round" stroke-linejoin="round"/>
<path d="M5.16504 8.25H6.83004" stroke="#FF3F3F" stroke-linecap="round" stroke-linejoin="round"/>
<path d="M4.75 6.25H7.25" stroke="#FF3F3F" stroke-linecap="round" stroke-linejoin="round"/>
</svg>
