<svg width="16" height="16" viewBox="0 0 16 16" fill="none" xmlns="http://www.w3.org/2000/svg">
<path d="M2.44368 7.40823C2.16754 7.409 1.89727 7.48794 1.66412 7.63591C1.43098 7.78388 1.24449 7.99484 1.12624 8.24438C1.00798 8.49392 0.962794 8.77184 0.995901 9.04598C1.02901 9.32013 1.13906 9.5793 1.31331 9.79352L5.02808 14.3441C5.16053 14.5086 5.33031 14.6391 5.52332 14.7247C5.71633 14.8104 5.92699 14.8488 6.13781 14.8367C6.5887 14.8125 6.99578 14.5713 7.25531 14.1747L14.9718 1.74724C14.9731 1.74518 14.9744 1.74312 14.9758 1.74109C15.0482 1.62992 15.0247 1.40961 14.8753 1.27121C14.8342 1.2332 14.7858 1.204 14.733 1.18541C14.6803 1.16682 14.6243 1.15922 14.5684 1.16309C14.5126 1.16696 14.4582 1.18222 14.4085 1.20792C14.3588 1.23362 14.3149 1.26922 14.2795 1.31253C14.2767 1.31594 14.2739 1.31929 14.2709 1.3226L6.48873 10.1153C6.45912 10.1488 6.42315 10.176 6.38292 10.1955C6.34269 10.2149 6.299 10.2262 6.25439 10.2286C6.20977 10.231 6.16512 10.2245 6.12303 10.2095C6.08093 10.1945 6.04224 10.1713 6.00919 10.1413L3.42642 7.79093C3.15818 7.54504 2.80758 7.4085 2.44368 7.40823Z" fill="#139ED5"/>
</svg>
