<svg width="24" height="25" viewBox="0 0 24 25" fill="none" xmlns="http://www.w3.org/2000/svg">
<path fill-rule="evenodd" clip-rule="evenodd" d="M6.54 5.54492C6.6 6.43492 6.75 7.30492 6.99 8.13492L5.79 9.33492C5.38 8.13492 5.12 6.86492 5.03 5.54492H6.54ZM16.4 17.5649C17.25 17.8049 18.12 17.9549 19 18.0149V19.5049C17.68 19.4149 16.41 19.1549 15.2 18.7549L16.4 17.5649ZM7.5 3.54492H4C3.45 3.54492 3 3.99492 3 4.54492C3 13.9349 10.61 21.5449 20 21.5449C20.55 21.5449 21 21.0949 21 20.5449V17.0549C21 16.5049 20.55 16.0549 20 16.0549C18.76 16.0549 17.55 15.8549 16.43 15.4849C16.33 15.4449 16.22 15.4349 16.12 15.4349C15.86 15.4349 15.61 15.5349 15.41 15.7249L13.21 17.9249C10.38 16.4749 8.06 14.1649 6.62 11.3349L8.82 9.13492C9.1 8.85492 9.18 8.46492 9.07 8.11492C8.7 6.99492 8.5 5.79492 8.5 4.54492C8.5 3.99492 8.05 3.54492 7.5 3.54492Z" fill="white"/>
</svg>
