<svg width="60" height="64.86" viewBox="0 0 86 93" fill="none" xmlns="http://www.w3.org/2000/svg">
<g clip-path="url(#clip0_242_428)">
<path d="M31.1325 40.9883V18.9893L21.9488 13.4511V35.8727L9.98097 28.655V6.23342L0.802734 0.700745V33.7815L9.98097 39.3197L21.9378 46.5319H21.9488V46.5374H21.9378L9.98097 53.7387L0.802734 59.2823V92.3686L0.813674 92.3851L9.98097 86.8524L21.9488 79.6347L31.1325 74.0965L38.6151 69.5847L47.7988 64.0466V34.1767L55.1446 29.7473L64.3229 24.2146L76.4274 16.9091V28.0897L64.3229 35.3952L55.1446 40.9279V74.0087L64.3229 79.5468L76.4274 86.8469L85.6057 92.3851V60.5722L76.4274 55.0395L64.3229 47.734L62.9336 46.8997L64.3229 46.0654L76.4274 38.7598L85.6057 33.2272V0.700745L76.4274 6.23342L64.3229 13.539L55.1446 19.0771L47.7988 23.5066L38.6151 29.0502V58.9146L31.1325 63.4263L21.9488 68.97L9.98097 76.1877V64.4143L21.9488 57.1966L30.7769 51.867L31.127 51.6584V40.9938L31.1325 40.9883ZM76.4274 65.6932V76.1767L64.3229 68.8712V58.3877L76.4274 65.6932Z" fill="#FBFAFA"/>
</g>
<defs>
<clipPath id="clip0_242_428">
<rect width="84.8029" height="91.6788" fill="white" transform="translate(0.802734 0.700745)"/>
</clipPath>
</defs>
</svg>
