<svg width="18" height="17" viewBox="0 0 18 17" fill="none" xmlns="http://www.w3.org/2000/svg">
<g clip-path="url(#clip0_4169_2130)">
<path d="M9.32338 15.261C6.5313 15.261 3.73995 15.261 0.947862 15.261C0.665575 15.261 0.535062 15.3903 0.535062 15.6689C0.535062 15.7411 0.538728 15.8133 0.534329 15.8848C0.528463 15.9714 0.519665 16.058 0.503534 16.1425C0.44341 16.4507 0.147925 16.6976 -0.205485 16.694C-0.560361 16.6904 -0.854381 16.4269 -0.907905 16.0883C-0.92037 16.0089 -0.926969 15.9273 -0.926969 15.8472C-0.927702 14.2071 -0.9387 12.5662 -0.923303 10.926C-0.914504 9.97023 -0.561094 9.1386 0.116396 8.4463C0.52773 8.02616 1.01678 7.72729 1.57623 7.53671C2.01616 7.38728 2.47075 7.3418 2.93414 7.3418C7.22858 7.34324 11.523 7.33963 15.8175 7.34468C17.0757 7.34613 18.0948 7.84568 18.85 8.83902C19.2211 9.32774 19.4425 9.88288 19.518 10.4893C19.5437 10.6936 19.5547 10.9015 19.5554 11.1079C19.5583 12.7005 19.5576 14.293 19.5569 15.8855C19.5569 16.1345 19.4945 16.3612 19.2863 16.5258C19.0663 16.6998 18.8207 16.7453 18.559 16.6391C18.3082 16.5366 18.1498 16.3482 18.1139 16.0789C18.0956 15.9432 18.0978 15.8039 18.0941 15.6667C18.0882 15.4451 17.9951 15.3116 17.8089 15.2704C17.7678 15.261 17.7246 15.2618 17.682 15.2618C14.8965 15.2618 12.1111 15.2618 9.32485 15.2618L9.32338 15.261Z" fill="#139ED5"/>
<path d="M9.2215 0.863281C11.0325 0.863281 12.8428 0.863281 14.6532 0.863281C15.2595 0.863281 15.8263 0.996833 16.3154 1.36572C16.9445 1.84001 17.3118 2.46445 17.3426 3.24844C17.369 3.91331 17.3573 4.57962 17.3602 5.24521C17.3624 5.67402 17.3602 6.10283 17.3602 6.53163C17.3602 6.56989 17.358 6.61032 17.3477 6.64714C17.3162 6.76336 17.2524 6.80956 17.1322 6.78719C17.0009 6.76264 16.8741 6.70994 16.7428 6.69551C16.4341 6.6623 16.1247 6.6392 15.8146 6.62331C15.6078 6.61249 15.544 6.57567 15.5147 6.3757C15.4208 5.74188 14.8247 5.17158 14.0622 5.18024C13.2117 5.18962 12.3611 5.1824 11.5113 5.1824C10.8786 5.1824 10.3382 5.55346 10.1234 6.1382C10.0926 6.22194 10.0808 6.3129 10.0647 6.40097C10.0346 6.55907 9.97525 6.61826 9.8154 6.62043C9.48033 6.62404 9.14451 6.62404 8.80943 6.62043C8.65546 6.61898 8.5946 6.55907 8.56674 6.38364C8.52788 6.13748 8.43109 5.91802 8.27272 5.72527C7.98603 5.37587 7.61503 5.18601 7.1575 5.18385C6.27984 5.17952 5.40218 5.18168 4.52379 5.18313C3.78618 5.18385 3.20914 5.75126 3.11528 6.37426C3.08522 6.57567 3.02437 6.61104 2.8176 6.62404C2.47519 6.64642 2.13278 6.67818 1.7911 6.71427C1.68625 6.7251 1.5858 6.76986 1.48168 6.78719C1.3695 6.80523 1.31744 6.76769 1.28591 6.65941C1.27345 6.61682 1.26758 6.57134 1.26758 6.52658C1.26685 5.49787 1.25292 4.46917 1.27052 3.44046C1.28885 2.36411 1.79403 1.57291 2.7824 1.09429C3.17394 0.905873 3.59847 0.863281 4.02814 0.863281C5.75926 0.863281 7.49038 0.863281 9.2215 0.863281Z" fill="#139ED5"/>
</g>
<defs>
<clipPath id="clip0_4169_2130">
<rect width="20.4875" height="15.8313" fill="white" transform="translate(-0.931305 0.863281)"/>
</clipPath>
</defs>
</svg>
