<svg width="20" height="19" viewBox="0 0 20 19" fill="none" xmlns="http://www.w3.org/2000/svg">
<path d="M16.7881 15.711H15.6237V13.3823C15.7267 13.3823 15.8254 13.3414 15.8982 13.2686C15.971 13.1958 16.0119 13.0971 16.0119 12.9941C16.0119 12.8912 15.971 12.7925 15.8982 12.7197C15.8254 12.6469 15.7267 12.606 15.6237 12.606V10.2773C15.7267 10.2773 15.8254 10.2364 15.8982 10.1636C15.971 10.0908 16.0119 9.99208 16.0119 9.88914C16.0119 9.7862 15.971 9.68748 15.8982 9.61469C15.8254 9.54191 15.7267 9.50102 15.6237 9.50102V7.17227C15.7267 7.17227 15.8254 7.13137 15.8982 7.05859C15.971 6.9858 16.0119 6.88708 16.0119 6.78414C16.0119 6.6812 15.971 6.58248 15.8982 6.50969C15.8254 6.43691 15.7267 6.39602 15.6237 6.39602V4.06727C15.7267 4.06727 15.8254 4.02637 15.8982 3.95359C15.971 3.8808 16.0119 3.78208 16.0119 3.67914C16.0119 3.5762 15.971 3.47748 15.8982 3.40469C15.8254 3.33191 15.7267 3.29102 15.6237 3.29102H5.53248C5.42954 3.29102 5.33082 3.33191 5.25803 3.40469C5.18525 3.47748 5.14436 3.5762 5.14436 3.67914C5.14436 3.78208 5.18525 3.8808 5.25803 3.95359C5.33082 4.02637 5.42954 4.06727 5.53248 4.06727V6.39602C5.42954 6.39602 5.33082 6.43691 5.25803 6.50969C5.18525 6.58248 5.14436 6.6812 5.14436 6.78414C5.14436 6.88708 5.18525 6.9858 5.25803 7.05859C5.33082 7.13137 5.42954 7.17227 5.53248 7.17227V9.50102C5.42954 9.50102 5.33082 9.54191 5.25803 9.61469C5.18525 9.68748 5.14436 9.7862 5.14436 9.88914C5.14436 9.99208 5.18525 10.0908 5.25803 10.1636C5.33082 10.2364 5.42954 10.2773 5.53248 10.2773V12.606C5.42954 12.606 5.33082 12.6469 5.25803 12.7197C5.18525 12.7925 5.14436 12.8912 5.14436 12.9941C5.14436 13.0971 5.18525 13.1958 5.25803 13.2686C5.33082 13.3414 5.42954 13.3823 5.53248 13.3823V15.711H4.36811C4.26517 15.711 4.16645 15.7519 4.09366 15.8247C4.02087 15.8975 3.97998 15.9962 3.97998 16.0991C3.97998 16.2021 4.02087 16.3008 4.09366 16.3736C4.16645 16.4464 4.26517 16.4873 4.36811 16.4873H16.7881C16.891 16.4873 16.9898 16.4464 17.0626 16.3736C17.1353 16.3008 17.1762 16.2021 17.1762 16.0991C17.1762 15.9962 17.1353 15.8975 17.0626 15.8247C16.9898 15.7519 16.891 15.711 16.7881 15.711ZM8.05529 14.7407C8.05529 14.8436 8.0144 14.9424 7.94161 15.0151C7.86883 15.0879 7.7701 15.1288 7.66717 15.1288C7.56423 15.1288 7.46551 15.0879 7.39272 15.0151C7.31993 14.9424 7.27904 14.8436 7.27904 14.7407V14.3526C7.27904 14.2496 7.31993 14.1509 7.39272 14.0781C7.46551 14.0053 7.56423 13.9645 7.66717 13.9645C7.7701 13.9645 7.86883 14.0053 7.94161 14.0781C8.0144 14.1509 8.05529 14.2496 8.05529 14.3526V14.7407ZM8.05529 11.6357C8.05529 11.7386 8.0144 11.8374 7.94161 11.9101C7.86883 11.9829 7.7701 12.0238 7.66717 12.0238C7.56423 12.0238 7.46551 11.9829 7.39272 11.9101C7.31993 11.8374 7.27904 11.7386 7.27904 11.6357V11.2476C7.27904 11.1446 7.31993 11.0459 7.39272 10.9731C7.46551 10.9003 7.56423 10.8595 7.66717 10.8595C7.7701 10.8595 7.86883 10.9003 7.94161 10.9731C8.0144 11.0459 8.05529 11.1446 8.05529 11.2476V11.6357ZM8.05529 8.5307C8.05529 8.63364 8.0144 8.73236 7.94161 8.80515C7.86883 8.87794 7.7701 8.91883 7.66717 8.91883C7.56423 8.91883 7.46551 8.87794 7.39272 8.80515C7.31993 8.73236 7.27904 8.63364 7.27904 8.5307V8.14258C7.27904 8.03964 7.31993 7.94092 7.39272 7.86813C7.46551 7.79534 7.56423 7.75445 7.66717 7.75445C7.7701 7.75445 7.86883 7.79534 7.94161 7.86813C8.0144 7.94092 8.05529 8.03964 8.05529 8.14258V8.5307ZM8.05529 5.4257C8.05529 5.52864 8.0144 5.62736 7.94161 5.70015C7.86883 5.77294 7.7701 5.81383 7.66717 5.81383C7.56423 5.81383 7.46551 5.77294 7.39272 5.70015C7.31993 5.62736 7.27904 5.52864 7.27904 5.4257V5.03758C7.27904 4.93464 7.31993 4.83592 7.39272 4.76313C7.46551 4.69034 7.56423 4.64945 7.66717 4.64945C7.7701 4.64945 7.86883 4.69034 7.94161 4.76313C8.0144 4.83592 8.05529 4.93464 8.05529 5.03758V5.4257ZM9.99592 14.7407C9.99592 14.8436 9.95503 14.9424 9.88224 15.0151C9.80945 15.0879 9.71073 15.1288 9.60779 15.1288C9.50486 15.1288 9.40613 15.0879 9.33335 15.0151C9.26056 14.9424 9.21967 14.8436 9.21967 14.7407V14.3526C9.21967 14.2496 9.26056 14.1509 9.33335 14.0781C9.40613 14.0053 9.50486 13.9645 9.60779 13.9645C9.71073 13.9645 9.80945 14.0053 9.88224 14.0781C9.95503 14.1509 9.99592 14.2496 9.99592 14.3526V14.7407ZM9.99592 11.6357C9.99592 11.7386 9.95503 11.8374 9.88224 11.9101C9.80945 11.9829 9.71073 12.0238 9.60779 12.0238C9.50486 12.0238 9.40613 11.9829 9.33335 11.9101C9.26056 11.8374 9.21967 11.7386 9.21967 11.6357V11.2476C9.21967 11.1446 9.26056 11.0459 9.33335 10.9731C9.40613 10.9003 9.50486 10.8595 9.60779 10.8595C9.71073 10.8595 9.80945 10.9003 9.88224 10.9731C9.95503 11.0459 9.99592 11.1446 9.99592 11.2476V11.6357ZM9.99592 8.5307C9.99592 8.63364 9.95503 8.73236 9.88224 8.80515C9.80945 8.87794 9.71073 8.91883 9.60779 8.91883C9.50486 8.91883 9.40613 8.87794 9.33335 8.80515C9.26056 8.73236 9.21967 8.63364 9.21967 8.5307V8.14258C9.21967 8.03964 9.26056 7.94092 9.33335 7.86813C9.40613 7.79534 9.50486 7.75445 9.60779 7.75445C9.71073 7.75445 9.80945 7.79534 9.88224 7.86813C9.95503 7.94092 9.99592 8.03964 9.99592 8.14258V8.5307ZM9.99592 5.4257C9.99592 5.52864 9.95503 5.62736 9.88224 5.70015C9.80945 5.77294 9.71073 5.81383 9.60779 5.81383C9.50486 5.81383 9.40613 5.77294 9.33335 5.70015C9.26056 5.62736 9.21967 5.52864 9.21967 5.4257V5.03758C9.21967 4.93464 9.26056 4.83592 9.33335 4.76313C9.40613 4.69034 9.50486 4.64945 9.60779 4.64945C9.71073 4.64945 9.80945 4.69034 9.88224 4.76313C9.95503 4.83592 9.99592 4.93464 9.99592 5.03758V5.4257ZM11.9365 14.7407C11.9365 14.8436 11.8957 14.9424 11.8229 15.0151C11.7501 15.0879 11.6514 15.1288 11.5484 15.1288C11.4455 15.1288 11.3468 15.0879 11.274 15.0151C11.2012 14.9424 11.1603 14.8436 11.1603 14.7407V14.3526C11.1603 14.2496 11.2012 14.1509 11.274 14.0781C11.3468 14.0053 11.4455 13.9645 11.5484 13.9645C11.6514 13.9645 11.7501 14.0053 11.8229 14.0781C11.8957 14.1509 11.9365 14.2496 11.9365 14.3526V14.7407ZM11.9365 11.6357C11.9365 11.7386 11.8957 11.8374 11.8229 11.9101C11.7501 11.9829 11.6514 12.0238 11.5484 12.0238C11.4455 12.0238 11.3468 11.9829 11.274 11.9101C11.2012 11.8374 11.1603 11.7386 11.1603 11.6357V11.2476C11.1603 11.1446 11.2012 11.0459 11.274 10.9731C11.3468 10.9003 11.4455 10.8595 11.5484 10.8595C11.6514 10.8595 11.7501 10.9003 11.8229 10.9731C11.8957 11.0459 11.9365 11.1446 11.9365 11.2476V11.6357ZM11.9365 8.5307C11.9365 8.63364 11.8957 8.73236 11.8229 8.80515C11.7501 8.87794 11.6514 8.91883 11.5484 8.91883C11.4455 8.91883 11.3468 8.87794 11.274 8.80515C11.2012 8.73236 11.1603 8.63364 11.1603 8.5307V8.14258C11.1603 8.03964 11.2012 7.94092 11.274 7.86813C11.3468 7.79534 11.4455 7.75445 11.5484 7.75445C11.6514 7.75445 11.7501 7.79534 11.8229 7.86813C11.8957 7.94092 11.9365 8.03964 11.9365 8.14258V8.5307ZM11.9365 5.4257C11.9365 5.52864 11.8957 5.62736 11.8229 5.70015C11.7501 5.77294 11.6514 5.81383 11.5484 5.81383C11.4455 5.81383 11.3468 5.77294 11.274 5.70015C11.2012 5.62736 11.1603 5.52864 11.1603 5.4257V5.03758C11.1603 4.93464 11.2012 4.83592 11.274 4.76313C11.3468 4.69034 11.4455 4.64945 11.5484 4.64945C11.6514 4.64945 11.7501 4.69034 11.8229 4.76313C11.8957 4.83592 11.9365 4.93464 11.9365 5.03758V5.4257ZM13.8772 14.7407C13.8772 14.8436 13.8363 14.9424 13.7635 15.0151C13.6907 15.0879 13.592 15.1288 13.489 15.1288C13.3861 15.1288 13.2874 15.0879 13.2146 15.0151C13.1418 14.9424 13.1009 14.8436 13.1009 14.7407V14.3526C13.1009 14.2496 13.1418 14.1509 13.2146 14.0781C13.2874 14.0053 13.3861 13.9645 13.489 13.9645C13.592 13.9645 13.6907 14.0053 13.7635 14.0781C13.8363 14.1509 13.8772 14.2496 13.8772 14.3526V14.7407ZM13.8772 11.6357C13.8772 11.7386 13.8363 11.8374 13.7635 11.9101C13.6907 11.9829 13.592 12.0238 13.489 12.0238C13.3861 12.0238 13.2874 11.9829 13.2146 11.9101C13.1418 11.8374 13.1009 11.7386 13.1009 11.6357V11.2476C13.1009 11.1446 13.1418 11.0459 13.2146 10.9731C13.2874 10.9003 13.3861 10.8595 13.489 10.8595C13.592 10.8595 13.6907 10.9003 13.7635 10.9731C13.8363 11.0459 13.8772 11.1446 13.8772 11.2476V11.6357ZM13.8772 8.5307C13.8772 8.63364 13.8363 8.73236 13.7635 8.80515C13.6907 8.87794 13.592 8.91883 13.489 8.91883C13.3861 8.91883 13.2874 8.87794 13.2146 8.80515C13.1418 8.73236 13.1009 8.63364 13.1009 8.5307V8.14258C13.1009 8.03964 13.1418 7.94092 13.2146 7.86813C13.2874 7.79534 13.3861 7.75445 13.489 7.75445C13.592 7.75445 13.6907 7.79534 13.7635 7.86813C13.8363 7.94092 13.8772 8.03964 13.8772 8.14258V8.5307ZM13.8772 5.4257C13.8772 5.52864 13.8363 5.62736 13.7635 5.70015C13.6907 5.77294 13.592 5.81383 13.489 5.81383C13.3861 5.81383 13.2874 5.77294 13.2146 5.70015C13.1418 5.62736 13.1009 5.52864 13.1009 5.4257V5.03758C13.1009 4.93464 13.1418 4.83592 13.2146 4.76313C13.2874 4.69034 13.3861 4.64945 13.489 4.64945C13.592 4.64945 13.6907 4.69034 13.7635 4.76313C13.8363 4.83592 13.8772 4.93464 13.8772 5.03758V5.4257Z" fill="black"/>
</svg>
