<svg width="20" height="20" viewBox="0 0 20 20" fill="none" xmlns="http://www.w3.org/2000/svg">
<g clip-path="url(#clip0_4169_2544)">
<g clip-path="url(#clip1_4169_2544)">
<path d="M0.875887 13.5781H10.0399V15.2619H15.7685V13.5818H18.0443C18.1917 15.5843 18.2034 17.3672 16.1495 18.7262C16.1244 18.7427 16.1042 18.7654 16.0486 18.8149C16.3012 19.0247 16.5501 19.232 16.7966 19.4369C16.4639 19.755 16.1966 20.0106 15.8902 20.3042C15.6198 20.0253 15.3275 19.7018 15.0088 19.407C14.9152 19.3201 14.7495 19.2846 14.6137 19.2761C14.3917 19.2626 14.1666 19.2987 13.9427 19.2993C10.9672 19.3011 7.99159 19.3005 5.0154 19.3005C4.87289 19.3005 4.72059 19.3281 4.58909 19.2883C4.19214 19.169 3.94015 19.3531 3.70406 19.6375C3.50284 19.8797 3.27348 20.0981 3.06369 20.3195C2.7805 20.0216 2.52423 19.7525 2.24043 19.4534C2.43065 19.2852 2.67224 19.0712 2.94381 18.8302C2.75665 18.6962 2.61659 18.6033 2.48386 18.5005C1.48935 17.7341 0.95173 16.7176 0.881392 15.4693C0.846529 14.8509 0.875276 14.2289 0.875276 13.5781H0.875887Z" fill="black"/>
<path d="M0.881391 8.94481C0.876498 8.83411 0.867936 8.73441 0.867936 8.63472C0.867324 7.0139 0.865489 5.39369 0.867936 3.77287C0.870382 1.9918 2.10649 0.748973 3.8851 0.761817C4.48206 0.766099 5.09736 0.753866 5.67106 0.889036C6.68882 1.12941 7.3298 1.83523 7.63929 2.82974C7.69923 3.02301 7.77691 3.11659 7.98914 3.17409C9.18671 3.49886 10.0271 4.61814 10.0424 5.86709C10.0448 6.06832 10.0424 6.26954 10.0424 6.4879H4.3738C4.10346 5.05852 4.88023 3.58327 6.5041 3.12271C6.35731 2.48478 5.72917 1.94654 5.06983 1.9233C4.57135 1.90556 4.07104 1.90373 3.57256 1.9233C2.71322 1.95694 2.02208 2.74594 2.01841 3.69214C2.01229 5.32274 2.01658 6.95396 2.01658 8.58456C2.01658 8.69588 2.01658 8.8072 2.01658 8.9442H0.880168L0.881391 8.94481Z" fill="black"/>
<path d="M10.0241 12.4321C9.90425 12.4321 9.81434 12.4321 9.72443 12.4321C6.81185 12.4321 3.89866 12.4327 0.986075 12.4315C0.359155 12.4315 -0.0916165 12.1348 -0.250029 11.6284C-0.488564 10.8663 0.0515049 10.1323 0.874759 10.1213C1.75061 10.1097 2.62647 10.1183 3.50232 10.1183C5.55984 10.1183 7.61675 10.1183 9.67428 10.1183C9.78437 10.1183 9.89446 10.1183 10.0241 10.1183V12.4315V12.4321Z" fill="black"/>
<path d="M14.6156 14.1452H11.207C11.2015 14.0375 11.1923 13.9397 11.1923 13.8418C11.1911 12.6608 11.1911 11.4791 11.1923 10.298C11.1929 9.44359 11.6596 8.97386 12.5104 8.97019C12.826 8.96897 13.1416 8.96224 13.4572 8.97202C14.1661 8.99465 14.6291 9.47111 14.6309 10.1818C14.6346 11.4143 14.6321 12.6461 14.6309 13.8785C14.6309 13.9586 14.6223 14.0382 14.6156 14.1452Z" fill="black"/>
<path d="M15.7887 12.4222V10.1194C16.3428 10.1194 16.889 10.1176 17.4346 10.1201C17.719 10.1213 18.0095 10.098 18.2878 10.1439C18.8952 10.2442 19.2903 10.7415 19.2652 11.3219C19.2407 11.8913 18.8205 12.38 18.2242 12.4112C17.4242 12.4534 16.6205 12.4216 15.7893 12.4216L15.7887 12.4222Z" fill="black"/>
</g>
</g>
<defs>
<clipPath id="clip0_4169_2544">
<rect width="18.625" height="18.625" fill="white" transform="translate(0.625 0.761719)"/>
</clipPath>
<clipPath id="clip1_4169_2544">
<rect width="19.5722" height="19.5562" fill="white" transform="translate(-0.306396 0.761719)"/>
</clipPath>
</defs>
</svg>
