<svg width="20" height="19" viewBox="0 0 20 19" fill="none" xmlns="http://www.w3.org/2000/svg">
<g clip-path="url(#clip0_4169_2463)">
<path d="M18.7836 9.35878L16.1376 7.17266V2.80626C16.1376 2.70589 16.0977 2.60964 16.0267 2.53867C15.9557 2.4677 15.8595 2.42783 15.7591 2.42783H13.9893C13.9387 2.42668 13.8884 2.43559 13.8413 2.45405C13.7943 2.47251 13.7513 2.50015 13.715 2.53537C13.6787 2.57059 13.6498 2.61267 13.6299 2.65918C13.61 2.70569 13.5996 2.75568 13.5992 2.80626V5.10299L10.7698 2.77424C10.4976 2.55122 10.1567 2.42935 9.80481 2.42935C9.45296 2.42935 9.11197 2.55122 8.83983 2.77424L0.8464 9.35878C0.80743 9.38987 0.775042 9.42841 0.751123 9.47215C0.727204 9.51588 0.712234 9.56395 0.707086 9.61353C0.701938 9.66312 0.706714 9.71323 0.721137 9.76095C0.73556 9.80867 0.759341 9.85304 0.791092 9.89148L1.59742 10.8725C1.66206 10.9496 1.75437 10.9983 1.85452 11.0081C1.95468 11.0179 2.05468 10.988 2.13303 10.9249L9.57048 4.81189C9.63886 4.75659 9.72414 4.72643 9.81209 4.72643C9.90003 4.72643 9.98531 4.75659 10.0537 4.81189L17.4941 10.9249C17.5721 10.9887 17.6723 11.0191 17.7727 11.0093C17.8731 10.9994 17.9655 10.9503 18.0297 10.8725L18.8389 9.89148C18.8708 9.85323 18.8948 9.80901 18.9095 9.76139C18.9241 9.71378 18.9292 9.66373 18.9243 9.61415C18.9194 9.56457 18.9047 9.51646 18.8811 9.47262C18.8574 9.42878 18.8253 9.39008 18.7865 9.35878H18.7836Z" fill="black"/>
<path d="M10.0566 6.09132C9.98823 6.03603 9.90295 6.00586 9.81501 6.00586C9.72707 6.00586 9.64178 6.03603 9.5734 6.09132L3.75153 10.8944V16.0758C3.75153 16.1424 3.76463 16.2082 3.79008 16.2697C3.81554 16.3311 3.85284 16.387 3.89988 16.434C3.94691 16.481 4.00275 16.5183 4.0642 16.5438C4.12565 16.5692 4.19151 16.5823 4.25803 16.5823H5.27395V12.7195C5.27395 12.4972 5.36227 12.2839 5.51949 12.1267C5.67671 11.9695 5.88995 11.8812 6.1123 11.8812H8.62152C8.84387 11.8812 9.05711 11.9695 9.21433 12.1267C9.37155 12.2839 9.45987 12.4972 9.45987 12.7195V16.5823H15.3807C15.5151 16.5823 15.6439 16.529 15.7389 16.434C15.8339 16.339 15.8872 16.2102 15.8872 16.0758V10.8915L10.0566 6.09132ZM14.423 13.9509C14.4238 14.0811 14.3732 14.2064 14.2822 14.2996C14.1912 14.3928 14.0671 14.4463 13.9369 14.4486H11.5383C11.407 14.4486 11.2812 14.3965 11.1884 14.3037C11.0956 14.2109 11.0434 14.085 11.0434 13.9538V12.28C11.0434 12.215 11.0562 12.1506 11.0811 12.0906C11.106 12.0306 11.1424 11.976 11.1884 11.9301C11.2343 11.8841 11.2889 11.8477 11.3489 11.8228C11.4089 11.7979 11.4733 11.7851 11.5383 11.7851H13.9369C14.0676 11.7859 14.1928 11.8384 14.2849 11.9311C14.3771 12.0238 14.4288 12.1492 14.4288 12.28L14.423 13.9509Z" fill="black"/>
</g>
<defs>
<clipPath id="clip0_4169_2463">
<rect width="18.63" height="18.63" fill="white" transform="translate(0.5 0.185547)"/>
</clipPath>
</defs>
</svg>
