<svg width="16" height="17" viewBox="0 0 16 17" fill="none" xmlns="http://www.w3.org/2000/svg">
<path d="M15.3513 7.99351H8.86481C8.82939 7.99356 8.7945 7.98491 8.76321 7.96832C8.73192 7.95174 8.70518 7.92771 8.68535 7.89837C8.66562 7.86916 8.65334 7.83556 8.64958 7.80052C8.64581 7.76547 8.65066 7.73003 8.66372 7.69729L11.0421 1.65405C11.0526 1.62762 11.0682 1.60353 11.088 1.58314C11.1078 1.56275 11.1314 1.54646 11.1575 1.53522C11.1836 1.52397 11.2117 1.51798 11.2401 1.5176C11.2686 1.51721 11.2968 1.52243 11.3232 1.53297C12.578 2.02415 13.6549 2.8834 14.4124 3.99784C15.1699 5.11228 15.5725 6.42979 15.5675 7.77729C15.5675 7.83463 15.5447 7.88963 15.5042 7.93018C15.4636 7.97073 15.4086 7.99351 15.3513 7.99351ZM9.18264 7.56107H15.1351C15.101 6.37217 14.728 5.21773 14.06 4.23367C13.392 3.24961 12.4567 2.47689 11.3643 2.00648L9.18264 7.56107ZM7.13508 8.85837H7.09399C7.04402 8.84871 6.99906 8.82173 6.96703 8.78218C6.93499 8.74263 6.91793 8.69304 6.91886 8.64216V2.15567C6.91886 2.09832 6.94164 2.04333 6.98219 2.00278C7.02274 1.96223 7.07773 1.93945 7.13508 1.93945C7.97559 1.93267 8.80978 2.08527 9.59345 2.38918C9.64629 2.41037 9.68864 2.45154 9.7113 2.50376C9.73397 2.55598 9.73513 2.61503 9.71453 2.6681L7.33616 8.72216C7.32013 8.76239 7.2924 8.79688 7.25655 8.82116C7.2207 8.84545 7.17838 8.85841 7.13508 8.85837ZM7.35129 2.37188V7.49188L9.23237 2.71567C8.62768 2.49948 7.99311 2.3784 7.35129 2.35675V2.37188Z" fill="black"/>
<path d="M7.13516 15.3448C5.35491 15.3448 3.64758 14.6376 2.38876 13.3788C1.12993 12.1199 0.422729 10.4126 0.422729 8.63235C0.422729 6.85211 1.12993 5.14477 2.38876 3.88595C3.64758 2.62712 5.35491 1.91992 7.13516 1.91992C7.19251 1.91992 7.2475 1.9427 7.28805 1.98325C7.3286 2.0238 7.35138 2.07879 7.35138 2.13614V8.42587H13.6216C13.679 8.42587 13.734 8.44865 13.7745 8.4892C13.8151 8.52974 13.8379 8.58474 13.8379 8.64208C13.8367 10.4098 13.1373 12.1054 11.8919 13.3599L11.8681 13.388L11.84 13.4118C10.5883 14.6519 8.89711 15.3467 7.13516 15.3448ZM6.91895 2.35668C5.9083 2.39389 4.92166 2.675 4.04317 3.17605C3.16468 3.67709 2.42042 4.38319 1.87388 5.23411C1.32734 6.08503 0.994726 7.05553 0.904423 8.06282C0.81412 9.07011 0.968803 10.0843 1.35528 11.0189C1.74175 11.9534 2.34855 12.7807 3.12391 13.43C3.89927 14.0793 4.82018 14.5314 5.80809 14.7478C6.796 14.9642 7.82158 14.9384 8.79737 14.6726C9.77315 14.4068 10.6702 13.909 11.4119 13.2215L6.98165 8.78479C6.95609 8.75884 6.93749 8.72686 6.92759 8.69181C6.92655 8.6832 6.92655 8.67449 6.92759 8.66587C6.9239 8.65826 6.921 8.65029 6.91895 8.64208V2.35668ZM7.65624 8.84316L11.7168 12.908C12.7505 11.8065 13.3504 10.3679 13.4054 8.8583L7.65624 8.84316Z" fill="black"/>
</svg>
