<svg width="19" height="19" viewBox="0 0 19 19" fill="none" xmlns="http://www.w3.org/2000/svg">
<path d="M9.28125 5.97363C8.36302 5.97363 7.61865 6.718 7.61865 7.63623C7.61865 8.55446 8.36302 9.29883 9.28125 9.29883C10.1995 9.29883 10.9438 8.55446 10.9438 7.63623C10.9438 6.718 10.1995 5.97363 9.28125 5.97363Z" fill="#139ED5"/>
<path fill-rule="evenodd" clip-rule="evenodd" d="M1.52246 4.03394C1.52246 3.26875 2.14277 2.64844 2.90796 2.64844H15.6545C16.4197 2.64844 17.04 3.26875 17.04 4.03394V11.2385C17.04 12.0037 16.4197 12.624 15.6545 12.624H2.90796C2.14277 12.624 1.52246 12.0037 1.52246 11.2385V4.03394ZM6.51025 7.63623C6.51025 6.10585 7.75087 4.86523 9.28125 4.86523C10.8116 4.86523 12.0522 6.10585 12.0522 7.63623C12.0522 9.16661 10.8116 10.4072 9.28125 10.4072C7.75087 10.4072 6.51025 9.16661 6.51025 7.63623ZM14.269 7.08203C13.963 7.08203 13.7148 7.33015 13.7148 7.63623V7.64177C13.7148 7.94785 13.963 8.19597 14.269 8.19597H14.2746C14.5807 8.19597 14.8288 7.94785 14.8288 7.64177V7.63623C14.8288 7.33015 14.5807 7.08203 14.2746 7.08203H14.269ZM3.73926 7.63623C3.73926 7.33015 3.98738 7.08203 4.29346 7.08203H4.299C4.60508 7.08203 4.8532 7.33015 4.8532 7.63623V7.64177C4.8532 7.94785 4.60508 8.19597 4.299 8.19597H4.29346C3.98738 8.19597 3.73926 7.94785 3.73926 7.64177V7.63623Z" fill="#139ED5"/>
<path d="M2.07666 13.7324C1.77058 13.7324 1.52246 13.9805 1.52246 14.2866C1.52246 14.5927 1.77058 14.8408 2.07666 14.8408C6.06693 14.8408 9.93168 15.3745 13.6038 16.374C14.4836 16.6135 15.3774 15.9616 15.3774 15.0293V14.2866C15.3774 13.9805 15.1293 13.7324 14.8232 13.7324H2.07666Z" fill="#139ED5"/>
</svg>
