<svg width="572" height="17" viewBox="0 0 572 17" fill="none" xmlns="http://www.w3.org/2000/svg">
<line y1="8.5" x2="421" y2="8.5" stroke="#CDCCDC" stroke-opacity="0.866667" stroke-width="3"/>
<line y1="8.5" x2="187.111" y2="8.5" stroke="#139ED5" stroke-width="3"/>
<rect x="186.052" y="5.5" width="6" height="6" rx="1.5" fill="#139ED5" stroke="#139ED5"/>
<path d="M476.432 14V11.136H471.64V9.464L476.032 2.8H478.096V9.472H479.12V11.136H478.096V14H476.432ZM473.576 9.464L476.432 9.472L476.416 5.096L473.576 9.464ZM485.622 2.8L482.382 14.896H480.718L483.958 2.8H485.622ZM488.242 14V4.464H486.906L487.362 2.8H489.906V14H488.242ZM496.012 14.208C495.35 14.208 494.753 14.0587 494.22 13.76C493.692 13.456 493.236 13.0373 492.852 12.504C492.468 11.9707 492.174 11.3547 491.972 10.656C491.769 9.952 491.668 9.2 491.668 8.4C491.668 7.6 491.769 6.848 491.972 6.144C492.174 5.44 492.468 4.824 492.852 4.296C493.236 3.76267 493.692 3.34667 494.22 3.048C494.753 2.744 495.35 2.592 496.012 2.592C496.662 2.592 497.254 2.744 497.788 3.048C498.321 3.34667 498.774 3.76267 499.148 4.296C499.526 4.824 499.817 5.44 500.02 6.144C500.222 6.848 500.324 7.6 500.324 8.4C500.324 9.2 500.222 9.952 500.02 10.656C499.817 11.3547 499.526 11.9707 499.148 12.504C498.774 13.0373 498.321 13.456 497.788 13.76C497.254 14.0587 496.662 14.208 496.012 14.208ZM496.012 12.544C496.625 12.544 497.134 12.352 497.54 11.968C497.95 11.5787 498.257 11.0693 498.46 10.44C498.662 9.81067 498.764 9.13067 498.764 8.4C498.764 7.632 498.657 6.936 498.444 6.312C498.236 5.68267 497.926 5.184 497.516 4.816C497.11 4.44267 496.609 4.256 496.012 4.256C495.537 4.256 495.124 4.368 494.772 4.592C494.425 4.816 494.137 5.12267 493.908 5.512C493.684 5.90133 493.513 6.344 493.396 6.84C493.284 7.336 493.228 7.856 493.228 8.4C493.228 9.13067 493.332 9.81067 493.539 10.44C493.748 11.0693 494.057 11.5787 494.468 11.968C494.884 12.352 495.398 12.544 496.012 12.544ZM505.601 14V2.8H512.201V4.464H507.265V7.168H511.433V8.832H507.265V14H505.601ZM512.976 14V6H514.64V6.848C514.917 6.51733 515.258 6.256 515.664 6.064C516.069 5.872 516.506 5.776 516.976 5.776C517.274 5.776 517.57 5.816 517.864 5.896L517.2 7.576C516.992 7.496 516.784 7.456 516.576 7.456C516.224 7.456 515.901 7.544 515.608 7.72C515.314 7.89067 515.08 8.12267 514.904 8.416C514.728 8.70933 514.64 9.03467 514.64 9.392V14H512.976ZM524.637 6H526.301V14H524.629L524.565 12.84C524.33 13.2507 524.013 13.5813 523.613 13.832C523.213 14.0827 522.741 14.208 522.197 14.208C521.61 14.208 521.058 14.0987 520.541 13.88C520.024 13.656 519.568 13.3467 519.173 12.952C518.784 12.5573 518.48 12.104 518.261 11.592C518.042 11.0747 517.933 10.52 517.933 9.928C517.933 9.35733 518.04 8.82133 518.253 8.32C518.466 7.81333 518.762 7.37067 519.141 6.992C519.52 6.61333 519.957 6.31733 520.453 6.104C520.954 5.88533 521.49 5.776 522.061 5.776C522.642 5.776 523.154 5.90933 523.597 6.176C524.045 6.43733 524.416 6.77333 524.709 7.184L524.637 6ZM522.157 12.6C522.626 12.6 523.037 12.4853 523.389 12.256C523.741 12.0213 524.013 11.7067 524.205 11.312C524.402 10.9173 524.501 10.48 524.501 10C524.501 9.51467 524.402 9.07467 524.205 8.68C524.008 8.28533 523.733 7.97333 523.381 7.744C523.034 7.50933 522.626 7.392 522.157 7.392C521.693 7.392 521.269 7.50933 520.885 7.744C520.501 7.97867 520.197 8.29333 519.973 8.688C519.749 9.08267 519.637 9.52 519.637 10C519.637 10.4853 519.752 10.9253 519.981 11.32C520.216 11.7093 520.522 12.0213 520.901 12.256C521.285 12.4853 521.704 12.6 522.157 12.6ZM532.965 11.728L534.453 12.536C534.091 13.0427 533.629 13.448 533.069 13.752C532.515 14.056 531.912 14.208 531.261 14.208C530.525 14.208 529.853 14.0187 529.245 13.64C528.643 13.2613 528.16 12.7547 527.797 12.12C527.44 11.48 527.261 10.7733 527.261 10C527.261 9.41333 527.365 8.86667 527.573 8.36C527.781 7.848 528.067 7.4 528.429 7.016C528.797 6.62667 529.224 6.32267 529.709 6.104C530.195 5.88533 530.712 5.776 531.261 5.776C531.912 5.776 532.515 5.928 533.069 6.232C533.629 6.536 534.091 6.944 534.453 7.456L532.965 8.264C532.741 7.99733 532.48 7.79467 532.181 7.656C531.883 7.512 531.576 7.44 531.261 7.44C530.824 7.44 530.427 7.56 530.069 7.8C529.717 8.03467 529.437 8.34667 529.229 8.736C529.027 9.12 528.925 9.54133 528.925 10C528.925 10.4533 529.029 10.8747 529.237 11.264C529.445 11.648 529.725 11.9573 530.077 12.192C530.435 12.4267 530.829 12.544 531.261 12.544C531.592 12.544 531.907 12.4693 532.205 12.32C532.504 12.1707 532.757 11.9733 532.965 11.728ZM540.122 7.664H538.442L538.434 14H536.77L536.778 7.664H535.506V6H536.778L536.77 3.488H538.434L538.442 6H540.122V7.664ZM541.444 6H543.108V14H541.444V6ZM542.292 4.84C542.036 4.84 541.823 4.75733 541.652 4.592C541.482 4.42667 541.396 4.21867 541.396 3.968C541.396 3.72267 541.482 3.51733 541.652 3.352C541.823 3.18133 542.034 3.096 542.284 3.096C542.53 3.096 542.738 3.18133 542.908 3.352C543.079 3.51733 543.164 3.72267 543.164 3.968C543.164 4.21867 543.079 4.42667 542.908 4.592C542.743 4.75733 542.538 4.84 542.292 4.84ZM548.402 14.208C547.666 14.208 546.994 14.0187 546.386 13.64C545.783 13.2613 545.301 12.7547 544.938 12.12C544.581 11.48 544.402 10.7733 544.402 10C544.402 9.41333 544.506 8.86667 544.714 8.36C544.922 7.848 545.207 7.4 545.57 7.016C545.938 6.62667 546.365 6.32267 546.85 6.104C547.335 5.88533 547.853 5.776 548.402 5.776C549.138 5.776 549.807 5.96533 550.41 6.344C551.018 6.72267 551.501 7.232 551.858 7.872C552.221 8.512 552.402 9.22133 552.402 10C552.402 10.5813 552.298 11.1253 552.09 11.632C551.882 12.1387 551.594 12.5867 551.226 12.976C550.863 13.36 550.439 13.6613 549.954 13.88C549.474 14.0987 548.957 14.208 548.402 14.208ZM548.402 12.544C548.845 12.544 549.242 12.4267 549.594 12.192C549.946 11.9573 550.223 11.648 550.426 11.264C550.634 10.8747 550.738 10.4533 550.738 10C550.738 9.536 550.631 9.10933 550.418 8.72C550.21 8.33067 549.93 8.02133 549.578 7.792C549.226 7.55733 548.834 7.44 548.402 7.44C547.965 7.44 547.567 7.55733 547.21 7.792C546.858 8.02667 546.578 8.33867 546.37 8.728C546.167 9.11733 546.066 9.54133 546.066 10C546.066 10.4747 546.173 10.904 546.386 11.288C546.599 11.672 546.882 11.9787 547.234 12.208C547.591 12.432 547.981 12.544 548.402 12.544ZM560.894 8.984V14H559.23V9.392C559.23 9.03467 559.142 8.70933 558.966 8.416C558.796 8.12267 558.564 7.89067 558.27 7.72C557.982 7.544 557.657 7.456 557.294 7.456C556.942 7.456 556.62 7.544 556.326 7.72C556.033 7.89067 555.798 8.12267 555.622 8.416C555.446 8.70933 555.358 9.03467 555.358 9.392V14H553.694V6H555.358V6.848C555.636 6.51733 555.977 6.256 556.382 6.064C556.788 5.872 557.225 5.776 557.694 5.776C558.286 5.776 558.825 5.92 559.31 6.208C559.796 6.496 560.18 6.88267 560.462 7.368C560.75 7.85333 560.894 8.392 560.894 8.984ZM564.891 14.152C564.47 14.1253 564.059 14.04 563.659 13.896C563.259 13.752 562.907 13.5573 562.603 13.312C562.305 13.0613 562.081 12.768 561.931 12.432L563.347 11.824C563.417 11.968 563.537 12.1093 563.707 12.248C563.883 12.3867 564.089 12.5013 564.323 12.592C564.558 12.6773 564.803 12.72 565.059 12.72C565.31 12.72 565.542 12.6853 565.755 12.616C565.974 12.5413 566.153 12.4293 566.291 12.28C566.43 12.1307 566.499 11.952 566.499 11.744C566.499 11.5093 566.419 11.328 566.259 11.2C566.105 11.0667 565.91 10.9653 565.675 10.896C565.441 10.8267 565.206 10.76 564.971 10.696C564.449 10.5787 563.969 10.4187 563.531 10.216C563.099 10.008 562.755 9.744 562.499 9.424C562.243 9.09867 562.115 8.70133 562.115 8.232C562.115 7.72 562.254 7.27733 562.531 6.904C562.809 6.52533 563.171 6.23467 563.619 6.032C564.073 5.82933 564.555 5.728 565.067 5.728C565.707 5.728 566.294 5.864 566.827 6.136C567.361 6.408 567.769 6.78133 568.051 7.256L566.731 8.04C566.651 7.88 566.531 7.736 566.371 7.608C566.211 7.48 566.03 7.37867 565.827 7.304C565.625 7.224 565.414 7.17867 565.195 7.168C564.923 7.15733 564.67 7.18933 564.435 7.264C564.206 7.33333 564.022 7.44533 563.883 7.6C563.745 7.75467 563.675 7.952 563.675 8.192C563.675 8.42667 563.758 8.60267 563.923 8.72C564.089 8.832 564.297 8.92267 564.547 8.992C564.803 9.06133 565.065 9.13867 565.331 9.224C565.806 9.37333 566.251 9.55733 566.667 9.776C567.083 9.98933 567.419 10.2533 567.675 10.568C567.931 10.8827 568.054 11.2667 568.043 11.72C568.043 12.2213 567.891 12.6613 567.587 13.04C567.289 13.4187 566.899 13.7067 566.419 13.904C565.939 14.1013 565.43 14.184 564.891 14.152Z" fill="black"/>
</svg>
