<svg width="19" height="19" viewBox="0 0 19 19" fill="none" xmlns="http://www.w3.org/2000/svg">
<g clip-path="url(#clip0_6844_1884)">
<path d="M1.37852 2.75781H17.118C17.7402 2.75781 18.2465 3.26406 18.2465 3.88633C18.2465 4.50859 17.7402 5.01484 17.118 5.01484H1.37852C0.75625 5.01836 0.25 4.51211 0.25 3.88633C0.25 3.26406 0.75625 2.75781 1.37852 2.75781Z" fill="white"/>
<path d="M1.37852 8.37305H11.4227C12.0449 8.37305 12.5512 8.8793 12.5512 9.50156C12.5512 10.1238 12.0449 10.6301 11.4227 10.6301H1.37852C0.75625 10.6301 0.25 10.1238 0.25 9.50156C0.25 8.8793 0.75625 8.37305 1.37852 8.37305Z" fill="white"/>
<path d="M1.37852 13.9824H5.72734C6.34961 13.9824 6.85586 14.4887 6.85586 15.1109C6.85586 15.7332 6.34961 16.2395 5.72734 16.2395H1.37852C0.75625 16.243 0.25 15.7367 0.25 15.1145C0.25 14.4887 0.75625 13.9824 1.37852 13.9824Z" fill="white"/>
</g>
<defs>
<clipPath id="clip0_6844_1884">
<rect width="18" height="18" fill="white" transform="translate(0.25 0.5)"/>
</clipPath>
</defs>
</svg>
