<svg width="17" height="16" viewBox="0 0 17 16" fill="none" xmlns="http://www.w3.org/2000/svg">
<path d="M8.50065 1.33301C4.82732 1.33301 1.83398 4.32634 1.83398 7.99967C1.83398 11.673 4.82732 14.6663 8.50065 14.6663C12.174 14.6663 15.1673 11.673 15.1673 7.99967C15.1673 4.32634 12.174 1.33301 8.50065 1.33301ZM11.6873 6.46634L7.90732 10.2463C7.81398 10.3397 7.68732 10.393 7.55398 10.393C7.42065 10.393 7.29398 10.3397 7.20065 10.2463L5.31398 8.35967C5.12065 8.16634 5.12065 7.84634 5.31398 7.65301C5.50732 7.45967 5.82732 7.45967 6.02065 7.65301L7.55398 9.18634L10.9807 5.75968C11.174 5.56634 11.494 5.56634 11.6873 5.75968C11.8807 5.95301 11.8807 6.26634 11.6873 6.46634Z" fill="#139ED5"/>
</svg>
