<svg width="76" height="81" viewBox="0 0 76 81" fill="none" xmlns="http://www.w3.org/2000/svg">
<g clip-path="url(#clip0_4195_3436)">
<path d="M27.4292 35.6554V16.4588L19.3875 11.6261V31.1915L8.90797 24.8932V5.32788L0.871094 0.5V29.3667L8.90797 34.1993L19.3779 40.4928H19.3875V40.4976H19.3779L8.90797 46.7815L0.871094 51.619V80.4904L0.880673 80.5048L8.90797 75.6769L19.3875 69.3786L27.4292 64.546L33.9813 60.609L42.023 55.7763V29.7115L48.4554 25.8463L56.4922 21.0185L67.0915 14.6436V24.3999L56.4922 30.7748L48.4554 35.6027V64.4693L56.4922 69.302L67.0915 75.6721L75.1284 80.5048V52.7445L67.0915 47.9166L56.4922 41.5417L55.2757 40.8137L56.4922 40.0857L67.0915 33.7108L75.1284 28.8829V0.5L67.0915 5.32788L56.4922 11.7028L48.4554 16.5354L42.023 20.4006L33.9813 25.2381V51.2981L27.4292 55.2351L19.3875 60.0725L8.90797 66.3708V56.0972L19.3875 49.7989L27.1179 45.1483L27.4244 44.9663V35.6602L27.4292 35.6554ZM67.0915 57.2132V66.3612L56.4922 59.9863V50.8383L67.0915 57.2132Z" fill="#139ED5"/>
</g>
<defs>
<clipPath id="clip0_4195_3436">
<rect width="74.2573" height="80" fill="white" transform="translate(0.871094 0.5)"/>
</clipPath>
</defs>
</svg>
