<svg width="100" height="100" viewBox="0 0 100 100" fill="none" xmlns="http://www.w3.org/2000/svg">
<circle cx="50" cy="50" r="50" fill="#139ED5" fill-opacity="0.15"/>
<g clip-path="url(#clip0_4169_1107)">
<path d="M64.2939 43.2324L50.7598 56.7676L50 57.5273L45.9258 61.6006L41.0918 56.7676L35.7061 51.3809L40.54 46.5469L45.9258 51.9336L50 47.8594L59.46 38.3994L64.2939 43.2324Z" fill="#139ED5"/>
<path d="M50 25C36.1934 25 25 36.1934 25 50C25 63.8066 36.1934 75 50 75C63.8066 75 75 63.8066 75 50C75 36.1934 63.8066 25 50 25ZM50 73.249C37.1807 73.249 26.751 62.8193 26.751 50C26.751 37.1807 37.1807 26.751 50 26.751C62.8193 26.751 73.249 37.1807 73.249 50C73.249 62.8193 62.8193 73.249 50 73.249Z" fill="#139ED5"/>
</g>
<defs>
<clipPath id="clip0_4169_1107">
<rect width="50" height="50" fill="white" transform="translate(25 25)"/>
</clipPath>
</defs>
</svg>
