<svg width="76" height="81" viewBox="0 0 76 81" fill="none" xmlns="http://www.w3.org/2000/svg">
<path d="M27.4294 35.6554V16.4588L19.3878 11.6261V31.1915L8.90822 24.8932V5.32788L0.871338 0.5V29.3667L8.90822 34.1993L19.3782 40.4928H19.3878V40.4976H19.3782L8.90822 46.7815L0.871338 51.619V80.4904L0.880917 80.5048L8.90822 75.6769L19.3878 69.3786L27.4294 64.546L33.9816 60.609L42.0232 55.7763V29.7115L48.4556 25.8463L56.4925 21.0185L67.0918 14.6436V24.3999L56.4925 30.7748L48.4556 35.6027V64.4693L56.4925 69.302L67.0918 75.6721L75.1287 80.5048V52.7445L67.0918 47.9166L56.4925 41.5417L55.2759 40.8137L56.4925 40.0857L67.0918 33.7108L75.1287 28.8829V0.5L67.0918 5.32788L56.4925 11.7028L48.4556 16.5354L42.0232 20.4006L33.9816 25.2381V51.2981L27.4294 55.2351L19.3878 60.0725L8.90822 66.3708V56.0972L19.3878 49.7989L27.1181 45.1483L27.4247 44.9663V35.6602L27.4294 35.6554ZM67.0918 57.2132V66.3612L56.4925 59.9863V50.8383L67.0918 57.2132Z" fill="#139ED5"/>
</svg>
