<svg width="40" height="40" viewBox="0 0 40 40" fill="none" xmlns="http://www.w3.org/2000/svg">
<rect width="40" height="40" rx="8" fill="#139ED5"/>
<path d="M19.25 12.5H17.75C14 12.5 12.5 14 12.5 17.75V22.25C12.5 26 14 27.5 17.75 27.5H22.25C26 27.5 27.5 26 27.5 22.25V20.75" stroke="white" stroke-linecap="round" stroke-linejoin="round"/>
<path d="M23.0284 13.264L17.1184 19.174C16.8934 19.399 16.6684 19.8415 16.6234 20.164L16.3009 22.4215C16.1809 23.239 16.7584 23.809 17.5759 23.6965L19.8334 23.374C20.1484 23.329 20.5909 23.104 20.8234 22.879L26.7334 16.969C27.7534 15.949 28.2334 14.764 26.7334 13.264C25.2334 11.764 24.0484 12.244 23.0284 13.264Z" stroke="white" stroke-miterlimit="10" stroke-linecap="round" stroke-linejoin="round"/>
<path d="M22.1836 14.1133C22.6861 15.9058 24.0886 17.3083 25.8886 17.8183" stroke="white" stroke-miterlimit="10" stroke-linecap="round" stroke-linejoin="round"/>
</svg>
