<svg width="17" height="16" viewBox="0 0 17 16" fill="none" xmlns="http://www.w3.org/2000/svg">
<path d="M11.1663 8.60065V11.4007C11.1663 13.734 10.233 14.6673 7.89967 14.6673H5.09967C2.76634 14.6673 1.83301 13.734 1.83301 11.4007V8.60065C1.83301 6.26732 2.76634 5.33398 5.09967 5.33398H7.89967C10.233 5.33398 11.1663 6.26732 11.1663 8.60065Z" stroke="white" stroke-linecap="round" stroke-linejoin="round"/>
<path d="M15.1663 4.60065V7.40065C15.1663 9.73398 14.233 10.6673 11.8997 10.6673H11.1663V8.60065C11.1663 6.26732 10.233 5.33398 7.89967 5.33398H5.83301V4.60065C5.83301 2.26732 6.76634 1.33398 9.09967 1.33398H11.8997C14.233 1.33398 15.1663 2.26732 15.1663 4.60065Z" stroke="white" stroke-linecap="round" stroke-linejoin="round"/>
</svg>
