<svg width="51" height="55" viewBox="0 0 51 55" fill="none" xmlns="http://www.w3.org/2000/svg">
<g clip-path="url(#clip0_1660_3180)">
<path d="M18.2401 24.1693V10.9717L12.7171 7.64922V21.1004L5.51974 16.7703V3.31916L0 0V19.8458L5.51974 23.1683L12.7105 27.4951H12.7171V27.4984H12.7105L5.51974 31.8185L0 35.1443V54.9934L0.00657895 55.0033L5.51974 51.6841L12.7171 47.3541L18.2401 44.0316L22.7401 41.3249L28.2632 38.0025V20.0829L32.6809 17.4256L38.2007 14.1064L45.4803 9.7237V16.4312L38.2007 20.8139L32.6809 24.1331V43.9789L38.2007 47.3014L45.4803 51.6808L51 55.0033V35.9181L45.4803 32.5989L38.2007 28.2162L37.3651 27.7157L38.2007 27.2152L45.4803 22.8324L51 19.5133V0L45.4803 3.31916L38.2007 7.70191L32.6809 11.0244L28.2632 13.6817L22.7401 17.0074V34.9237L18.2401 37.6304L12.7171 40.9561L5.51974 45.2862V38.2231L12.7171 33.893L18.0263 30.6957L18.2368 30.5706V24.1726L18.2401 24.1693ZM45.4803 38.9903V45.2796L38.2007 40.8968V34.6076L45.4803 38.9903Z" fill="white"/>
</g>
<defs>
<clipPath id="clip0_1660_3180">
<rect width="51" height="55" fill="white"/>
</clipPath>
</defs>
</svg>
