<svg width="19" height="25" viewBox="0 0 19 25" fill="none" xmlns="http://www.w3.org/2000/svg">
<path fill-rule="evenodd" clip-rule="evenodd" d="M9.17395 2.54492C12.1327 2.54492 14.5256 5.67492 14.5256 9.54492C14.5256 14.7949 9.17395 22.5449 9.17395 22.5449C9.17395 22.5449 3.82227 14.7949 3.82227 9.54492C3.82227 5.67492 6.21523 2.54492 9.17395 2.54492ZM5.35132 9.54492C5.35132 12.3949 7.58373 16.7549 9.17395 19.4249C10.7947 16.7349 12.9966 12.4249 12.9966 9.54492C12.9966 6.78492 11.284 4.54492 9.17395 4.54492C7.06386 4.54492 5.35132 6.78492 5.35132 9.54492ZM9.17395 12.0449C8.11836 12.0449 7.26263 10.9256 7.26263 9.54492C7.26263 8.16421 8.11836 7.04492 9.17395 7.04492C10.2295 7.04492 11.0853 8.16421 11.0853 9.54492C11.0853 10.9256 10.2295 12.0449 9.17395 12.0449Z" fill="white"/>
</svg>
