<svg width="15" height="15" viewBox="0 0 15 15" fill="none" xmlns="http://www.w3.org/2000/svg">
<g clip-path="url(#clip0_5297_1254)">
<g clip-path="url(#clip1_5297_1254)">
<path d="M0.270933 10.2715H7.45642V11.5918H11.9481V10.2744H13.7326C13.8482 11.8445 13.8573 13.2425 12.2469 14.3081C12.2272 14.321 12.2114 14.3388 12.1678 14.3776C12.3658 14.5421 12.561 14.7047 12.7543 14.8653C12.4934 15.1147 12.2838 15.3152 12.0436 15.5454C11.8316 15.3267 11.6024 15.073 11.3525 14.8418C11.2791 14.7737 11.1492 14.7459 11.0427 14.7392C10.8686 14.7287 10.6921 14.757 10.5166 14.7574C8.18346 14.7589 5.85032 14.7584 3.5167 14.7584C3.40496 14.7584 3.28555 14.78 3.18244 14.7488C2.87119 14.6553 2.67361 14.7996 2.48849 15.0226C2.33071 15.2126 2.15087 15.3838 1.98638 15.5574C1.76433 15.3238 1.56339 15.1128 1.34087 14.8783C1.49002 14.7464 1.67945 14.5786 1.89238 14.3896C1.74563 14.2846 1.63581 14.2117 1.53174 14.1311C0.751948 13.5302 0.330401 12.7331 0.275249 11.7543C0.247914 11.2695 0.270454 10.7818 0.270454 10.2715H0.270933Z" fill="#323232"/>
<path d="M0.275192 6.63898C0.271355 6.55218 0.264641 6.47401 0.264641 6.39584C0.264162 5.12496 0.262723 3.85456 0.264641 2.58369C0.26656 1.18716 1.23578 0.212662 2.63039 0.222734C3.09846 0.226091 3.58091 0.216499 4.03075 0.322485C4.82877 0.510959 5.33136 1.06439 5.57403 1.84418C5.62103 1.99573 5.68193 2.0691 5.84834 2.11418C6.78735 2.36884 7.44629 3.24646 7.45828 4.22575C7.4602 4.38353 7.45828 4.54132 7.45828 4.71252H3.01357C2.8016 3.59175 3.41066 2.43502 4.68393 2.0739C4.56884 1.5737 4.07631 1.15167 3.55933 1.13345C3.16847 1.11954 2.77618 1.1181 2.38533 1.13345C1.71152 1.15982 1.1696 1.77848 1.16672 2.52038C1.16193 3.79893 1.16529 5.07796 1.16529 6.35651C1.16529 6.44379 1.16529 6.53108 1.16529 6.6385H0.274233L0.275192 6.63898Z" fill="#323232"/>
<path d="M7.44366 9.37424C7.34967 9.37424 7.27917 9.37424 7.20867 9.37424C4.92493 9.37424 2.64071 9.37472 0.35697 9.37376C-0.134596 9.37376 -0.488043 9.14116 -0.612253 8.74407C-0.799288 8.14652 -0.375822 7.57103 0.269687 7.5624C0.95644 7.55329 1.64319 7.56 2.32995 7.56C3.94324 7.56 5.55605 7.56 7.16935 7.56C7.25567 7.56 7.34199 7.56 7.44366 7.56V9.37376V9.37424Z" fill="#323232"/>
<path d="M11.0438 10.7166H8.37112C8.3668 10.6322 8.35961 10.5555 8.35961 10.4787C8.35865 9.55267 8.35865 8.62613 8.35961 7.70007C8.36009 7.0301 8.726 6.66179 9.39309 6.65891C9.64055 6.65795 9.88801 6.65267 10.1355 6.66035C10.6913 6.67809 11.0543 7.05168 11.0558 7.60895C11.0587 8.57529 11.0567 9.54116 11.0558 10.5075C11.0558 10.5703 11.0491 10.6327 11.0438 10.7166Z" fill="#323232"/>
<path d="M11.9639 9.36554V7.55994C12.3984 7.55994 12.8266 7.5585 13.2544 7.56042C13.4774 7.56138 13.7052 7.54315 13.9234 7.57912C14.3996 7.65777 14.7094 8.04767 14.6898 8.50278C14.6706 8.94927 14.3411 9.33245 13.8735 9.35691C13.2463 9.39 12.6161 9.36506 11.9643 9.36506L11.9639 9.36554Z" fill="#323232"/>
</g>
</g>
<defs>
<clipPath id="clip0_5297_1254">
<rect width="14.6038" height="14.6038" fill="white" transform="translate(0.0737305 0.222656)"/>
</clipPath>
<clipPath id="clip1_5297_1254">
<rect width="15.3464" height="15.334" fill="white" transform="translate(-0.65625 0.222656)"/>
</clipPath>
</defs>
</svg>
