<svg width="44" height="44" viewBox="0 0 44 44" fill="none" xmlns="http://www.w3.org/2000/svg">
<rect x="0.5" y="0.5" width="43" height="43" rx="21.5" fill="#1A1A1A"/>
<rect x="0.5" y="0.5" width="43" height="43" rx="21.5" stroke="#FBFAFA"/>
<path fill-rule="evenodd" clip-rule="evenodd" d="M13.6001 21.9992C13.6001 21.5022 14.003 21.0992 14.5001 21.0992L27.2656 21.0992L22.2763 16.348C21.918 16.0035 21.9068 15.4337 22.2513 15.0754C22.5959 14.7171 23.1656 14.706 23.5239 15.0505L30.1239 21.3505C30.3004 21.5202 30.4001 21.7544 30.4001 21.9992C30.4001 22.244 30.3004 22.4783 30.1239 22.648L23.5239 28.948C23.1656 29.2925 22.5959 29.2813 22.2513 28.923C21.9068 28.5647 21.918 27.995 22.2763 27.6505L27.2656 22.8992L14.5001 22.8992C14.003 22.8992 13.6001 22.4963 13.6001 21.9992Z" fill="white"/>
</svg>
