<svg width="24" height="24" viewBox="0 0 24 24" fill="none" xmlns="http://www.w3.org/2000/svg">
<path d="M18 2H6C3.79 2 2 3.79 2 6V18C2 20.21 3.79 22 6 22H18C20.21 22 22 20.21 22 18V6C22 3.79 20.21 2 18 2ZM20 18C20 19.1 19.1 20 18 20H6C4.9 20 4 19.1 4 18V6C4 4.9 4.9 4 6 4H18C19.1 4 20 4.9 20 6V18Z" fill="black"/>
<path d="M15.2905 8.63016L10.6605 13.2602L8.70055 11.3002C8.31055 10.9102 7.68055 10.9102 7.29055 11.3002C6.90055 11.6902 6.90055 12.3202 7.29055 12.7102L9.96055 15.3802C10.1505 15.5702 10.4005 15.6702 10.6705 15.6702C10.9405 15.6702 11.1905 15.5602 11.3805 15.3802L16.7105 10.0502C17.1005 9.66016 17.1005 9.03016 16.7105 8.64016C16.3205 8.25016 15.6905 8.25016 15.3005 8.64016L15.2905 8.63016Z" fill="black"/>
</svg>
