<svg width="16" height="15" viewBox="0 0 16 15" fill="none" xmlns="http://www.w3.org/2000/svg">
<g clip-path="url(#clip0_19_1388)">
<g clip-path="url(#clip1_19_1388)">
<path d="M8.03316 12.9715C5.8439 12.9715 3.65522 12.9715 1.46596 12.9715C1.24462 12.9715 1.14228 13.0728 1.14228 13.2913C1.14228 13.3479 1.14516 13.4045 1.14171 13.4606C1.13711 13.5285 1.13021 13.5964 1.11756 13.6627C1.07042 13.9043 0.838732 14.0979 0.561625 14.0951C0.283368 14.0923 0.0528292 13.8857 0.0108607 13.6202C0.00108723 13.5579 -0.00408697 13.494 -0.00408697 13.4311C-0.00466188 12.1451 -0.0132855 10.8585 -0.00121242 9.57246C0.00568651 8.82303 0.282793 8.17095 0.814011 7.62812C1.13654 7.29869 1.52 7.06435 1.95866 6.91491C2.3036 6.79775 2.66005 6.76208 3.02339 6.76208C6.39064 6.76322 9.75789 6.76039 13.1251 6.76435C14.1117 6.76548 14.9108 7.15718 15.503 7.93605C15.7939 8.31925 15.9675 8.75454 16.0267 9.23001C16.0468 9.3902 16.0555 9.55322 16.056 9.7151C16.0583 10.9638 16.0578 12.2125 16.0572 13.4611C16.0572 13.6564 16.0083 13.8342 15.845 13.9632C15.6726 14.0996 15.48 14.1353 15.2747 14.0521C15.0781 13.9717 14.9539 13.824 14.9258 13.6128C14.9114 13.5064 14.9131 13.3972 14.9102 13.2896C14.9056 13.1159 14.8326 13.0111 14.6866 12.9789C14.6544 12.9715 14.6205 12.9721 14.5871 12.9721C12.4031 12.9721 10.219 12.9721 8.03431 12.9721L8.03316 12.9715Z" fill="#323232"/>
<path d="M7.95325 1.68301C9.37328 1.68301 10.7927 1.68301 12.2122 1.68301C12.6876 1.68301 13.132 1.78773 13.5155 2.07698C14.0088 2.44886 14.2968 2.93849 14.321 3.5532C14.3417 4.07452 14.3325 4.59698 14.3348 5.11886C14.3365 5.45509 14.3348 5.79132 14.3348 6.12754C14.3348 6.15754 14.333 6.18924 14.325 6.21811C14.3003 6.30924 14.2502 6.34547 14.156 6.32792C14.0531 6.30867 13.9536 6.26735 13.8507 6.25603C13.6086 6.22999 13.366 6.21188 13.1228 6.19943C12.9607 6.19094 12.9107 6.16207 12.8877 6.00528C12.8141 5.5083 12.3467 5.06113 11.7488 5.06792C11.0819 5.07528 10.415 5.06962 9.7487 5.06962C9.25255 5.06962 8.82884 5.36056 8.66039 5.81905C8.63624 5.88471 8.62704 5.95603 8.6144 6.02509C8.59083 6.14905 8.54426 6.19547 8.41893 6.19716C8.15619 6.19999 7.89288 6.19999 7.63015 6.19716C7.50942 6.19603 7.4617 6.14905 7.43985 6.0115C7.40938 5.81849 7.3335 5.64641 7.20932 5.49528C6.98453 5.22132 6.69362 5.07245 6.33488 5.07075C5.64671 5.06735 4.95854 5.06905 4.2698 5.07018C3.69144 5.07075 3.23898 5.51565 3.16539 6.00415C3.14182 6.16207 3.09411 6.18981 2.93198 6.19999C2.6635 6.21754 2.39501 6.24245 2.12711 6.27075C2.04489 6.27924 1.96613 6.31433 1.88449 6.32792C1.79653 6.34207 1.75571 6.31264 1.73099 6.22773C1.72122 6.19433 1.71662 6.15867 1.71662 6.12358C1.71605 5.31698 1.70512 4.51037 1.71892 3.70377C1.73329 2.85981 2.12941 2.23943 2.90439 1.86415C3.21139 1.71641 3.54426 1.68301 3.88116 1.68301C5.23852 1.68301 6.59589 1.68301 7.95325 1.68301Z" fill="#323232"/>
</g>
</g>
<defs>
<clipPath id="clip0_19_1388">
<rect width="14.6038" height="14.6038" fill="white" transform="translate(0.722641 0.222656)"/>
</clipPath>
<clipPath id="clip1_19_1388">
<rect width="16.0641" height="12.4132" fill="white" transform="translate(-0.00754547 1.68301)"/>
</clipPath>
</defs>
</svg>
