<svg width="25" height="25" viewBox="0 0 25 25" fill="none" xmlns="http://www.w3.org/2000/svg">
<circle cx="12.5" cy="12.5" r="12.25" stroke="#919191" stroke-width="0.5"/>
<path d="M13.2933 12.5012L16.8285 8.96588C16.8821 8.91406 16.9249 8.85207 16.9544 8.78353C16.9838 8.71498 16.9993 8.64127 17 8.56667C17.0006 8.49208 16.9864 8.4181 16.9582 8.34906C16.9299 8.28002 16.8882 8.21729 16.8355 8.16454C16.7827 8.1118 16.72 8.07008 16.6509 8.04183C16.5819 8.01359 16.5079 7.99937 16.4333 8.00002C16.3587 8.00067 16.285 8.01617 16.2165 8.04561C16.1479 8.07505 16.0859 8.11785 16.0341 8.17151L12.4987 11.7067L8.9635 8.17151C8.85776 8.06809 8.7155 8.01054 8.56759 8.01136C8.41969 8.01217 8.27807 8.07128 8.17347 8.17586C8.06888 8.28044 8.00974 8.42204 8.0089 8.56995C8.00806 8.71785 8.06558 8.86012 8.16898 8.96588L11.7044 12.5012L8.16898 16.0366C8.11586 16.0885 8.07357 16.1505 8.04457 16.2189C8.01556 16.2873 8.00042 16.3608 8.00001 16.4351C7.9996 16.5094 8.01393 16.5831 8.04218 16.6518C8.07043 16.7205 8.11203 16.783 8.16458 16.8355C8.21713 16.888 8.27957 16.9296 8.3483 16.9579C8.41704 16.9861 8.49068 17.0004 8.56499 17C8.63929 16.9996 8.71277 16.9844 8.78118 16.9554C8.84958 16.9264 8.91155 16.8841 8.9635 16.8309L12.4987 13.2957L16.0341 16.8309C16.1438 16.9406 16.2876 16.9956 16.4313 16.9956C16.575 16.9956 16.7189 16.9406 16.8285 16.8309C16.9338 16.7256 16.993 16.5827 16.993 16.4338C16.993 16.2848 16.9338 16.1419 16.8285 16.0366L13.2933 12.5012Z" fill="#919191"/>
</svg>
