<svg width="40" height="40" viewBox="0 0 40 40" fill="none" xmlns="http://www.w3.org/2000/svg">
<rect width="40" height="40" rx="8" fill="#139ED5" fill-opacity="0.15"/>
<path fill-rule="evenodd" clip-rule="evenodd" d="M12.8016 27.8004V12.2004H12.5016C12.0045 12.2004 11.6016 11.7974 11.6016 11.3004C11.6016 10.8033 12.0045 10.4004 12.5016 10.4004H27.5016C27.9986 10.4004 28.4016 10.8033 28.4016 11.3004C28.4016 11.7974 27.9986 12.2004 27.5016 12.2004H27.2016V27.8004H27.5016C27.9986 27.8004 28.4016 28.2033 28.4016 28.7004C28.4016 29.1974 27.9986 29.6004 27.5016 29.6004H23.3016C22.8045 29.6004 22.4016 29.1974 22.4016 28.7004V25.7004C22.4016 25.2033 21.9986 24.8004 21.5016 24.8004H18.5016C18.0045 24.8004 17.6016 25.2033 17.6016 25.7004V28.7004C17.6016 29.1974 17.1986 29.6004 16.7016 29.6004H12.5016C12.0045 29.6004 11.6016 29.1974 11.6016 28.7004C11.6016 28.2033 12.0045 27.8004 12.5016 27.8004H12.8016ZM16.4014 14.6004C16.4014 14.2691 16.67 14.0004 17.0014 14.0004H18.2014C18.5328 14.0004 18.8014 14.2691 18.8014 14.6004V15.8004C18.8014 16.1318 18.5328 16.4004 18.2014 16.4004H17.0014C16.67 16.4004 16.4014 16.1318 16.4014 15.8004V14.6004ZM17.0014 18.8003C16.67 18.8003 16.4014 19.0689 16.4014 19.4003V20.6003C16.4014 20.9317 16.67 21.2003 17.0014 21.2003H18.2014C18.5328 21.2003 18.8014 20.9317 18.8014 20.6003V19.4003C18.8014 19.0689 18.5328 18.8003 18.2014 18.8003H17.0014ZM21.2014 14.6004C21.2014 14.2691 21.47 14.0004 21.8014 14.0004H23.0014C23.3328 14.0004 23.6014 14.2691 23.6014 14.6004V15.8004C23.6014 16.1318 23.3328 16.4004 23.0014 16.4004H21.8014C21.47 16.4004 21.2014 16.1318 21.2014 15.8004V14.6004ZM21.8014 18.8003C21.47 18.8003 21.2014 19.0689 21.2014 19.4003V20.6003C21.2014 20.9317 21.47 21.2003 21.8014 21.2003H23.0014C23.3328 21.2003 23.6014 20.9317 23.6014 20.6003V19.4003C23.6014 19.0689 23.3328 18.8003 23.0014 18.8003H21.8014Z" fill="#139ED5"/>
</svg>
