<svg width="40" height="40" viewBox="0 0 40 40" fill="none" xmlns="http://www.w3.org/2000/svg">
<rect width="40" height="40" rx="10" fill="#139ED5" fill-opacity="0.15"/>
<path d="M15.0342 18.9407C15.2517 19.0437 15.5116 18.9564 15.6205 18.7351L16.5786 16.7401L17.4361 19.6363C18.0228 19.636 19.8181 19.6366 20.433 19.6363L19.5098 16.5257C19.4398 16.2938 19.5711 16.0532 19.803 15.9832L21.8942 15.362C22.1141 15.2878 22.3726 15.4302 22.4367 15.6551C22.4367 15.6551 23.6092 19.6363 23.6092 19.6363C24.2376 19.6352 26.2774 19.6372 26.8773 19.6363L25.2498 14.1588L27.1442 15.3226C27.3498 15.4495 27.6167 15.3839 27.7436 15.1782C27.8705 14.9726 27.8048 14.7057 27.6036 14.5788L19.5536 9.62634C19.4486 9.56073 19.3217 9.54759 19.2036 9.57822C19.0855 9.61323 18.9848 9.70071 18.9323 9.81008L14.8286 18.3545C14.7236 18.5732 14.8155 18.8357 15.0342 18.9407Z" fill="#139ED5"/>
<path d="M27.0744 27.1059C25.6579 27.1057 17.282 27.106 16.0669 27.1059L15.8306 26.0428H17.1081C17.1078 25.7545 17.1083 24.0912 17.1081 23.7678C16.527 23.7688 14.987 23.767 14.4219 23.7678L15.2881 27.6396C15.3869 28.0608 15.8394 27.9763 16.1631 27.9809C15.4767 28.8765 16.2274 30.1946 17.3707 30.164C18.5135 30.1941 19.2653 28.8769 18.5781 27.9809C18.5781 27.9809 23.9375 27.9809 23.9375 27.9809C23.2489 28.8765 24.0033 30.1946 25.145 30.164C26.2867 30.1941 27.0405 28.877 26.3525 27.9809C26.3525 27.9809 27.0744 27.9809 27.0744 27.9809C27.644 27.9713 27.6532 27.1174 27.0744 27.1059Z" fill="#139ED5"/>
<path d="M21.1602 23.7676H23.4614V26.0426H21.1602V23.7676Z" fill="#139ED5"/>
<path d="M26.4536 26.041C26.5455 26.041 26.6242 25.9841 26.6592 25.8966L27.438 23.766C27.1952 23.768 24.6514 23.7646 24.3361 23.766C24.3356 24.0899 24.3364 25.756 24.3361 26.041L26.4536 26.041Z" fill="#139ED5"/>
<path d="M24.3359 20.5117V22.8917H27.7572L28.6278 20.5117H24.3359Z" fill="#139ED5"/>
<path d="M22.6995 19.6361L21.7195 16.3242L20.4727 16.6961L21.3433 19.6361H22.6995Z" fill="#139ED5"/>
<path d="M21.1602 20.5117H23.4614V22.8917H21.1602V20.5117Z" fill="#139ED5"/>
<path d="M17.9844 23.7676H20.2856V26.0426H17.9844V23.7676Z" fill="#139ED5"/>
<path d="M20.2856 20.5127H18.0237C18.0119 20.5158 17.9865 20.5047 17.9844 20.5127L17.9844 22.8927H20.2856V20.5127Z" fill="#139ED5"/>
<path d="M17.1089 22.8926V20.5126H14.5889L14.217 18.8501C14.0857 18.242 13.6001 17.787 12.992 17.682L11.522 17.4326C11.2814 17.3976 11.0582 17.5551 11.0189 17.7914C10.9751 18.032 11.137 18.2551 11.3776 18.2945L12.8433 18.5438C13.1014 18.5876 13.307 18.7845 13.3639 19.0382L14.2257 22.8926C14.8106 22.8931 16.5012 22.8922 17.1089 22.8926Z" fill="#139ED5"/>
</svg>
