<svg width="18" height="18" viewBox="0 0 18 18" fill="none" xmlns="http://www.w3.org/2000/svg">
<g clip-path="url(#clip0_5195_1803)">
<g clip-path="url(#clip1_5195_1803)">
<path d="M9.3232 16.261C6.53111 16.261 3.73976 16.261 0.947679 16.261C0.665391 16.261 0.534879 16.3903 0.534879 16.6689C0.534879 16.7411 0.538545 16.8133 0.534146 16.8848C0.52828 16.9714 0.519482 17.058 0.503351 17.1425C0.443227 17.4507 0.147742 17.6976 -0.205668 17.694C-0.560544 17.6904 -0.854564 17.4269 -0.908088 17.0883C-0.920553 17.0089 -0.927152 16.9273 -0.927152 16.8472C-0.927885 15.2071 -0.938883 13.5662 -0.923486 11.926C-0.914687 10.9702 -0.561278 10.1386 0.116213 9.4463C0.527547 9.02616 1.0166 8.72729 1.57605 8.53671C2.01597 8.38728 2.47057 8.3418 2.93396 8.3418C7.2284 8.34324 11.5228 8.33963 15.8173 8.34468C17.0755 8.34613 18.0947 8.84568 18.8499 9.83902C19.2209 10.3277 19.4423 10.8829 19.5178 11.4893C19.5435 11.6936 19.5545 11.9015 19.5552 12.1079C19.5581 13.7005 19.5574 15.293 19.5567 16.8855C19.5567 17.1345 19.4944 17.3612 19.2861 17.5258C19.0662 17.6998 18.8205 17.7453 18.5588 17.6391C18.308 17.5366 18.1496 17.3482 18.1137 17.0789C18.0954 16.9432 18.0976 16.8039 18.0939 16.6667C18.0881 16.4451 17.9949 16.3116 17.8087 16.2704C17.7676 16.261 17.7244 16.2618 17.6819 16.2618C14.8964 16.2618 12.1109 16.2618 9.32466 16.2618L9.3232 16.261Z" fill="black"/>
<path d="M9.22132 1.86328C11.0324 1.86328 12.8427 1.86328 14.653 1.86328C15.2593 1.86328 15.8261 1.99683 16.3152 2.36572C16.9443 2.84001 17.3116 3.46445 17.3424 4.24844C17.3688 4.91331 17.3571 5.57962 17.36 6.24521C17.3622 6.67402 17.36 7.10283 17.36 7.53163C17.36 7.56989 17.3578 7.61032 17.3475 7.64714C17.316 7.76336 17.2522 7.80956 17.132 7.78719C17.0007 7.76264 16.8739 7.70994 16.7426 7.69551C16.434 7.6623 16.1245 7.6392 15.8144 7.62331C15.6076 7.61249 15.5438 7.57567 15.5145 7.3757C15.4207 6.74188 14.8245 6.17158 14.062 6.18024C13.2115 6.18962 12.3609 6.1824 11.5111 6.1824C10.8784 6.1824 10.338 6.55346 10.1232 7.1382C10.0924 7.22194 10.0806 7.3129 10.0645 7.40097C10.0345 7.55907 9.97506 7.61826 9.81522 7.62043C9.48014 7.62404 9.14433 7.62404 8.80925 7.62043C8.65528 7.61898 8.59442 7.55907 8.56656 7.38364C8.5277 7.13748 8.43091 6.91802 8.27254 6.72527C7.98585 6.37587 7.61484 6.18601 7.15732 6.18385C6.27966 6.17952 5.402 6.18168 4.52361 6.18313C3.78599 6.18385 3.20895 6.75126 3.1151 7.37426C3.08504 7.57567 3.02418 7.61104 2.81742 7.62404C2.475 7.64642 2.13259 7.67818 1.79091 7.71427C1.68607 7.7251 1.58561 7.76986 1.4815 7.78719C1.36932 7.80523 1.31726 7.76769 1.28573 7.65941C1.27326 7.61682 1.2674 7.57134 1.2674 7.52658C1.26667 6.49787 1.25273 5.46917 1.27033 4.44046C1.28866 3.36411 1.79385 2.57291 2.78222 2.09429C3.17376 1.90587 3.59829 1.86328 4.02795 1.86328C5.75908 1.86328 7.4902 1.86328 9.22132 1.86328Z" fill="black"/>
</g>
</g>
<defs>
<clipPath id="clip0_5195_1803">
<rect width="18" height="18" fill="white"/>
</clipPath>
<clipPath id="clip1_5195_1803">
<rect width="20.4875" height="15.8313" fill="white" transform="translate(-0.931396 1.86328)"/>
</clipPath>
</defs>
</svg>
