<svg width="23" height="23" viewBox="0 0 23 23" fill="none" xmlns="http://www.w3.org/2000/svg">
<rect x="0.75" y="0.390625" width="21.9167" height="21.9167" rx="10.9583" fill="#139ED5" fill-opacity="0.15"/>
<path d="M9.375 7.70508C9.13583 7.70508 8.9375 7.50674 8.9375 7.26758V5.51758C8.9375 5.27841 9.13583 5.08008 9.375 5.08008C9.61417 5.08008 9.8125 5.27841 9.8125 5.51758V7.26758C9.8125 7.50674 9.61417 7.70508 9.375 7.70508Z" fill="#139ED5"/>
<path d="M14.043 7.70508C13.8038 7.70508 13.6055 7.50674 13.6055 7.26758V5.51758C13.6055 5.27841 13.8038 5.08008 14.043 5.08008C14.2821 5.08008 14.4805 5.27841 14.4805 5.51758V7.26758C14.4805 7.50674 14.2821 7.70508 14.043 7.70508Z" fill="#139ED5"/>
<path d="M9.66732 12.8099C9.59148 12.8099 9.51565 12.7924 9.44565 12.7632C9.36982 12.7341 9.31148 12.6932 9.25315 12.6407C9.14815 12.5299 9.08398 12.3841 9.08398 12.2266C9.08398 12.1507 9.10148 12.0749 9.13065 12.0049C9.15982 11.9349 9.20065 11.8707 9.25315 11.8124C9.31148 11.7599 9.36982 11.7191 9.44565 11.6899C9.65565 11.6024 9.91815 11.6491 10.0815 11.8124C10.1865 11.9232 10.2507 12.0749 10.2507 12.2266C10.2507 12.2616 10.2448 12.3024 10.239 12.3432C10.2332 12.3782 10.2215 12.4132 10.204 12.4482C10.1923 12.4832 10.1748 12.5182 10.1515 12.5532C10.134 12.5824 10.1048 12.6116 10.0815 12.6407C9.97065 12.7457 9.81898 12.8099 9.66732 12.8099Z" fill="#139ED5"/>
<path d="M11.7093 12.8105C11.6335 12.8105 11.5576 12.793 11.4876 12.7639C11.4118 12.7347 11.3535 12.6939 11.2951 12.6414C11.1901 12.5305 11.126 12.3847 11.126 12.2272C11.126 12.1514 11.1435 12.0755 11.1726 12.0055C11.2018 11.9355 11.2426 11.8714 11.2951 11.813C11.3535 11.7605 11.4118 11.7197 11.4876 11.6905C11.6976 11.5972 11.9601 11.6497 12.1235 11.813C12.2285 11.9239 12.2926 12.0755 12.2926 12.2272C12.2926 12.2622 12.2868 12.303 12.281 12.3439C12.2751 12.3789 12.2635 12.4139 12.246 12.4489C12.2343 12.4839 12.2168 12.5189 12.1935 12.5539C12.176 12.5831 12.1468 12.6122 12.1235 12.6414C12.0126 12.7464 11.861 12.8105 11.7093 12.8105Z" fill="#139ED5"/>
<path d="M13.7503 12.8105C13.6745 12.8105 13.5987 12.793 13.5287 12.7639C13.4528 12.7347 13.3945 12.6939 13.3362 12.6414C13.3128 12.6122 13.2895 12.5831 13.2662 12.5539C13.2428 12.5189 13.2253 12.4839 13.2137 12.4489C13.1962 12.4139 13.1845 12.3789 13.1787 12.3439C13.1728 12.303 13.167 12.2622 13.167 12.2272C13.167 12.0755 13.2312 11.9239 13.3362 11.813C13.3945 11.7605 13.4528 11.7197 13.5287 11.6905C13.7445 11.5972 14.0012 11.6497 14.1645 11.813C14.2695 11.9239 14.3337 12.0755 14.3337 12.2272C14.3337 12.2622 14.3278 12.303 14.322 12.3439C14.3162 12.3789 14.3045 12.4139 14.287 12.4489C14.2753 12.4839 14.2578 12.5189 14.2345 12.5539C14.217 12.5831 14.1878 12.6122 14.1645 12.6414C14.0537 12.7464 13.902 12.8105 13.7503 12.8105Z" fill="#139ED5"/>
<path d="M9.66732 14.8507C9.59148 14.8507 9.51565 14.8333 9.44565 14.8041C9.37565 14.7749 9.31148 14.7341 9.25315 14.6816C9.14815 14.5707 9.08398 14.4191 9.08398 14.2674C9.08398 14.1916 9.10148 14.1157 9.13065 14.0457C9.15982 13.9699 9.20065 13.9058 9.25315 13.8533C9.46898 13.6374 9.86565 13.6374 10.0815 13.8533C10.1865 13.9641 10.2507 14.1157 10.2507 14.2674C10.2507 14.4191 10.1865 14.5707 10.0815 14.6816C9.97065 14.7866 9.81898 14.8507 9.66732 14.8507Z" fill="#139ED5"/>
<path d="M11.7093 14.8507C11.5576 14.8507 11.406 14.7866 11.2951 14.6816C11.1901 14.5707 11.126 14.4191 11.126 14.2674C11.126 14.1916 11.1435 14.1157 11.1726 14.0457C11.2018 13.9699 11.2426 13.9058 11.2951 13.8533C11.511 13.6374 11.9076 13.6374 12.1235 13.8533C12.176 13.9058 12.2168 13.9699 12.246 14.0457C12.2751 14.1157 12.2926 14.1916 12.2926 14.2674C12.2926 14.4191 12.2285 14.5707 12.1235 14.6816C12.0126 14.7866 11.861 14.8507 11.7093 14.8507Z" fill="#139ED5"/>
<path d="M13.7503 14.8488C13.5987 14.8488 13.447 14.7847 13.3362 14.6797C13.2837 14.6272 13.2428 14.563 13.2137 14.4872C13.1845 14.4172 13.167 14.3413 13.167 14.2655C13.167 14.1897 13.1845 14.1138 13.2137 14.0438C13.2428 13.968 13.2837 13.9038 13.3362 13.8513C13.4703 13.7172 13.6745 13.653 13.8612 13.6938C13.902 13.6997 13.937 13.7113 13.972 13.7288C14.007 13.7405 14.042 13.758 14.077 13.7813C14.1062 13.7988 14.1353 13.828 14.1645 13.8513C14.2695 13.9622 14.3337 14.1138 14.3337 14.2655C14.3337 14.4172 14.2695 14.5688 14.1645 14.6797C14.0537 14.7847 13.902 14.8488 13.7503 14.8488Z" fill="#139ED5"/>
<path d="M16.6667 10.0918H6.75C6.51083 10.0918 6.3125 9.89346 6.3125 9.6543C6.3125 9.41513 6.51083 9.2168 6.75 9.2168H16.6667C16.9058 9.2168 17.1042 9.41513 17.1042 9.6543C17.1042 9.89346 16.9058 10.0918 16.6667 10.0918Z" fill="#139ED5"/>
<path d="M14.0423 17.6217H9.37565C7.24648 17.6217 6.02148 16.3967 6.02148 14.2676V9.30924C6.02148 7.18008 7.24648 5.95508 9.37565 5.95508H14.0423C16.1715 5.95508 17.3965 7.18008 17.3965 9.30924V14.2676C17.3965 16.3967 16.1715 17.6217 14.0423 17.6217ZM9.37565 6.83008C7.70732 6.83008 6.89648 7.64091 6.89648 9.30924V14.2676C6.89648 15.9359 7.70732 16.7467 9.37565 16.7467H14.0423C15.7107 16.7467 16.5215 15.9359 16.5215 14.2676V9.30924C16.5215 7.64091 15.7107 6.83008 14.0423 6.83008H9.37565Z" fill="#139ED5"/>
</svg>
