<svg width="22" height="23" viewBox="0 0 22 23" fill="none" xmlns="http://www.w3.org/2000/svg">
<rect y="0.367188" width="21.9646" height="21.9646" rx="10.9823" fill="#139ED5" fill-opacity="0.15"/>
<path d="M12.1491 13.0996L10.9824 11.3496V8.43294M5.73242 11.3496C5.73242 12.039 5.86822 12.7217 6.13205 13.3587C6.39589 13.9957 6.7826 14.5744 7.27011 15.0619C7.75762 15.5494 8.33637 15.9361 8.97333 16.2C9.61029 16.4638 10.293 16.5996 10.9824 16.5996C11.6719 16.5996 12.3545 16.4638 12.9915 16.2C13.6285 15.9361 14.2072 15.5494 14.6947 15.0619C15.1822 14.5744 15.569 13.9957 15.8328 13.3587C16.0966 12.7217 16.2324 12.039 16.2324 11.3496C16.2324 10.6602 16.0966 9.97748 15.8328 9.34052C15.569 8.70356 15.1822 8.12481 14.6947 7.6373C14.2072 7.14979 13.6285 6.76308 12.9915 6.49924C12.3545 6.2354 11.6719 6.09961 10.9824 6.09961C10.293 6.09961 9.61029 6.2354 8.97333 6.49924C8.33637 6.76308 7.75762 7.14979 7.27011 7.6373C6.7826 8.12481 6.39589 8.70356 6.13205 9.34052C5.86822 9.97748 5.73242 10.6602 5.73242 11.3496Z" stroke="#139ED5" stroke-linecap="round" stroke-linejoin="round"/>
</svg>
