<svg width="24" height="24" viewBox="0 0 24 24" fill="none" xmlns="http://www.w3.org/2000/svg">
<path d="M19 7.25H17.75V6C17.75 4.483 16.517 3.25 15 3.25H5C3.483 3.25 2.25 4.483 2.25 6V15.08C2.25 15.538 2.5 15.959 2.902 16.178C3.09 16.28 3.295 16.33 3.5 16.33C3.737 16.33 3.974 16.263 4.181 16.128L5.997 14.951C6.076 14.9 6.163 14.866 6.25 14.834V16C6.25 17.517 7.483 18.75 9 18.75H16.732C17.361 18.75 17.972 18.931 18.501 19.272L19.819 20.127C20.026 20.262 20.262 20.329 20.5 20.329C20.705 20.329 20.91 20.278 21.098 20.177C21.5 19.958 21.75 19.537 21.75 19.079V9.999C21.75 8.482 20.517 7.25 19 7.25ZM5.18 13.693L3.75 14.62V6C3.75 5.311 4.311 4.75 5 4.75H15C15.689 4.75 16.25 5.311 16.25 6V12C16.25 12.689 15.689 13.25 15 13.25H6.676C6.143 13.25 5.625 13.403 5.18 13.693ZM20.25 18.619L19.316 18.014C18.545 17.515 17.651 17.25 16.732 17.25H9C8.311 17.25 7.75 16.689 7.75 16V14.75H15C16.517 14.75 17.75 13.517 17.75 12V8.75H19C19.689 8.75 20.25 9.311 20.25 10V18.619Z" fill="#139ED5"/>
</svg>
