<svg width="24" height="24" viewBox="0 0 24 24" fill="none" xmlns="http://www.w3.org/2000/svg">
<path d="M19.472 9.8842C19.5202 9.70406 19.495 9.51216 19.4017 9.35067L17.9955 6.91495C17.9023 6.75347 17.7486 6.63562 17.5686 6.58734C17.3885 6.53911 17.1965 6.56433 17.035 6.65761L16.1051 7.19447C15.5224 6.70017 14.8458 6.31369 14.1098 6.0548V4.96875C14.1098 4.58044 13.795 4.26562 13.4067 4.26562H10.5942C10.2059 4.26562 9.89109 4.58044 9.89109 4.96875V6.0548C9.15515 6.31369 8.47851 6.70017 7.89581 7.19447L6.9659 6.65761C6.80442 6.56433 6.61228 6.53906 6.43237 6.58734C6.25223 6.63558 6.09867 6.75342 6.00543 6.91495L4.59918 9.35067C4.50595 9.51216 4.48068 9.70411 4.52892 9.8842C4.5772 10.0643 4.69504 10.2179 4.85653 10.3111L5.79492 10.8529C5.71181 11.2571 5.67229 11.6304 5.67229 12C5.67229 12.3696 5.71181 12.7429 5.79482 13.1471L4.85643 13.6889C4.69495 13.7821 4.5771 13.9357 4.52882 14.1158C4.48059 14.2959 4.50585 14.4878 4.59909 14.6493L6.00534 17.085C6.09857 17.2465 6.25218 17.3644 6.43228 17.4127C6.61246 17.461 6.80437 17.4357 6.96581 17.3424L7.89571 16.8055C8.47846 17.2998 9.15506 17.6863 9.89099 17.9452V19.0312C9.89099 19.4196 10.2058 19.7344 10.5941 19.7344H13.4066C13.7949 19.7344 14.1097 19.4196 14.1097 19.0312V17.9452C14.8457 17.6863 15.5223 17.2998 16.105 16.8055L17.0349 17.3424C17.1964 17.4356 17.3885 17.4609 17.5685 17.4127C17.7486 17.3644 17.9022 17.2466 17.9954 17.085L19.4016 14.6493C19.4949 14.4878 19.5201 14.2959 19.4719 14.1158C19.4236 13.9357 19.3058 13.7821 19.1443 13.6889L18.2059 13.1471C18.289 12.7429 18.3285 12.3696 18.3285 12C18.3285 11.6304 18.289 11.2571 18.206 10.8529L19.1444 10.3111C19.3059 10.2179 19.4237 10.0643 19.472 9.8842ZM16.7212 10.6951C16.8584 11.1894 16.9223 11.604 16.9223 12C16.9223 12.396 16.8584 12.8106 16.7212 13.3049C16.6355 13.6138 16.7695 13.9416 17.0472 14.1019L17.8323 14.5551L17.1292 15.7729L16.3591 15.3284C16.0815 15.1681 15.7307 15.2158 15.5061 15.4445C14.8943 16.067 14.1072 16.5166 13.2297 16.7447C12.9199 16.8253 12.7035 17.1051 12.7035 17.4253V18.3281H11.2972V17.4253C11.2972 17.1051 11.0809 16.8253 10.771 16.7447C9.89353 16.5166 9.1064 16.067 8.49468 15.4445C8.27001 15.2158 7.91901 15.168 7.6416 15.3284L6.87154 15.7729L6.16842 14.5551L6.95357 14.1019C7.23121 13.9416 7.36523 13.6138 7.27954 13.3049C7.14243 12.8106 7.07854 12.396 7.07854 12C7.07854 11.604 7.14243 11.1894 7.27963 10.6951C7.36532 10.3862 7.23131 10.0584 6.95367 9.89813L6.16851 9.44489L6.87163 8.22708L7.6417 8.67164C7.91929 8.83186 8.2701 8.78419 8.49478 8.55553C9.10649 7.93303 9.89362 7.48341 10.7711 7.25527C11.081 7.17469 11.2973 6.89494 11.2973 6.57473V5.67188H12.7036V6.57473C12.7036 6.89494 12.9199 7.17469 13.2298 7.25527C14.1073 7.48341 14.8944 7.93298 15.5062 8.55553C15.7308 8.78419 16.0817 8.83186 16.3592 8.67164L17.1293 8.22708L17.8324 9.44489L17.0473 9.89813C16.7695 10.0584 16.6355 10.3862 16.7212 10.6951Z" fill="#1393D4"/>
<path d="M12 8.48438C10.0615 8.48438 8.48438 10.0615 8.48438 12C8.48438 13.9385 10.0615 15.5156 12 15.5156C13.9385 15.5156 15.5156 13.9385 15.5156 12C15.5156 10.0615 13.9385 8.48438 12 8.48438ZM12 14.1094C10.8369 14.1094 9.89062 13.1631 9.89062 12C9.89062 10.8369 10.8369 9.89062 12 9.89062C13.1631 9.89062 14.1094 10.8369 14.1094 12C14.1094 13.1631 13.1631 14.1094 12 14.1094Z" fill="#1393D4"/>
<path d="M21.4464 5.53664C21.7323 5.2507 21.6163 4.81702 21.6163 4.81702L20.6219 1.83389C20.4991 1.46545 20.1008 1.26633 19.7325 1.38919C19.3641 1.512 19.165 1.9102 19.2878 2.27859L19.3723 2.53214C18.7414 2.05191 18.0615 1.62867 17.3457 1.27364C15.6659 0.440437 13.8173 0 12 0C8.81203 0 5.80341 1.25302 3.52823 3.52819C1.25297 5.80341 0 8.81208 0 12C0 13.4724 0.309328 14.9807 0.919266 16.4833C1.03017 16.7565 1.29328 16.9221 1.57097 16.9221C1.65905 16.9221 1.74863 16.9054 1.83525 16.8703C2.19506 16.7242 2.36831 16.3141 2.22225 15.9543C1.68075 14.6206 1.40625 13.2902 1.40625 12C1.40625 6.15858 6.15858 1.40625 12 1.40625C14.1441 1.40625 16.3085 2.1195 18.1068 3.35653C17.7631 3.28589 17.4129 3.48145 17.2992 3.82266C17.1764 4.19105 17.3755 4.58925 17.7439 4.71206L20.727 5.70642C20.727 5.70642 21.1474 5.83566 21.4464 5.53664Z" fill="#1393D4"/>
<path d="M2.38378 19.1831L3.37814 22.1663C3.47639 22.4609 3.75066 22.6473 4.04513 22.6472C4.11881 22.6472 4.19381 22.6356 4.26755 22.611C4.63594 22.4882 4.83502 22.09 4.71225 21.7216L4.62773 21.4681C5.25867 21.9483 5.93859 22.3715 6.65438 22.7266C8.33438 23.5598 10.1829 24.0002 12.0002 24.0002C15.1882 24.0002 18.1968 22.7472 20.472 20.472C22.7473 18.1968 24.0002 15.1881 24.0002 12.0002C24.0002 10.5278 23.6909 9.01946 23.081 7.51693C22.9349 7.15712 22.5247 6.98391 22.165 7.12993C21.8052 7.27604 21.6319 7.6861 21.778 8.04591C22.3195 9.3796 22.594 10.71 22.594 12.0002C22.594 17.8416 17.8417 22.5939 12.0002 22.5939C9.85617 22.5939 7.69172 21.8807 5.89345 20.6436C6.23719 20.7143 6.5873 20.5187 6.70106 20.1775C6.82383 19.8091 6.62475 19.4109 6.25636 19.2881L3.27323 18.2937C2.85642 18.1548 2.55361 18.4636 2.55361 18.4636C2.26153 18.7556 2.38378 19.1831 2.38378 19.1831Z" fill="#1393D4"/>
</svg>
