<svg width="24" height="24" viewBox="0 0 24 24" fill="none" xmlns="http://www.w3.org/2000/svg">
<path d="M7 15.75H17C18.517 15.75 19.75 14.517 19.75 13V8C19.75 6.483 18.517 5.25 17 5.25H16.75V4C16.75 3.035 15.965 2.25 15 2.25H9C8.035 2.25 7.25 3.035 7.25 4V5.25H7C5.483 5.25 4.25 6.483 4.25 8V13C4.25 14.517 5.483 15.75 7 15.75ZM13.75 6.75V14.25H10.25V6.75H13.75ZM17 6.75C17.689 6.75 18.25 7.311 18.25 8V13C18.25 13.689 17.689 14.25 17 14.25H15.25V6.75H17ZM8.75 4C8.75 3.862 8.862 3.75 9 3.75H15C15.138 3.75 15.25 3.862 15.25 4V5.25H8.75V4ZM5.75 8C5.75 7.311 6.311 6.75 7 6.75H8.75V14.25H7C6.311 14.25 5.75 13.689 5.75 13V8ZM19.5 17.25H4.5C3.26 17.25 2.25 18.259 2.25 19.5C2.25 20.741 3.26 21.75 4.5 21.75H19.5C20.74 21.75 21.75 20.741 21.75 19.5C21.75 18.259 20.74 17.25 19.5 17.25ZM19.5 20.25H4.5C4.087 20.25 3.75 19.914 3.75 19.5C3.75 19.086 4.087 18.75 4.5 18.75H19.5C19.913 18.75 20.25 19.086 20.25 19.5C20.25 19.914 19.913 20.25 19.5 20.25Z" fill="#E2E2E2"/>
</svg>
