<svg width="24" height="24" viewBox="0 0 24 24" fill="none" xmlns="http://www.w3.org/2000/svg">
<g clip-path="url(#clip0_5815_4381)">
<path fill-rule="evenodd" clip-rule="evenodd" d="M11.7188 20.7188H5.20312C3.70312 20.7188 2.53125 19.5469 2.53125 18.0469V2.67188C2.53125 1.17188 3.70312 0 5.20312 0H15.7031C17.1562 0 18.375 1.21875 18.375 2.67188V14.1562C18.375 14.3438 18.2344 14.4844 18.0469 14.4844C17.8594 14.4844 17.7188 14.3438 17.7188 14.1562V2.67188C17.7188 1.54688 16.8281 0.65625 15.7031 0.65625H5.20312C4.07812 0.65625 3.1875 1.54688 3.1875 2.67188V18.0469C3.1875 19.1719 4.07812 20.0625 5.20312 20.0625H11.7188C11.9062 20.0625 12.0469 20.2031 12.0469 20.3906C12.0469 20.5781 11.9062 20.7188 11.7188 20.7188Z" fill="#E2E2E2"/>
<path fill-rule="evenodd" clip-rule="evenodd" d="M11.0625 15H4.92188C4.73438 15 4.59375 14.8594 4.59375 14.6719C4.59375 14.4844 4.73438 14.3438 4.92188 14.3438H11.0625C11.25 14.3438 11.3906 14.4844 11.3906 14.6719C11.3906 14.8594 11.25 15 11.0625 15Z" fill="#E2E2E2"/>
<path fill-rule="evenodd" clip-rule="evenodd" d="M13.7812 3.5625H7.07812C6.89062 3.5625 6.75 3.42188 6.75 3.23438C6.75 3.04688 6.89062 2.90625 7.07812 2.90625H13.7812C13.9688 2.90625 14.1094 3.04688 14.1094 3.23438C14.1094 3.42188 13.9688 3.5625 13.7812 3.5625Z" fill="#E2E2E2"/>
<path fill-rule="evenodd" clip-rule="evenodd" d="M9.79688 17.8125H4.92188C4.73438 17.8125 4.59375 17.6719 4.59375 17.4844C4.59375 17.2969 4.73438 17.1562 4.92188 17.1562H9.79688C9.98438 17.1562 10.125 17.2969 10.125 17.4844C10.125 17.6719 9.98438 17.8125 9.79688 17.8125Z" fill="#E2E2E2"/>
<path fill-rule="evenodd" clip-rule="evenodd" d="M15.9375 6.42188H4.92188C4.73438 6.42188 4.59375 6.28125 4.59375 6.09375C4.59375 5.90625 4.73438 5.76562 4.92188 5.76562H15.9375C16.125 5.76562 16.2656 5.90625 16.2656 6.09375C16.2656 6.28125 16.125 6.42188 15.9375 6.42188Z" fill="#E2E2E2"/>
<path fill-rule="evenodd" clip-rule="evenodd" d="M15.9375 9.28125H4.92188C4.73438 9.28125 4.59375 9.14062 4.59375 8.95312C4.59375 8.76562 4.73438 8.625 4.92188 8.625H15.9375C16.125 8.625 16.2656 8.76562 16.2656 8.95312C16.2656 9.14062 16.125 9.28125 15.9375 9.28125Z" fill="#E2E2E2"/>
<path fill-rule="evenodd" clip-rule="evenodd" d="M15.9375 12.1406H4.92188C4.73438 12.1406 4.59375 12 4.59375 11.8125C4.59375 11.625 4.73438 11.4844 4.92188 11.4844H15.9375C16.125 11.4844 16.2656 11.625 16.2656 11.8125C16.2656 12 16.125 12.1406 15.9375 12.1406Z" fill="#E2E2E2"/>
<path fill-rule="evenodd" clip-rule="evenodd" d="M15.9375 24H15C14.625 24 14.3438 23.7188 14.3438 23.3906L14.2031 22.4062C13.8281 22.3125 13.5469 22.125 13.2656 21.9844L12.4219 22.6406C12.1406 22.8281 11.7656 22.8281 11.5312 22.5938L10.875 21.9375C10.6406 21.7031 10.6406 21.375 10.8281 21.0469H10.875L11.4844 20.2031C11.2969 19.875 11.1562 19.5938 11.1094 19.2656L10.125 19.125C9.75 19.125 9.46875 18.8438 9.46875 18.4688V17.5312C9.46875 17.3906 9.51562 17.0156 10.0312 16.875H10.0781L11.0625 16.7344C11.1562 16.4531 11.2969 16.125 11.4844 15.8438L10.8281 14.9531C10.6406 14.625 10.6406 14.2969 10.875 14.1094L11.5312 13.4062C11.5312 13.4062 11.5781 13.4062 11.5781 13.3594C11.8125 13.2188 12.1875 13.2188 12.4219 13.3594V13.4062L13.2656 14.0156C13.5938 13.875 13.875 13.7344 14.2031 13.6406L14.3438 12.6562C14.3438 12.2812 14.625 12 15 12H15.9375C16.0781 12 16.4531 12.0469 16.5938 12.6094L16.7344 13.6406C17.0625 13.7344 17.3438 13.875 17.6719 14.0156L18.4688 13.4062C18.4688 13.3594 18.5156 13.3594 18.5156 13.3594C18.8438 13.2188 19.1719 13.2188 19.3594 13.4062L20.0625 14.1094C20.25 14.3438 20.2969 14.6719 20.1094 14.9531L19.4531 15.8438C19.6406 16.125 19.7344 16.4062 19.8281 16.7344L20.8594 16.875H20.9062C21.4219 17.0156 21.4688 17.3906 21.4688 17.5312V18.4688C21.4688 18.8438 21.1875 19.125 20.8594 19.125L19.8281 19.2656C19.7344 19.5938 19.6406 19.875 19.4531 20.2031L20.1094 21.0469C20.25 21.2812 20.25 21.6562 20.1094 21.8906L20.0625 21.9375L19.3594 22.5938C19.2656 22.6875 19.0312 22.9219 18.5156 22.6406H18.4688L17.6719 21.9844C17.3438 22.1719 17.0625 22.3125 16.7344 22.4062L16.5938 23.3906V23.4375C16.4531 23.9531 16.0781 24 15.9375 24ZM15 23.3438H15.9375V23.2969L16.125 22.0781C16.125 21.9375 16.2656 21.8438 16.3594 21.7969C16.7344 21.7031 17.1094 21.5625 17.4844 21.3281C17.625 21.2812 17.7656 21.2812 17.8594 21.3281L18.8438 22.0781L18.8906 22.125L19.5469 21.5156C19.5469 21.4688 19.5469 21.4688 19.5469 21.4219L18.7969 20.3906C18.7031 20.2969 18.7031 20.1562 18.7969 20.0625C18.9844 19.6875 19.125 19.3125 19.2656 18.8906C19.3125 18.7969 19.4062 18.7031 19.5469 18.6562L20.7656 18.4688H20.8125V17.5781C20.8125 17.5312 20.7656 17.5312 20.7188 17.5312L19.5469 17.3438C19.4062 17.3438 19.3125 17.25 19.2656 17.1562C19.125 16.7344 19.0312 16.3125 18.7969 15.9844C18.7031 15.8906 18.75 15.75 18.7969 15.6094L19.5469 14.5781L18.9375 13.9219C18.8906 13.9219 18.8438 13.9219 18.8438 13.9219L17.8594 14.6719C17.7656 14.7656 17.625 14.7656 17.4844 14.6719C17.1562 14.4844 16.7344 14.3438 16.3594 14.2031C16.2188 14.1562 16.125 14.0625 16.125 13.9219L15.9375 12.75C15.9375 12.7031 15.9375 12.6562 15.9375 12.6562H15V12.7031L14.8125 13.9219C14.7656 14.0625 14.7188 14.1562 14.5781 14.2031C14.1562 14.3438 13.7812 14.4375 13.4531 14.6719C13.3125 14.7656 13.1719 14.7656 13.0781 14.6719L12.0469 13.9219C12.0469 13.875 12 13.875 11.9531 13.9219L11.3438 14.5312C11.3906 14.5781 11.3906 14.5781 11.3906 14.5781L12.1406 15.6094C12.1875 15.7031 12.1875 15.8438 12.1406 15.9844C11.9062 16.3125 11.7656 16.7344 11.6719 17.0625C11.625 17.2031 11.5312 17.2969 11.3906 17.3438L10.1719 17.5312H10.125V18.4688H10.1719L11.3906 18.6562C11.5312 18.6562 11.625 18.7969 11.6719 18.8906C11.7656 19.2656 11.9062 19.6406 12.1406 20.0156C12.2344 20.1562 12.1875 20.2969 12.1406 20.3906L11.3906 21.4219C11.3438 21.4688 11.3438 21.4688 11.3438 21.4688L12 22.125C12 22.125 12.0469 22.125 12.0469 22.0781L13.0781 21.3281C13.1719 21.2812 13.3125 21.2812 13.4531 21.3281C13.7344 21.5156 14.1094 21.7031 14.5781 21.7969C14.6719 21.8438 14.8125 21.9375 14.8125 22.0781L15 23.2969V23.3438Z" fill="#E2E2E2"/>
<path fill-rule="evenodd" clip-rule="evenodd" d="M15.4688 20.6719C13.9688 20.6719 12.7969 19.5 12.7969 18C12.7969 16.5 13.9688 15.3281 15.4688 15.3281C16.9219 15.3281 18.1406 16.5469 18.1406 18C18.1406 19.4531 16.9219 20.6719 15.4688 20.6719ZM15.4688 15.9844C14.3438 15.9844 13.4531 16.875 13.4531 18C13.4531 19.125 14.3438 20.0156 15.4688 20.0156C16.5938 20.0156 17.4844 19.125 17.4844 18C17.4844 16.875 16.5938 15.9844 15.4688 15.9844Z" fill="#E2E2E2"/>
</g>
<defs>
<clipPath id="clip0_5815_4381">
<rect width="24" height="24" fill="white"/>
</clipPath>
</defs>
</svg>
