<svg width="18" height="18" viewBox="0 0 18 18" fill="none" xmlns="http://www.w3.org/2000/svg">
<g clip-path="url(#clip0_8461_10037)">
<path d="M10.158 15.3001C2.74476 7.88705 10.1153 15.2574 2.7018 7.84402C2.49578 7.63793 2.16225 7.63793 1.9562 7.84402L1.21061 8.58965C0.59386 9.2064 0.59386 10.2098 1.21061 10.8265L1.58344 11.1993L1.21061 11.5721C0.593895 12.1889 0.593895 13.1922 1.21064 13.809L4.19309 16.7914C4.80984 17.4081 5.8132 17.4081 6.42995 16.7914L6.80271 16.4186L7.17554 16.7914C7.79229 17.4081 8.79565 17.4081 9.4124 16.7914L10.158 16.0458C10.3641 15.8398 10.3641 15.5062 10.158 15.3001Z" fill="#139ED5"/>
<path d="M16.7895 7.17359L16.4166 6.80076L16.7895 6.42793C17.4062 5.81121 17.4062 4.80778 16.7895 4.19111L13.807 1.20865C13.1903 0.591907 12.1869 0.591907 11.5701 1.20865L11.1973 1.58145L10.8245 1.20865C10.2078 0.591907 9.20441 0.591907 8.58766 1.20865L7.84206 1.95425C7.63598 2.16034 7.63598 2.49386 7.84206 2.69984L15.2983 10.156C15.5043 10.3621 15.8378 10.3621 16.0439 10.156L16.7895 9.41038C17.4062 8.79366 17.4062 7.79027 16.7895 7.17359Z" fill="#139ED5"/>
<path d="M17.5354 0.462591C16.9187 -0.154191 15.9153 -0.154191 15.2986 0.462556L14.9258 0.835354L17.1626 3.07221L17.5354 2.69938C18.1521 2.0827 18.1521 1.07927 17.5354 0.462591Z" fill="#139ED5"/>
<path d="M0.837276 14.9277L0.464514 15.3005C-0.152234 15.9172 -0.152234 16.9206 0.464514 17.5374C1.08119 18.1541 2.08462 18.1541 2.7013 17.5374L3.07413 17.1645L0.837276 14.9277Z" fill="#139ED5"/>
<path d="M9.70653 6.05469L6.05664 9.70855L8.2935 11.9454L11.9434 8.29158L9.70653 6.05469Z" fill="#139ED5"/>
</g>
<defs>
<clipPath id="clip0_8461_10037">
<rect width="18" height="18" fill="white"/>
</clipPath>
</defs>
</svg>
