<svg width="100" height="100" viewBox="0 0 100 100" fill="none" xmlns="http://www.w3.org/2000/svg">
<g clip-path="url(#clip0_7871_3652)">
<rect width="100" height="100" rx="50" fill="#139ED5"/>
<path d="M11.1104 16.668H24.0733V42.5938H11.1104V16.668Z" fill="white"/>
<path d="M11.1104 16.668H37.0362V29.6309H11.1104V16.668Z" fill="white"/>
<path d="M88.8896 16.668H75.9267V42.5938H88.8896V16.668Z" fill="white"/>
<path d="M88.8896 16.668H62.9638V29.6309H88.8896V16.668Z" fill="white"/>
<rect x="11.1104" y="81.4824" width="77.7776" height="25.2057" fill="#139ED5"/>
<path d="M37.0365 29.6328H62.9624V68.5216H37.0365V29.6328Z" fill="#075B7C"/>
<path d="M37.0365 94.4475H62.9624V106.69H37.0365V94.4475Z" fill="#075B7C"/>
<path d="M11.1111 42.5959H88.8887V55.5588H11.1111V42.5959Z" fill="#075B7C"/>
<path d="M-1.85156 55.559H24.0743V68.522H-1.85156V55.559Z" fill="#075B7C"/>
<path d="M75.9262 55.559H101.852V68.522H75.9262V55.559Z" fill="#075B7C"/>
<path d="M62.9624 68.5216L75.9262 68.522L75.9265 106.69L62.9624 106.69V68.5216Z" fill="#075B7C"/>
<path d="M24.0743 68.522L37.0365 68.5216V106.69L24.0738 106.69L24.0743 68.522Z" fill="#075B7C"/>
</g>
<defs>
<clipPath id="clip0_7871_3652">
<rect width="100" height="100" rx="50" fill="white"/>
</clipPath>
</defs>
</svg>
