<svg width="20" height="20" viewBox="0 0 20 20" fill="none" xmlns="http://www.w3.org/2000/svg">
<path d="M14.1666 5.83333H15V6.66667C15 6.88768 15.0878 7.09964 15.244 7.25592C15.4003 7.4122 15.6123 7.5 15.8333 7.5C16.0543 7.5 16.2663 7.4122 16.4225 7.25592C16.5788 7.09964 16.6666 6.88768 16.6666 6.66667V5.83333H17.5C17.721 5.83333 17.9329 5.74554 18.0892 5.58926C18.2455 5.43298 18.3333 5.22101 18.3333 5C18.3333 4.77899 18.2455 4.56702 18.0892 4.41074C17.9329 4.25446 17.721 4.16667 17.5 4.16667H16.6666V3.33333C16.6666 3.11232 16.5788 2.90036 16.4225 2.74408C16.2663 2.5878 16.0543 2.5 15.8333 2.5C15.6123 2.5 15.4003 2.5878 15.244 2.74408C15.0878 2.90036 15 3.11232 15 3.33333V4.16667H14.1666C13.9456 4.16667 13.7336 4.25446 13.5774 4.41074C13.4211 4.56702 13.3333 4.77899 13.3333 5C13.3333 5.22101 13.4211 5.43298 13.5774 5.58926C13.7336 5.74554 13.9456 5.83333 14.1666 5.83333ZM17.5 9.16667C17.2789 9.16667 17.067 9.25446 16.9107 9.41074C16.7544 9.56702 16.6666 9.77899 16.6666 10V15C16.6666 15.221 16.5788 15.433 16.4225 15.5893C16.2663 15.7455 16.0543 15.8333 15.8333 15.8333H4.16663C3.94561 15.8333 3.73365 15.7455 3.57737 15.5893C3.42109 15.433 3.33329 15.221 3.33329 15V7.00833L8.23329 11.9167C8.70204 12.3848 9.33746 12.6478 9.99996 12.6478C10.6625 12.6478 11.2979 12.3848 11.7666 11.9167L13.825 9.85833C13.9819 9.70141 14.07 9.48858 14.07 9.26667C14.07 9.04475 13.9819 8.83192 13.825 8.675C13.668 8.51808 13.4552 8.42992 13.2333 8.42992C13.0114 8.42992 12.7985 8.51808 12.6416 8.675L10.5833 10.7333C10.4275 10.886 10.2181 10.9715 9.99996 10.9715C9.78183 10.9715 9.5724 10.886 9.41663 10.7333L4.50829 5.83333H10.8333C11.0543 5.83333 11.2663 5.74554 11.4225 5.58926C11.5788 5.43298 11.6666 5.22101 11.6666 5C11.6666 4.77899 11.5788 4.56702 11.4225 4.41074C11.2663 4.25446 11.0543 4.16667 10.8333 4.16667H4.16663C3.50358 4.16667 2.8677 4.43006 2.39886 4.8989C1.93002 5.36774 1.66663 6.00363 1.66663 6.66667V15C1.66663 15.663 1.93002 16.2989 2.39886 16.7678C2.8677 17.2366 3.50358 17.5 4.16663 17.5H15.8333C16.4963 17.5 17.1322 17.2366 17.6011 16.7678C18.0699 16.2989 18.3333 15.663 18.3333 15V10C18.3333 9.77899 18.2455 9.56702 18.0892 9.41074C17.9329 9.25446 17.721 9.16667 17.5 9.16667Z" fill="white"/>
</svg>
