<svg width="19" height="19" viewBox="0 0 19 19" fill="none" xmlns="http://www.w3.org/2000/svg">
<path d="M4.29999 2.07422H14.2C15.025 2.07422 15.7 2.74922 15.7 3.57422V5.22422C15.7 5.82422 15.325 6.57422 14.95 6.94922L11.725 9.79922C11.275 10.1742 10.975 10.9242 10.975 11.5242V14.7492C10.975 15.1992 10.675 15.7992 10.3 16.0242L9.24999 16.6992C8.27499 17.2992 6.92499 16.6242 6.92499 15.4242V11.4492C6.92499 10.9242 6.62499 10.2492 6.32499 9.87422L3.47499 6.87422C3.09999 6.49922 2.79999 5.82422 2.79999 5.37422V3.64922C2.79999 2.74922 3.47499 2.07422 4.29999 2.07422Z" stroke="#FBFAFA" stroke-miterlimit="10" stroke-linecap="round" stroke-linejoin="round"/>
<path d="M8.4475 2.07422L4.75 7.99922" stroke="#FBFAFA" stroke-miterlimit="10" stroke-linecap="round" stroke-linejoin="round"/>
</svg>
