<svg width="19" height="19" viewBox="0 0 19 19" fill="none" xmlns="http://www.w3.org/2000/svg">
<path fill-rule="evenodd" clip-rule="evenodd" d="M9.12475 16.9471C9.14707 16.96 9.16461 16.97 9.17703 16.977L9.19767 16.9885C9.36235 17.0789 9.56664 17.0782 9.73148 16.9888L9.75266 16.977C9.76508 16.97 9.78262 16.96 9.80494 16.9471C9.84957 16.9212 9.91336 16.8835 9.99355 16.8341C10.1539 16.7354 10.3802 16.5898 10.6505 16.3988C11.1903 16.0175 11.9105 15.4518 12.6323 14.7128C14.0689 13.2419 15.561 11.032 15.561 8.18994C15.561 4.82311 12.8317 2.09375 9.46484 2.09375C6.09801 2.09375 3.36865 4.82311 3.36865 8.18994C3.36865 11.032 4.8608 13.2419 6.29738 14.7128C7.01916 15.4518 7.73937 16.0175 8.27914 16.3988C8.54949 16.5898 8.77582 16.7354 8.93614 16.8341C9.01633 16.8835 9.08011 16.9212 9.12475 16.9471ZM9.46484 10.4067C10.6891 10.4067 11.6816 9.41425 11.6816 8.18994C11.6816 6.96564 10.6891 5.97315 9.46484 5.97315C8.24054 5.97315 7.24805 6.96564 7.24805 8.18994C7.24805 9.41425 8.24054 10.4067 9.46484 10.4067Z" fill="#139ED5"/>
</svg>
