<svg width="20" height="18" viewBox="0 0 20 18" fill="none" xmlns="http://www.w3.org/2000/svg">
<g clip-path="url(#clip0_5297_1138)">
<path d="M10.0119 15.959C7.01369 15.959 4.01627 15.959 1.01806 15.959C0.714934 15.959 0.574786 16.0977 0.574786 16.3969C0.574786 16.4745 0.578723 16.552 0.573999 16.6287C0.5677 16.7217 0.558252 16.8148 0.54093 16.9055C0.476368 17.2365 0.159068 17.5016 -0.220432 17.4977C-0.601507 17.4938 -0.917233 17.2109 -0.974709 16.8473C-0.988094 16.7621 -0.99518 16.6745 -0.99518 16.5884C-0.995967 14.8272 -1.00778 13.0652 -0.991243 11.3039C-0.981795 10.2776 -0.602295 9.38454 0.125212 8.64112C0.566913 8.18996 1.09207 7.86903 1.69282 7.66438C2.16522 7.50392 2.65338 7.45508 3.15098 7.45508C7.76246 7.45663 12.3739 7.45275 16.9854 7.45818C18.3365 7.45973 19.4309 7.99616 20.2419 9.06283C20.6403 9.58764 20.8781 10.1838 20.9592 10.8349C20.9867 11.0543 20.9985 11.2776 20.9993 11.4993C21.0025 13.2093 21.0017 14.9194 21.0009 16.6295C21.0009 16.8969 20.934 17.1403 20.7104 17.3171C20.4741 17.5039 20.2104 17.5528 19.9293 17.4388C19.66 17.3287 19.49 17.1264 19.4514 16.8372C19.4317 16.6915 19.4341 16.5419 19.4301 16.3946C19.4238 16.1566 19.3238 16.0132 19.1239 15.969C19.0798 15.959 19.0333 15.9597 18.9876 15.9597C15.9965 15.9597 13.0054 15.9597 10.0135 15.9597L10.0119 15.959Z" fill="#323232"/>
<path d="M9.90246 0.5C11.8472 0.5 13.7912 0.5 15.7351 0.5C16.3862 0.5 16.9949 0.643411 17.52 1.03953C18.1956 1.54884 18.59 2.21938 18.6231 3.06124C18.6514 3.77519 18.6388 4.4907 18.642 5.20543C18.6444 5.66589 18.642 6.12636 18.642 6.58682C18.642 6.62791 18.6396 6.67132 18.6286 6.71085C18.5948 6.83566 18.5263 6.88527 18.3971 6.86124C18.2562 6.83488 18.12 6.77829 17.979 6.76279C17.6476 6.72713 17.3153 6.70233 16.9823 6.68527C16.7602 6.67364 16.6917 6.63411 16.6602 6.41938C16.5595 5.73876 15.9194 5.12636 15.1005 5.13566C14.1872 5.14574 13.2739 5.13798 12.3613 5.13798C11.6819 5.13798 11.1016 5.53643 10.8709 6.16434C10.8378 6.25426 10.8252 6.35194 10.8079 6.44651C10.7756 6.61628 10.7119 6.67984 10.5402 6.68217C10.1804 6.68605 9.81979 6.68605 9.45997 6.68217C9.29463 6.68062 9.22928 6.61628 9.19936 6.42791C9.15763 6.16357 9.0537 5.92791 8.88364 5.72093C8.57579 5.34574 8.17739 5.14186 7.68609 5.13953C6.74363 5.13488 5.80118 5.13721 4.85794 5.13876C4.06587 5.13953 3.44623 5.74884 3.34545 6.41783C3.31317 6.63411 3.24782 6.67209 3.02579 6.68605C2.6581 6.71008 2.29041 6.74419 1.92351 6.78295C1.81092 6.79457 1.70305 6.84264 1.59125 6.86124C1.47078 6.88062 1.41488 6.84031 1.38103 6.72403C1.36764 6.67829 1.36134 6.62946 1.36134 6.5814C1.36055 5.47674 1.3456 4.37209 1.36449 3.26744C1.38418 2.11163 1.92666 1.26202 2.988 0.748062C3.40844 0.545736 3.86431 0.5 4.3257 0.5C6.18462 0.5 8.04354 0.5 9.90246 0.5Z" fill="#323232"/>
</g>
<defs>
<clipPath id="clip0_5297_1138">
<rect width="22" height="17" fill="white" transform="translate(-1 0.5)"/>
</clipPath>
</defs>
</svg>
