<svg width="20" height="20" viewBox="0 0 20 20" fill="none" xmlns="http://www.w3.org/2000/svg">
<path d="M5 13.75H15C16.517 13.75 17.75 12.517 17.75 11V6C17.75 4.483 16.517 3.25 15 3.25H14.75V2C14.75 1.035 13.965 0.25 13 0.25H7C6.035 0.25 5.25 1.035 5.25 2V3.25H5C3.483 3.25 2.25 4.483 2.25 6V11C2.25 12.517 3.483 13.75 5 13.75ZM11.75 4.75V12.25H8.25V4.75H11.75ZM15 4.75C15.689 4.75 16.25 5.311 16.25 6V11C16.25 11.689 15.689 12.25 15 12.25H13.25V4.75H15ZM6.75 2C6.75 1.862 6.862 1.75 7 1.75H13C13.138 1.75 13.25 1.862 13.25 2V3.25H6.75V2ZM3.75 6C3.75 5.311 4.311 4.75 5 4.75H6.75V12.25H5C4.311 12.25 3.75 11.689 3.75 11V6ZM17.5 15.25H2.5C1.26 15.25 0.25 16.259 0.25 17.5C0.25 18.741 1.26 19.75 2.5 19.75H17.5C18.74 19.75 19.75 18.741 19.75 17.5C19.75 16.259 18.74 15.25 17.5 15.25ZM17.5 18.25H2.5C2.087 18.25 1.75 17.914 1.75 17.5C1.75 17.086 2.087 16.75 2.5 16.75H17.5C17.913 16.75 18.25 17.086 18.25 17.5C18.25 17.914 17.913 18.25 17.5 18.25Z" fill="#139ED5"/>
</svg>
