<svg width="20" height="20" viewBox="0 0 20 20" fill="none" xmlns="http://www.w3.org/2000/svg">
<path fill-rule="evenodd" clip-rule="evenodd" d="M19.1092 4.79181C19.0999 5.17693 18.7809 5.48205 18.3957 5.47368C18.0106 5.46438 17.7055 5.1453 17.7139 4.76018L17.752 3.08016L16.0729 3.04202C15.6878 3.03272 15.3827 2.71364 15.391 2.32852C15.4003 1.9434 15.7194 1.63828 16.1045 1.64665L18.4822 1.70154C18.8674 1.70991 19.1725 2.02898 19.1632 2.4141L19.1092 4.79181Z" fill="#139ED5"/>
<path fill-rule="evenodd" clip-rule="evenodd" d="M4.25773 7.53037V18.8245C4.25773 19.4738 3.73214 19.9994 3.08283 19.9994H1.1749C0.525589 19.9994 0 19.4738 0 18.8245V7.53037C0 6.88199 0.525589 6.35547 1.1749 6.35547H3.08283C3.73214 6.35547 4.25773 6.88199 4.25773 7.53037ZM1.39537 7.75084V18.604H2.86236V7.75084H1.39537Z" fill="#139ED5"/>
<path fill-rule="evenodd" clip-rule="evenodd" d="M14.7526 13.255V18.8244C14.7526 19.136 14.6289 19.4346 14.4084 19.6551C14.1879 19.8755 13.8893 19.9993 13.5777 19.9993H11.6698C11.3581 19.9993 11.0595 19.8755 10.8391 19.6551C10.6186 19.4346 10.4949 19.136 10.4949 18.8244V13.255C10.4949 12.9433 10.6186 12.6447 10.8391 12.4243C11.0595 12.2038 11.3581 12.0801 11.6698 12.0801H13.5777C13.8893 12.0801 14.1879 12.2038 14.4084 12.4243C14.6289 12.6447 14.7526 12.9433 14.7526 13.255ZM11.8902 13.4754V18.6039H13.3572V13.4754H11.8902Z" fill="#139ED5"/>
<path fill-rule="evenodd" clip-rule="evenodd" d="M9.50529 10.3937V18.8254C9.50529 19.4747 8.9797 20.0003 8.33039 20.0003H6.42246C5.77315 20.0003 5.24756 19.4747 5.24756 18.8254V10.3937C5.24756 10.082 5.37128 9.78341 5.59175 9.56294C5.81222 9.34247 6.11083 9.21875 6.42246 9.21875H8.33039C8.9797 9.21875 9.50529 9.74527 9.50529 10.3937ZM6.64293 10.6141V18.6049H8.10992V10.6141H6.64293Z" fill="#139ED5"/>
<path fill-rule="evenodd" clip-rule="evenodd" d="M20.0002 10.3937V18.8254C20.0002 19.4747 19.4746 20.0003 18.8253 20.0003H16.9173C16.268 20.0003 15.7424 19.4747 15.7424 18.8254V10.3937C15.7424 10.082 15.8662 9.78341 16.0866 9.56294C16.3071 9.34247 16.6057 9.21875 16.9173 9.21875H18.8253C19.4746 9.21875 20.0002 9.74527 20.0002 10.3937ZM17.1378 10.6141V18.6049H18.6048V10.6141H17.1378Z" fill="#139ED5"/>
<path fill-rule="evenodd" clip-rule="evenodd" d="M1.11639 1.25556C0.807548 1.02486 0.745222 0.586713 0.976853 0.278802C1.20755 -0.0291092 1.64477 -0.0914356 1.95361 0.139265L7.49136 4.29281H10.1212C10.336 4.29281 10.5379 4.39142 10.67 4.55979L12.7975 7.26773L17.7278 2.12255C17.9938 1.8444 18.4357 1.8351 18.7138 2.10208C18.992 2.36813 19.0013 2.81 18.7352 3.08814L13.2486 8.81287C13.1091 8.95892 12.9128 9.03706 12.711 9.02683C12.5091 9.01752 12.3212 8.91985 12.1965 8.76078L9.78255 5.68818H7.2588C7.1081 5.68818 6.96112 5.6398 6.84019 5.54864L1.11639 1.25556Z" fill="#139ED5"/>
</svg>
