<svg width="20" height="20" viewBox="0 0 20 20" fill="none" xmlns="http://www.w3.org/2000/svg">
<path d="M9.99736 20.0012C8.68396 20.0036 7.38307 19.7464 6.16938 19.2445C4.95569 18.7426 3.85318 18.0058 2.92515 17.0764C-0.975049 13.1762 -0.975049 6.83057 2.92515 2.93038C3.85178 1.99854 4.95406 1.25974 6.16815 0.756748C7.38221 0.25375 8.684 -0.00345047 9.99818 3.4955e-05C12.67 3.4955e-05 15.1819 1.0403 17.0704 2.93038C18.9597 4.81967 20.0007 7.33149 20.0007 10.0034C20.0007 12.6753 18.9604 15.1871 17.0704 17.0764C16.1422 18.0058 15.0395 18.7426 13.8257 19.2445C12.6119 19.7464 11.3109 20.0036 9.99736 20.0012ZM9.99818 1.60044C8.89422 1.59731 7.80064 1.81325 6.78076 2.23577C5.76087 2.65828 4.83495 3.27897 4.05664 4.06185C2.46983 5.64869 1.59601 7.7588 1.59601 10.0034C1.59601 12.248 2.46983 14.3573 4.05664 15.9449C7.33267 19.2209 12.6636 19.2218 15.9389 15.9449C17.5257 14.3581 18.4003 12.248 18.4003 10.0034C18.4003 7.7588 17.5265 5.64947 15.9389 4.06185C15.1605 3.2792 14.2348 2.65867 13.2151 2.23617C12.1953 1.81367 11.102 1.59759 9.99818 1.60044Z" fill="#919191"/>
<path d="M6.60244 14.1976C6.44403 14.198 6.28907 14.1512 6.15727 14.0634C6.02547 13.9755 5.92272 13.8505 5.86212 13.7041C5.80147 13.5578 5.78575 13.3967 5.81679 13.2414C5.84789 13.086 5.92444 12.9434 6.03671 12.8317L12.8264 6.04194C12.9007 5.96766 12.9889 5.90873 13.086 5.86849C13.183 5.82828 13.2871 5.80762 13.3922 5.80762C13.4972 5.80762 13.6013 5.82828 13.6983 5.86849C13.7954 5.90873 13.8836 5.96766 13.9579 6.04194C14.0322 6.11623 14.0912 6.20443 14.1314 6.30151C14.1716 6.3986 14.1923 6.50262 14.1923 6.60768C14.1923 6.71274 14.1716 6.8168 14.1314 6.91389C14.0912 7.01093 14.0322 7.09913 13.9579 7.17341L7.16818 13.9632C7.09407 14.0377 7.00592 14.0968 6.90879 14.1371C6.8117 14.1773 6.70755 14.1979 6.60244 14.1976Z" fill="#919191"/>
<path d="M13.3926 14.1976C13.2875 14.1977 13.1834 14.1771 13.0863 14.1368C12.9892 14.0966 12.901 14.0376 12.8268 13.9632L6.03706 7.17341C5.96277 7.09913 5.90385 7.01093 5.86365 6.91389C5.82345 6.8168 5.80273 6.71274 5.80273 6.60768C5.80273 6.50262 5.82345 6.3986 5.86365 6.30151C5.90385 6.20443 5.96277 6.11623 6.03706 6.04194C6.11139 5.96766 6.19959 5.90873 6.29663 5.86849C6.39372 5.82828 6.49778 5.80762 6.60284 5.80762C6.7079 5.80762 6.81192 5.82828 6.90901 5.86849C7.00609 5.90873 7.09429 5.96766 7.16858 6.04194L13.9583 12.8317C14.0706 12.9434 14.1471 13.086 14.1782 13.2414C14.2093 13.3967 14.1935 13.5578 14.1329 13.7041C14.0723 13.8505 13.9695 13.9755 13.8377 14.0634C13.7059 14.1512 13.551 14.198 13.3926 14.1976Z" fill="#919191"/>
</svg>
