<svg width="24" height="24" viewBox="0 0 24 24" fill="none" xmlns="http://www.w3.org/2000/svg">
<path fill-rule="evenodd" clip-rule="evenodd" d="M21.1092 6.79181C21.0999 7.17693 20.7809 7.48205 20.3957 7.47368C20.0106 7.46438 19.7055 7.1453 19.7139 6.76018L19.752 5.08016L18.0729 5.04202C17.6878 5.03272 17.3827 4.71364 17.391 4.32852C17.4003 3.9434 17.7194 3.63828 18.1045 3.64665L20.4822 3.70154C20.8674 3.70991 21.1725 4.02898 21.1632 4.4141L21.1092 6.79181Z" fill="#E2E2E2"/>
<path fill-rule="evenodd" clip-rule="evenodd" d="M6.25773 9.53037V20.8245C6.25773 21.4738 5.73214 21.9994 5.08283 21.9994H3.1749C2.52559 21.9994 2 21.4738 2 20.8245V9.53037C2 8.88199 2.52559 8.35547 3.1749 8.35547H5.08283C5.73214 8.35547 6.25773 8.88199 6.25773 9.53037ZM3.39537 9.75084V20.604H4.86236V9.75084H3.39537Z" fill="#E2E2E2"/>
<path fill-rule="evenodd" clip-rule="evenodd" d="M16.7526 15.255V20.8244C16.7526 21.136 16.6289 21.4346 16.4084 21.6551C16.1879 21.8755 15.8893 21.9993 15.5777 21.9993H13.6698C13.3581 21.9993 13.0595 21.8755 12.8391 21.6551C12.6186 21.4346 12.4949 21.136 12.4949 20.8244V15.255C12.4949 14.9433 12.6186 14.6447 12.8391 14.4243C13.0595 14.2038 13.3581 14.0801 13.6698 14.0801H15.5777C15.8893 14.0801 16.1879 14.2038 16.4084 14.4243C16.6289 14.6447 16.7526 14.9433 16.7526 15.255ZM13.8902 15.4754V20.6039H15.3572V15.4754H13.8902Z" fill="#E2E2E2"/>
<path fill-rule="evenodd" clip-rule="evenodd" d="M11.5053 12.3937V20.8254C11.5053 21.4747 10.9797 22.0003 10.3304 22.0003H8.42246C7.77315 22.0003 7.24756 21.4747 7.24756 20.8254V12.3937C7.24756 12.082 7.37128 11.7834 7.59175 11.5629C7.81222 11.3425 8.11083 11.2188 8.42246 11.2188H10.3304C10.9797 11.2188 11.5053 11.7453 11.5053 12.3937ZM8.64293 12.6141V20.6049H10.1099V12.6141H8.64293Z" fill="#E2E2E2"/>
<path fill-rule="evenodd" clip-rule="evenodd" d="M22.0002 12.3937V20.8254C22.0002 21.4747 21.4746 22.0003 20.8253 22.0003H18.9173C18.268 22.0003 17.7424 21.4747 17.7424 20.8254V12.3937C17.7424 12.082 17.8662 11.7834 18.0866 11.5629C18.3071 11.3425 18.6057 11.2188 18.9173 11.2188H20.8253C21.4746 11.2188 22.0002 11.7453 22.0002 12.3937ZM19.1378 12.6141V20.6049H20.6048V12.6141H19.1378Z" fill="#E2E2E2"/>
<path fill-rule="evenodd" clip-rule="evenodd" d="M3.11639 3.25556C2.80755 3.02486 2.74522 2.58671 2.97685 2.2788C3.20755 1.97089 3.64477 1.90856 3.95361 2.13927L9.49136 6.29281H12.1212C12.336 6.29281 12.5379 6.39142 12.67 6.55979L14.7975 9.26773L19.7278 4.12255C19.9938 3.8444 20.4357 3.8351 20.7138 4.10208C20.992 4.36813 21.0013 4.81 20.7352 5.08814L15.2486 10.8129C15.1091 10.9589 14.9128 11.0371 14.711 11.0268C14.5091 11.0175 14.3212 10.9198 14.1965 10.7608L11.7826 7.68818H9.2588C9.1081 7.68818 8.96112 7.6398 8.84019 7.54864L3.11639 3.25556Z" fill="#E2E2E2"/>
</svg>
