<svg width="24" height="24" viewBox="0 0 24 24" fill="none" xmlns="http://www.w3.org/2000/svg">
<g clip-path="url(#clip0_5815_4364)">
<path d="M19.2854 10.7773L16.894 13.1679L15.8568 12.1239C15.7763 12.0435 15.6672 11.9984 15.5535 11.9985C15.4398 11.9986 15.3307 12.0438 15.2504 12.1243C15.17 12.2048 15.1249 12.3139 15.125 12.4276C15.1251 12.5414 15.1703 12.6504 15.2508 12.7308L16.5974 14.0773C16.6778 14.1577 16.7867 14.2028 16.9004 14.2028C17.014 14.2028 17.123 14.1577 17.2034 14.0773L19.8982 11.3833C19.9392 11.3438 19.9718 11.2965 19.9943 11.2442C20.0167 11.1919 20.0286 11.1357 20.0291 11.0788C20.0296 11.0219 20.0187 10.9654 19.9972 10.9128C19.9756 10.8601 19.9438 10.8123 19.9036 10.772C19.8633 10.7318 19.8155 10.6999 19.7628 10.6784C19.7101 10.6568 19.6537 10.646 19.5968 10.6465C19.5399 10.647 19.4836 10.6588 19.4314 10.6813C19.3791 10.7037 19.3318 10.7364 19.2922 10.7773H19.2854Z" fill="#E2E2E2"/>
<path d="M22.7137 12.428C22.7115 11.2138 22.2801 10.0395 21.4959 9.11256C20.7117 8.18561 19.625 7.56567 18.428 7.3623V5.1423C18.4281 5.08598 18.4171 5.0302 18.3956 4.97813C18.3742 4.92607 18.3426 4.87875 18.3029 4.83887L14.8743 1.4103C14.8344 1.37053 14.7871 1.339 14.735 1.31753C14.683 1.29606 14.6272 1.28506 14.5709 1.28516H4.28516C4.17149 1.28516 4.06248 1.33031 3.98211 1.41068C3.90174 1.49106 3.85659 1.60006 3.85659 1.71373V3.85659H1.71373C1.60006 3.85659 1.49105 3.90174 1.41068 3.98211C1.33031 4.06248 1.28516 4.17149 1.28516 4.28516V22.2852C1.28516 22.3988 1.33031 22.5078 1.41068 22.5882C1.49105 22.6686 1.60006 22.7137 1.71373 22.7137H16.2852C16.3988 22.7137 16.5078 22.6686 16.5882 22.5882C16.6686 22.5078 16.7137 22.3988 16.7137 22.2852V20.1423H17.9994C18.1131 20.1423 18.2221 20.0971 18.3025 20.0168C18.3829 19.9364 18.428 19.8274 18.428 19.7137V17.4937C19.625 17.2904 20.7117 16.6704 21.4959 15.7435C22.2801 14.8165 22.7115 13.6422 22.7137 12.428ZM14.9994 2.7483L16.9649 4.71373H14.9994V2.7483ZM15.8566 21.8566H2.1423V4.71373H3.85659V19.7137C3.85659 19.8274 3.90174 19.9364 3.98211 20.0168C4.06248 20.0971 4.17149 20.1423 4.28516 20.1423H15.8566V21.8566ZM17.5709 19.2852H4.71373V2.1423H14.1423V5.1423C14.1423 5.25596 14.1875 5.36497 14.2678 5.44535C14.3482 5.52572 14.4572 5.57087 14.5709 5.57087H17.5709V7.28516C16.2069 7.28516 14.8988 7.82699 13.9343 8.79147C12.9698 9.75594 12.428 11.064 12.428 12.428C12.428 13.792 12.9698 15.1001 13.9343 16.0646C14.8988 17.029 16.2069 17.5709 17.5709 17.5709V19.2852ZM17.5709 16.7137C16.7232 16.7137 15.8946 16.4624 15.1899 15.9915C14.4851 15.5205 13.9358 14.8512 13.6114 14.0681C13.287 13.285 13.2021 12.4233 13.3675 11.5919C13.5329 10.7606 13.941 9.99693 14.5404 9.39756C15.1398 8.79819 15.9034 8.39001 16.7348 8.22465C17.5661 8.05928 18.4278 8.14416 19.2109 8.46853C19.9941 8.79291 20.6634 9.34222 21.1343 10.047C21.6052 10.7518 21.8566 11.5804 21.8566 12.428C21.8552 13.5642 21.4033 14.6535 20.5998 15.457C19.7964 16.2604 18.7071 16.7124 17.5709 16.7137Z" fill="#E2E2E2"/>
<path d="M8.99916 11.6953L7.6723 13.0273L7.15802 12.513C7.07766 12.4326 6.96862 12.3873 6.85489 12.3872C6.74117 12.3871 6.63207 12.4322 6.55159 12.5126C6.47112 12.593 6.42586 12.702 6.42578 12.8157C6.4257 12.9295 6.4708 13.0386 6.55116 13.119L7.36802 13.935C7.44839 14.0154 7.55738 14.0605 7.67102 14.0605C7.78466 14.0605 7.89365 14.0154 7.97402 13.935L9.60688 12.3065C9.68735 12.2261 9.73261 12.1171 9.73269 12.0033C9.73277 11.8896 9.68767 11.7805 9.60731 11.7C9.52695 11.6196 9.41791 11.5743 9.30418 11.5742C9.19045 11.5741 9.08135 11.6192 9.00088 11.6996L8.99916 11.6953Z" fill="#E2E2E2"/>
<path d="M8.99916 15.125L7.6723 16.457L7.15802 15.9427C7.11823 15.9029 7.07098 15.8712 7.01897 15.8497C6.96696 15.8281 6.91121 15.8169 6.85489 15.8169C6.79858 15.8169 6.74281 15.8279 6.69077 15.8494C6.63873 15.8709 6.59144 15.9025 6.55159 15.9423C6.51174 15.9821 6.48012 16.0293 6.45854 16.0813C6.43695 16.1333 6.42582 16.1891 6.42578 16.2454C6.42574 16.3017 6.43679 16.3575 6.45831 16.4095C6.47982 16.4616 6.51137 16.5089 6.55116 16.5487L7.36802 17.3647C7.44839 17.4451 7.55738 17.4902 7.67102 17.4902C7.78466 17.4902 7.89365 17.4451 7.97402 17.3647L9.60688 15.7361C9.68735 15.6558 9.73261 15.5467 9.73269 15.433C9.73277 15.3193 9.68767 15.2102 9.60731 15.1297C9.52695 15.0492 9.41791 15.004 9.30418 15.0039C9.19045 15.0038 9.08135 15.0489 9.00088 15.1293L8.99916 15.125Z" fill="#E2E2E2"/>
<path d="M6.85826 4.71456H12.0011C12.1148 4.71456 12.2238 4.66941 12.3042 4.58904C12.3845 4.50867 12.4297 4.39966 12.4297 4.28599C12.4297 4.17233 12.3845 4.06332 12.3042 3.98295C12.2238 3.90257 12.1148 3.85742 12.0011 3.85742H6.85826C6.74459 3.85742 6.63559 3.90257 6.55521 3.98295C6.47484 4.06332 6.42969 4.17233 6.42969 4.28599C6.42969 4.39966 6.47484 4.50867 6.55521 4.58904C6.63559 4.66941 6.74459 4.71456 6.85826 4.71456Z" fill="#E2E2E2"/>
<path d="M12.0011 6.42773H6.85826C6.74459 6.42773 6.63559 6.47289 6.55521 6.55326C6.47484 6.63363 6.42969 6.74264 6.42969 6.85631C6.42969 6.96997 6.47484 7.07898 6.55521 7.15935C6.63559 7.23972 6.74459 7.28488 6.85826 7.28488H12.0011C12.1148 7.28488 12.2238 7.23972 12.3042 7.15935C12.3845 7.07898 12.4297 6.96997 12.4297 6.85631C12.4297 6.74264 12.3845 6.63363 12.3042 6.55326C12.2238 6.47289 12.1148 6.42773 12.0011 6.42773Z" fill="#E2E2E2"/>
<path d="M9.42969 9H6.85826C6.74459 9 6.63559 9.04515 6.55521 9.12553C6.47484 9.2059 6.42969 9.31491 6.42969 9.42857C6.42969 9.54224 6.47484 9.65124 6.55521 9.73162C6.63559 9.81199 6.74459 9.85714 6.85826 9.85714H9.42969C9.54335 9.85714 9.65236 9.81199 9.73273 9.73162C9.81311 9.65124 9.85826 9.54224 9.85826 9.42857C9.85826 9.31491 9.81311 9.2059 9.73273 9.12553C9.65236 9.04515 9.54335 9 9.42969 9Z" fill="#E2E2E2"/>
</g>
<defs>
<clipPath id="clip0_5815_4364">
<rect width="24" height="24" fill="white"/>
</clipPath>
</defs>
</svg>
