<svg width="24" height="24" viewBox="0 0 24 24" fill="none" xmlns="http://www.w3.org/2000/svg">
<g clip-path="url(#clip0_5815_3921)">
<path d="M23.0835 20.3462H21.3528V11.5164C21.3528 11.1562 21.0598 10.8632 20.6996 10.8632H15.3518V8.31731C15.3518 7.95709 15.0588 7.66406 14.6986 7.66406H9.30137C8.94114 7.66406 8.64816 7.95709 8.64816 8.31731V10.8077C8.64816 11.0017 8.80545 11.1591 8.99957 11.1591C9.19369 11.1591 9.35098 11.0017 9.35098 10.8077V8.36689H14.6491V20.3463H9.35094V12.3052C9.35094 12.1112 9.19365 11.9538 8.99953 11.9538C8.80541 11.9538 8.64811 12.1112 8.64811 12.3052V13.562H3.30037C2.94015 13.562 2.64716 13.855 2.64716 14.2152V20.3463H0.916483C0.411152 20.3463 0 20.7574 0 21.2628V23.6342C0 23.8282 0.157292 23.9856 0.351412 23.9856H23.6486C23.8427 23.9856 24 23.8282 24 23.6342V21.2628C24 20.7574 23.5888 20.3462 23.0835 20.3462ZM3.34999 14.2648H8.64811V20.3462H3.34999V14.2648ZM23.2972 23.2827H0.702824V21.2628C0.702824 21.1449 0.798643 21.0491 0.916483 21.0491H17.4387C17.6328 21.0491 17.7901 20.8918 17.7901 20.6977C17.7901 20.5036 17.6328 20.3463 17.4387 20.3463H15.3519V11.566H20.65V20.3463H18.9363C18.7422 20.3463 18.5849 20.5036 18.5849 20.6977C18.5849 20.8918 18.7422 21.0491 18.9363 21.0491H23.0836C23.2014 21.0491 23.2972 21.1449 23.2972 21.2628V23.2827H23.2972Z" fill="#E2E2E2"/>
<path d="M9.91092 4.29748L9.63237 5.92166C9.5917 6.15856 9.68723 6.39354 9.88168 6.5348C10.0761 6.67607 10.3291 6.69439 10.542 6.58255L12.0006 5.81567L13.4592 6.58255C13.5518 6.63119 13.6519 6.65522 13.7516 6.65522C13.881 6.65522 14.0096 6.61465 14.1195 6.5348C14.314 6.39349 14.4095 6.15856 14.3688 5.92166L14.0903 4.29743L15.2704 3.14714C15.4425 2.97936 15.5033 2.73313 15.429 2.50453C15.3548 2.27592 15.1608 2.1124 14.9229 2.07787L13.2921 1.84087L12.5627 0.363163C12.4564 0.147583 12.241 0.0136719 12.0006 0.0136719C11.7601 0.0136719 11.5447 0.147583 11.4384 0.363116L10.7091 1.84087L9.07826 2.07787C8.84038 2.1124 8.64645 2.27592 8.57218 2.50453C8.49787 2.73313 8.55869 2.97936 8.73078 3.14714L9.91092 4.29748ZM10.8497 2.53067C11.0539 2.50101 11.2304 2.37277 11.3217 2.18774L12.0006 0.812127L12.6794 2.18774C12.7708 2.37277 12.9473 2.50101 13.1515 2.53067L14.6696 2.75127L13.571 3.82209C13.4233 3.96617 13.3558 4.1736 13.3907 4.37699L13.65 5.88896L12.2923 5.17517C12.1095 5.07902 11.8914 5.07907 11.7087 5.17512L10.3509 5.88896L10.6103 4.37699C10.6451 4.17364 10.5778 3.96617 10.4299 3.82209L9.33142 2.75131L10.8497 2.53067Z" fill="#E2E2E2"/>
<path d="M17.0879 3.33383C17.0879 3.52791 17.2452 3.68525 17.4393 3.68525H17.9426C18.1367 3.68525 18.294 3.52791 18.294 3.33383C18.294 3.13976 18.1367 2.98242 17.9426 2.98242H17.4393C17.2452 2.98242 17.0879 3.13971 17.0879 3.33383Z" fill="#E2E2E2"/>
<path d="M16.8322 1.23126C16.8807 1.23126 16.9301 1.22114 16.9772 1.19977L17.4355 0.991781C17.6122 0.911566 17.6904 0.703248 17.6102 0.526558C17.53 0.349868 17.3217 0.27162 17.145 0.351789L16.6867 0.559779C16.51 0.639994 16.4318 0.848311 16.512 1.025C16.5708 1.1546 16.6985 1.23126 16.8322 1.23126Z" fill="#E2E2E2"/>
<path d="M16.6867 6.10897L17.145 6.31696C17.1921 6.33832 17.2415 6.34844 17.29 6.34844C17.4237 6.34844 17.5514 6.27179 17.6102 6.14219C17.6904 5.9655 17.6122 5.75718 17.4355 5.67697L16.9772 5.46898C16.8004 5.38881 16.5921 5.46706 16.512 5.64375C16.4318 5.82044 16.51 6.02875 16.6867 6.10897Z" fill="#E2E2E2"/>
<path d="M6.10532 3.68525H6.60859C6.80271 3.68525 6.96 3.52791 6.96 3.33383C6.96 3.13976 6.80271 2.98242 6.60859 2.98242H6.10532C5.9112 2.98242 5.75391 3.13976 5.75391 3.33383C5.75391 3.52791 5.9112 3.68525 6.10532 3.68525Z" fill="#E2E2E2"/>
<path d="M6.61052 0.991801L7.06881 1.19979C7.11595 1.22116 7.16529 1.23128 7.21383 1.23128C7.34751 1.23128 7.47523 1.15462 7.53404 1.02502C7.61425 0.848331 7.536 0.640014 7.35931 0.559799L6.90103 0.351809C6.72415 0.271594 6.51592 0.349888 6.4358 0.526578C6.35559 0.703269 6.43383 0.911586 6.61052 0.991801Z" fill="#E2E2E2"/>
<path d="M7.06881 5.46896L6.61052 5.67695C6.43383 5.75716 6.35559 5.96548 6.4358 6.14217C6.49461 6.27182 6.62233 6.34842 6.75601 6.34842C6.80455 6.34842 6.85394 6.3383 6.90103 6.31694L7.35931 6.10895C7.536 6.02873 7.61425 5.82042 7.53404 5.64373C7.45387 5.46704 7.2456 5.38883 7.06881 5.46896Z" fill="#E2E2E2"/>
</g>
<defs>
<clipPath id="clip0_5815_3921">
<rect width="24" height="24" fill="white"/>
</clipPath>
</defs>
</svg>
