<svg width="18" height="18" viewBox="0 0 18 18" fill="none" xmlns="http://www.w3.org/2000/svg">
<g clip-path="url(#clip0_8461_10029)">
<path d="M12.7647 7.79847C12.7068 7.79847 12.6474 7.80679 12.5879 7.8231L11.9161 8.00817L11.2185 6.30872C11.0208 5.82729 10.4366 5.43555 9.91621 5.43555H3.38722C2.86675 5.43555 2.2826 5.82729 2.08498 6.30872L1.38829 8.0058L0.724761 7.82304C0.665382 7.80672 0.605938 7.7984 0.548012 7.7984C0.230447 7.7984 0 8.041 0 8.37514V8.77118C0 9.16127 0.317434 9.4787 0.707522 9.4787H0.783545L0.670931 9.753C0.487313 10.2002 0.337843 10.9575 0.337843 11.4411V14.8172C0.337843 15.2073 0.655277 15.5247 1.04536 15.5247H1.9694C2.35949 15.5247 2.67692 15.2073 2.67692 14.8172V13.9742H10.6264V14.8172C10.6264 15.2073 10.9439 15.5247 11.334 15.5247H12.2579C12.6479 15.5247 12.9654 15.2073 12.9654 14.8172V11.4412C12.9654 10.9576 12.8159 10.2003 12.6323 9.75307L12.5197 9.47877H12.6051C12.9952 9.47877 13.3127 9.16133 13.3127 8.77124V8.37521C13.3127 8.04107 13.0822 7.79847 12.7647 7.79847ZM1.89549 9.09449L2.95083 6.52398C3.06905 6.236 3.42044 6.00034 3.73173 6.00034H9.57169C9.88298 6.00034 10.2344 6.23593 10.3526 6.52398L11.4079 9.09449C11.5261 9.38247 11.3682 9.61813 11.0569 9.61813H2.24661C1.93525 9.61806 1.77733 9.38247 1.89549 9.09449ZM4.25127 12.3459C4.25127 12.5016 4.12386 12.6289 3.96832 12.6289H1.96358C1.80791 12.6289 1.68056 12.5015 1.68056 12.3459V11.3838C1.68056 11.2282 1.80791 11.1009 1.96358 11.1009H3.96832C4.12386 11.1009 4.25127 11.2282 4.25127 11.3838V12.3459ZM11.6038 12.3459C11.6038 12.5016 11.4764 12.6289 11.3209 12.6289H9.31615C9.1606 12.6289 9.03319 12.5015 9.03319 12.3459V11.3838C9.03319 11.2282 9.1606 11.1009 9.31615 11.1009H11.3209C11.4764 11.1009 11.6038 11.2282 11.6038 11.3838V12.3459Z" fill="#139ED5"/>
<path d="M17.1149 2.47656H13.7638C13.2759 2.47656 12.8789 2.87359 12.8789 3.36149V6.71258C12.8789 7.20055 13.2759 7.59758 13.7638 7.59758H15.1091V15.1188C15.1091 15.3012 15.2569 15.449 15.4393 15.449C15.6217 15.449 15.7696 15.3012 15.7696 15.1188V7.59764H17.1149C17.6028 7.59764 17.9998 7.20062 17.9998 6.71265V3.36156C17.9998 2.87359 17.6028 2.47656 17.1149 2.47656ZM16.3559 5.25507C16.1631 5.42858 15.8793 5.51656 15.5122 5.51656H15.0269C14.9686 5.51656 14.9212 5.56404 14.9212 5.6223V6.44059C14.9212 6.52949 14.8489 6.60175 14.76 6.60175H14.3925C14.3035 6.60175 14.2313 6.52942 14.2313 6.44059V3.63382C14.2313 3.54485 14.3036 3.47252 14.3925 3.47252H15.3182C15.9315 3.47252 16.1604 3.56493 16.3486 3.72457C16.547 3.89293 16.6475 4.15078 16.6475 4.49114C16.6474 4.8237 16.5494 5.08063 16.3559 5.25507Z" fill="#139ED5"/>
<path d="M15.8312 4.15081C15.7417 4.08317 15.5832 4.04883 15.3604 4.04883H15.0276C14.9693 4.04883 14.9219 4.09625 14.9219 4.15444V4.82696C14.9219 4.88515 14.9693 4.93257 15.0276 4.93257H15.227C15.3002 4.93257 15.4186 4.92715 15.4908 4.92048C15.5608 4.91408 15.7587 4.88541 15.8312 4.83059C15.9184 4.76467 15.9626 4.65067 15.9626 4.49182C15.9626 4.33145 15.9184 4.21673 15.8312 4.15081Z" fill="#139ED5"/>
</g>
<defs>
<clipPath id="clip0_8461_10029">
<rect width="18" height="18" fill="white"/>
</clipPath>
</defs>
</svg>
