<svg width="24" height="24" viewBox="0 0 24 24" fill="none" xmlns="http://www.w3.org/2000/svg">
<g clip-path="url(#clip0_4169_1470)">
<path d="M22.8373 2.35897H18.9231V0.769229C18.9231 0.344409 18.5567 0 18.1318 0H11.6631C11.2383 0 10.8718 0.344409 10.8718 0.769229V2.35897H6.9576C6.36781 2.35897 5.73181 3.00497 5.95683 3.6022C7.06047 6.53086 9.57057 8.82126 12.6154 9.58111V10.5703C12.6154 10.9951 12.9506 11.3333 13.3754 11.3333H16.4195C16.8443 11.3333 17.1795 10.9951 17.1795 10.5703V9.58126C20.2247 8.82137 22.7319 6.5326 23.8355 3.60389C24.0595 3.00953 23.4242 2.35897 22.8373 2.35897ZM12.4103 1.53846H17.3847V2.35897H12.4103V1.53846ZM15.6411 9.79485H14.1539V8.20511H15.6411V9.79485ZM17.1795 7.98285V7.45911C17.1795 7.03429 16.8443 6.66665 16.4195 6.66665H13.3754C12.9506 6.66665 12.6154 7.03429 12.6154 7.45911V7.98285C10.5129 7.34998 8.77703 5.8945 7.77257 3.89743H22.0223C21.0179 5.8945 19.2821 7.35004 17.1795 7.98285ZM22.5128 16.1025H15.9488V14.5641H22.4616V6.97434H24V14.6154C24 15.4354 23.3329 16.1025 22.5128 16.1025ZM5.79494 6.76922H7.3334V8.25639H5.79494V6.76922ZM8.91483 23.9999H5.75196C5.35724 23.9999 5.02658 23.7012 4.98668 23.3086L4.83566 21.8234C4.5664 21.6964 4.30732 21.5488 4.06073 21.382L2.66279 22.0025C2.49006 22.0792 2.29516 22.0896 2.11525 22.0318C1.93534 21.9739 1.78302 21.8519 1.68736 21.6889L0.105923 18.9949C-0.0963843 18.6502 -0.00105122 18.2081 0.325256 17.9773L1.56038 17.1042C1.53854 16.818 1.53854 16.5303 1.56038 16.2442L0.325256 15.3709C-0.00110251 15.1402 -0.0963843 14.6981 0.105923 14.3534L1.68736 11.6595C1.88551 11.3221 2.3053 11.1871 2.66279 11.3458L4.06079 11.9663C4.30735 11.7995 4.5664 11.6519 4.83566 11.5249L4.98668 10.0323C5.02658 9.63967 5.35724 9.33342 5.75196 9.33342H8.91483C9.30954 9.33342 9.64021 9.63967 9.68011 10.0323L9.83113 11.5212C10.1006 11.6483 10.3594 11.7976 10.606 11.9645L12.004 11.3449C12.3616 11.1861 12.7814 11.3217 12.9794 11.6591L14.5609 14.3533C14.7632 14.6979 14.6679 15.1402 14.3415 15.3709L13.1064 16.2442C13.1283 16.5303 13.1283 16.818 13.1064 17.1042L14.3415 17.9774C14.6678 18.2081 14.7632 18.6503 14.5609 18.9949L12.9795 21.6888C12.7814 22.0263 12.3616 22.1613 12.0041 22.0025L10.6061 21.382C10.3595 21.5488 10.1005 21.6964 9.83118 21.8233L9.68016 23.3085C9.64021 23.7012 9.30954 23.9999 8.91483 23.9999ZM6.44699 22.4615H8.21985L8.34667 21.2146C8.3612 21.0717 8.41541 20.9358 8.50317 20.8222C8.59094 20.7085 8.70875 20.6217 8.84329 20.5716C9.2716 20.4122 9.67145 20.1848 10.0275 19.8983C10.1376 19.8097 10.2699 19.7531 10.4101 19.7348C10.5502 19.7166 10.6926 19.7372 10.8217 19.7946L12.0004 20.3177L12.8764 18.8255L11.8447 18.0962C11.7268 18.0129 11.6348 17.8981 11.5791 17.7649C11.5234 17.6318 11.5063 17.4857 11.5297 17.3433C11.6023 16.9001 11.6023 16.4481 11.5297 16.0049C11.5063 15.8625 11.5234 15.7164 11.5791 15.5833C11.6348 15.4502 11.7268 15.3354 11.8447 15.2521L12.8764 14.5226L12.0004 13.0305L10.8217 13.5536C10.6926 13.611 10.5502 13.6316 10.4101 13.6133C10.27 13.595 10.1376 13.5385 10.0275 13.4499C9.6715 13.1634 9.27165 12.9361 8.84334 12.7766C8.56883 12.6744 8.37632 12.4176 8.34667 12.1261L8.21985 10.8718H6.44699L6.32017 12.1262C6.29052 12.4177 6.09796 12.6707 5.8235 12.7729C5.39427 12.9329 4.99586 13.1613 4.6393 13.4481C4.41484 13.6286 4.10832 13.6696 3.84509 13.5528L2.66643 13.0301L1.79048 14.5225L2.82217 15.252C2.94002 15.3353 3.03205 15.4501 3.08775 15.5833C3.14345 15.7164 3.16056 15.8625 3.13715 16.0049C3.06458 16.4481 3.06458 16.9001 3.13715 17.3433C3.16055 17.4857 3.14343 17.6318 3.08773 17.7649C3.03204 17.8981 2.94001 18.0129 2.82217 18.0962L1.79048 18.8255L2.66643 20.3177L3.84509 19.7946C3.97424 19.7372 4.11668 19.7166 4.25678 19.7349C4.39689 19.7532 4.52925 19.8097 4.63935 19.8983C4.99539 20.1848 5.39524 20.4122 5.82355 20.5716C5.95809 20.6217 6.0759 20.7085 6.16367 20.8222C6.25143 20.9358 6.30564 21.0717 6.32017 21.2146L6.44699 22.4615Z" fill="#E2E2E2"/>
<path d="M7.33347 19.5981C5.72168 19.5981 4.4104 18.2868 4.4104 16.675C4.4104 15.0632 5.72168 13.752 7.33347 13.752C8.94526 13.752 10.2565 15.0632 10.2565 16.675C10.2565 18.2868 8.94526 19.5981 7.33347 19.5981ZM7.33347 15.2904C6.56999 15.2904 5.94886 15.9115 5.94886 16.675C5.94886 17.4385 6.56999 18.0596 7.33347 18.0596C8.09696 18.0596 8.71808 17.4385 8.71808 16.675C8.71808 15.9115 8.09696 15.2904 7.33347 15.2904Z" fill="#E2E2E2"/>
</g>
<defs>
<clipPath id="clip0_4169_1470">
<rect width="24" height="24" fill="white"/>
</clipPath>
</defs>
</svg>
