<svg width="16" height="17" viewBox="0 0 16 17" fill="none" xmlns="http://www.w3.org/2000/svg">
<path d="M15.3514 7.99351H8.86493C8.82951 7.99356 8.79462 7.98491 8.76333 7.96832C8.73204 7.95174 8.7053 7.92771 8.68547 7.89837C8.66575 7.86916 8.65347 7.83556 8.6497 7.80052C8.64593 7.76547 8.65079 7.73003 8.66385 7.69729L11.0422 1.65405C11.0527 1.62762 11.0683 1.60353 11.0881 1.58314C11.1079 1.56275 11.1315 1.54646 11.1577 1.53522C11.1838 1.52397 11.2118 1.51798 11.2403 1.5176C11.2687 1.51721 11.2969 1.52243 11.3233 1.53297C12.5781 2.02415 13.655 2.8834 14.4125 3.99784C15.17 5.11228 15.5727 6.42979 15.5676 7.77729C15.5676 7.83463 15.5449 7.88963 15.5043 7.93018C15.4638 7.97073 15.4088 7.99351 15.3514 7.99351ZM9.18277 7.56107H15.1352C15.1012 6.37217 14.7282 5.21773 14.0601 4.23367C13.3921 3.24961 12.4568 2.47689 11.3644 2.00648L9.18277 7.56107ZM7.1352 8.85837H7.09412C7.04414 8.84871 6.99918 8.82173 6.96715 8.78218C6.93511 8.74263 6.91806 8.69304 6.91898 8.64216V2.15567C6.91898 2.09832 6.94176 2.04333 6.98231 2.00278C7.02286 1.96223 7.07785 1.93945 7.1352 1.93945C7.97571 1.93267 8.8099 2.08527 9.59358 2.38918C9.64641 2.41037 9.68876 2.45154 9.71143 2.50376C9.7341 2.55598 9.73526 2.61503 9.71466 2.6681L7.33628 8.72216C7.32026 8.76239 7.29252 8.79688 7.25667 8.82116C7.22082 8.84545 7.1785 8.85841 7.1352 8.85837ZM7.35141 2.37188V7.49188L9.23249 2.71567C8.6278 2.49948 7.99323 2.3784 7.35141 2.35675V2.37188Z" fill="black"/>
<path d="M7.13528 15.3448C5.35504 15.3448 3.6477 14.6376 2.38888 13.3788C1.13005 12.1199 0.422852 10.4126 0.422852 8.63235C0.422852 6.85211 1.13005 5.14477 2.38888 3.88595C3.6477 2.62712 5.35504 1.91992 7.13528 1.91992C7.19263 1.91992 7.24762 1.9427 7.28817 1.98325C7.32872 2.0238 7.3515 2.07879 7.3515 2.13614V8.42587H13.6218C13.6791 8.42587 13.7341 8.44865 13.7747 8.4892C13.8152 8.52974 13.838 8.58474 13.838 8.64208C13.8368 10.4098 13.1374 12.1054 11.892 13.3599L11.8683 13.388L11.8401 13.4118C10.5885 14.6519 8.89723 15.3467 7.13528 15.3448ZM6.91907 2.35668C5.90842 2.39389 4.92178 2.675 4.04329 3.17605C3.1648 3.67709 2.42055 4.38319 1.874 5.23411C1.32746 6.08503 0.994848 7.05553 0.904545 8.06282C0.814242 9.07011 0.968926 10.0843 1.3554 11.0189C1.74187 11.9534 2.34867 12.7807 3.12403 13.43C3.89939 14.0793 4.8203 14.5314 5.80821 14.7478C6.79612 14.9642 7.82171 14.9384 8.79749 14.6726C9.77327 14.4068 10.6703 13.909 11.412 13.2215L6.98177 8.78479C6.95621 8.75884 6.93762 8.72686 6.92772 8.69181C6.92667 8.6832 6.92667 8.67449 6.92772 8.66587C6.92403 8.65826 6.92113 8.65029 6.91907 8.64208V2.35668ZM7.65636 8.84316L11.7169 12.908C12.7506 11.8065 13.3505 10.3679 13.4056 8.8583L7.65636 8.84316Z" fill="black"/>
</svg>
