<svg width="24" height="24" viewBox="0 0 24 24" fill="none" xmlns="http://www.w3.org/2000/svg">
<path d="M22.9999 7.00088C22.9993 6.81621 22.9477 6.6353 22.8506 6.47821C22.7535 6.32112 22.6148 6.19398 22.4499 6.11088L12.4499 1.11088C12.3103 1.04054 12.1562 1.00391 11.9999 1.00391C11.8436 1.00391 11.6895 1.04054 11.5499 1.11088L1.5499 6.11088C1.3861 6.1948 1.24863 6.32229 1.15264 6.47932C1.05665 6.63635 1.00586 6.81683 1.00586 7.00088C1.00586 7.18492 1.05665 7.3654 1.15264 7.52243C1.24863 7.67946 1.3861 7.80696 1.5499 7.89088L4.7599 9.50088L1.5499 11.1109C1.3861 11.1948 1.24863 11.3223 1.15264 11.4793C1.05665 11.6364 1.00586 11.8168 1.00586 12.0009C1.00586 12.1849 1.05665 12.3654 1.15264 12.5224C1.24863 12.6795 1.3861 12.807 1.5499 12.8909L4.7599 14.5009L1.5499 16.1109C1.3861 16.1948 1.24863 16.3223 1.15264 16.4793C1.05665 16.6364 1.00586 16.8168 1.00586 17.0009C1.00586 17.1849 1.05665 17.3654 1.15264 17.5224C1.24863 17.6795 1.3861 17.807 1.5499 17.8909L11.5499 22.8909C11.6895 22.9612 11.8436 22.9978 11.9999 22.9978C12.1562 22.9978 12.3103 22.9612 12.4499 22.8909L22.4499 17.8909C22.6137 17.807 22.7512 17.6795 22.8472 17.5224C22.9431 17.3654 22.9939 17.1849 22.9939 17.0009C22.9939 16.8168 22.9431 16.6364 22.8472 16.4793C22.7512 16.3223 22.6137 16.1948 22.4499 16.1109L19.2399 14.5009L22.4499 12.8909C22.6137 12.807 22.7512 12.6795 22.8472 12.5224C22.9431 12.3654 22.9939 12.1849 22.9939 12.0009C22.9939 11.8168 22.9431 11.6364 22.8472 11.4793C22.7512 11.3223 22.6137 11.1948 22.4499 11.1109L19.2399 9.50088L22.4499 7.89088C22.6148 7.80778 22.7535 7.68064 22.8506 7.52354C22.9477 7.36645 22.9993 7.18555 22.9999 7.00088ZM19.7599 17.0009L11.9999 20.8809L4.2399 17.0009L6.9999 15.6209L11.5499 17.8909C11.6895 17.9612 11.8436 17.9978 11.9999 17.9978C12.1562 17.9978 12.3103 17.9612 12.4499 17.8909L16.9999 15.6209L19.7599 17.0009ZM19.7599 12.0009L11.9999 15.8809L4.2399 12.0009L6.9999 10.6209L11.5499 12.8909C11.6895 12.9612 11.8436 12.9978 11.9999 12.9978C12.1562 12.9978 12.3103 12.9612 12.4499 12.8909L16.9999 10.6209L19.7599 12.0009ZM11.9999 10.8809L4.2399 7.00088L11.9999 3.12088L19.7599 7.00088L11.9999 10.8809Z" fill="#E2E2E2"/>
</svg>
