<svg width="24" height="24" viewBox="0 0 24 24" fill="none" xmlns="http://www.w3.org/2000/svg">
<g clip-path="url(#clip0_6904_4146)">
<path d="M19.471 9.8842C19.5193 9.70406 19.494 9.51216 19.4008 9.35067L17.9945 6.91495C17.9013 6.75347 17.7477 6.63562 17.5676 6.58734C17.3875 6.53911 17.1955 6.56433 17.034 6.65761L16.1041 7.19447C15.5214 6.70017 14.8448 6.31369 14.1089 6.0548V4.96875C14.1089 4.58044 13.794 4.26562 13.4057 4.26562H10.5932C10.2049 4.26562 9.89011 4.58044 9.89011 4.96875V6.0548C9.15417 6.31369 8.47753 6.70017 7.89483 7.19447L6.96492 6.65761C6.80344 6.56433 6.6113 6.53906 6.43139 6.58734C6.25125 6.63558 6.09769 6.75342 6.00445 6.91495L4.59821 9.35067C4.50497 9.51216 4.47971 9.70411 4.52794 9.8842C4.57622 10.0643 4.69406 10.2179 4.85555 10.3111L5.79394 10.8529C5.71083 11.2571 5.67131 11.6304 5.67131 12C5.67131 12.3696 5.71083 12.7429 5.79385 13.1471L4.85546 13.6889C4.69397 13.7821 4.57613 13.9357 4.52785 14.1158C4.47961 14.2959 4.50488 14.4878 4.59811 14.6493L6.00436 17.085C6.0976 17.2465 6.2512 17.3644 6.4313 17.4127C6.61149 17.461 6.80339 17.4357 6.96483 17.3424L7.89474 16.8055C8.47749 17.2998 9.15408 17.6863 9.89002 17.9452V19.0312C9.89002 19.4196 10.2048 19.7344 10.5931 19.7344H13.4056C13.794 19.7344 14.1088 19.4196 14.1088 19.0312V17.9452C14.8447 17.6863 15.5213 17.2998 16.104 16.8055L17.034 17.3424C17.1954 17.4356 17.3875 17.4609 17.5675 17.4127C17.7476 17.3644 17.9012 17.2466 17.9944 17.085L19.4007 14.6493C19.4939 14.4878 19.5192 14.2959 19.4709 14.1158C19.4227 13.9357 19.3048 13.7821 19.1433 13.6889L18.2049 13.1471C18.288 12.7429 18.3276 12.3696 18.3276 12C18.3276 11.6304 18.288 11.2571 18.205 10.8529L19.1434 10.3111C19.3049 10.2179 19.4227 10.0643 19.471 9.8842ZM16.7202 10.6951C16.8574 11.1894 16.9213 11.604 16.9213 12C16.9213 12.396 16.8574 12.8106 16.7202 13.3049C16.6345 13.6138 16.7685 13.9416 17.0462 14.1019L17.8313 14.5551L17.1282 15.7729L16.3582 15.3284C16.0806 15.1681 15.7297 15.2158 15.5051 15.4445C14.8934 16.067 14.1062 16.5166 13.2287 16.7447C12.9189 16.8253 12.7025 17.1051 12.7025 17.4253V18.3281H11.2963V17.4253C11.2963 17.1051 11.0799 16.8253 10.77 16.7447C9.89255 16.5166 9.10542 16.067 8.49371 15.4445C8.26903 15.2158 7.91803 15.168 7.64063 15.3284L6.87056 15.7729L6.16744 14.5551L6.9526 14.1019C7.23024 13.9416 7.36425 13.6138 7.27856 13.3049C7.14145 12.8106 7.07756 12.396 7.07756 12C7.07756 11.604 7.14145 11.1894 7.27866 10.6951C7.36435 10.3862 7.23033 10.0584 6.95269 9.89813L6.16753 9.44489L6.87066 8.22708L7.64072 8.67164C7.91831 8.83186 8.26913 8.78419 8.4938 8.55553C9.10552 7.93303 9.89264 7.48341 10.7701 7.25527C11.08 7.17469 11.2964 6.89494 11.2964 6.57473V5.67188H12.7026V6.57473C12.7026 6.89494 12.9189 7.17469 13.2288 7.25527C14.1063 7.48341 14.8935 7.93298 15.5052 8.55553C15.7298 8.78419 16.0808 8.83186 16.3583 8.67164L17.1283 8.22708L17.8314 9.44489L17.0463 9.89813C16.7685 10.0584 16.6345 10.3862 16.7202 10.6951Z" fill="#E2E2E2"/>
<path d="M12 8.48438C10.0615 8.48438 8.48438 10.0615 8.48438 12C8.48438 13.9385 10.0615 15.5156 12 15.5156C13.9385 15.5156 15.5156 13.9385 15.5156 12C15.5156 10.0615 13.9385 8.48438 12 8.48438ZM12 14.1094C10.8369 14.1094 9.89062 13.1631 9.89062 12C9.89062 10.8369 10.8369 9.89062 12 9.89062C13.1631 9.89062 14.1094 10.8369 14.1094 12C14.1094 13.1631 13.1631 14.1094 12 14.1094Z" fill="#E2E2E2"/>
<path d="M21.4464 5.53664C21.7323 5.2507 21.6163 4.81702 21.6163 4.81702L20.6219 1.83389C20.4991 1.46545 20.1008 1.26633 19.7325 1.38919C19.3641 1.512 19.165 1.9102 19.2878 2.27859L19.3723 2.53214C18.7414 2.05191 18.0615 1.62867 17.3457 1.27364C15.6659 0.440437 13.8173 0 12 0C8.81203 0 5.80341 1.25302 3.52823 3.52819C1.25297 5.80341 0 8.81208 0 12C0 13.4724 0.309328 14.9807 0.919266 16.4833C1.03017 16.7565 1.29328 16.9221 1.57097 16.9221C1.65905 16.9221 1.74863 16.9054 1.83525 16.8703C2.19506 16.7242 2.36831 16.3141 2.22225 15.9543C1.68075 14.6206 1.40625 13.2902 1.40625 12C1.40625 6.15858 6.15858 1.40625 12 1.40625C14.1441 1.40625 16.3085 2.1195 18.1068 3.35653C17.7631 3.28589 17.4129 3.48145 17.2992 3.82266C17.1764 4.19105 17.3755 4.58925 17.7439 4.71206L20.727 5.70642C20.727 5.70642 21.1474 5.83566 21.4464 5.53664Z" fill="#E2E2E2"/>
<path d="M2.3828 19.1831L3.37716 22.1663C3.47541 22.4609 3.74968 22.6473 4.04415 22.6472C4.11784 22.6472 4.19284 22.6356 4.26657 22.611C4.63496 22.4882 4.83404 22.09 4.71127 21.7216L4.62676 21.4681C5.2577 21.9483 5.93762 22.3715 6.6534 22.7266C8.3334 23.5598 10.1819 24.0002 11.9993 24.0002C15.1872 24.0002 18.1959 22.7472 20.471 20.472C22.7463 18.1968 23.9993 15.1881 23.9993 12.0002C23.9993 10.5278 23.6899 9.01946 23.08 7.51693C22.9339 7.15712 22.5238 6.98391 22.164 7.12993C21.8042 7.27604 21.6309 7.6861 21.777 8.04591C22.3185 9.3796 22.593 10.71 22.593 12.0002C22.593 17.8416 17.8407 22.5939 11.9993 22.5939C9.8552 22.5939 7.69074 21.8807 5.89248 20.6436C6.23621 20.7143 6.58632 20.5187 6.70009 20.1775C6.82285 19.8091 6.62377 19.4109 6.25538 19.2881L3.27226 18.2937C2.85545 18.1548 2.55263 18.4636 2.55263 18.4636C2.26055 18.7556 2.3828 19.1831 2.3828 19.1831Z" fill="#E2E2E2"/>
</g>
<defs>
<clipPath id="clip0_6904_4146">
<rect width="24" height="24" fill="white"/>
</clipPath>
</defs>
</svg>
