<svg width="19" height="20" viewBox="0 0 19 20" fill="none" xmlns="http://www.w3.org/2000/svg">
<path fill-rule="evenodd" clip-rule="evenodd" d="M3.9752 16.1281V4.02188H3.74238C3.35665 4.02188 3.04395 3.70917 3.04395 3.32344C3.04395 2.9377 3.35665 2.625 3.74238 2.625H15.383C15.7687 2.625 16.0814 2.9377 16.0814 3.32344C16.0814 3.70917 15.7687 4.02188 15.383 4.02188H15.1502V16.1281H15.383C15.7687 16.1281 16.0814 16.4408 16.0814 16.8266C16.0814 17.2123 15.7687 17.525 15.383 17.525H12.1236C11.7379 17.525 11.4252 17.2123 11.4252 16.8266V14.4984C11.4252 14.1127 11.1125 13.8 10.7268 13.8H8.39863C8.0129 13.8 7.70019 14.1127 7.70019 14.4984V16.8266C7.70019 17.2123 7.38749 17.525 7.00176 17.525H3.74238C3.35665 17.525 3.04395 17.2123 3.04395 16.8266C3.04395 16.4408 3.35665 16.1281 3.74238 16.1281H3.9752ZM6.76881 5.8844C6.76881 5.62724 6.97727 5.41878 7.23443 5.41878H8.16568C8.42284 5.41878 8.63131 5.62724 8.63131 5.8844V6.81565C8.63131 7.07281 8.42284 7.28128 8.16568 7.28128H7.23443C6.97727 7.28128 6.76881 7.07281 6.76881 6.81565V5.8844ZM7.23443 9.14368C6.97727 9.14368 6.76881 9.35214 6.76881 9.6093V10.5406C6.76881 10.7977 6.97727 11.0062 7.23443 11.0062H8.16568C8.42284 11.0062 8.63131 10.7977 8.63131 10.5406V9.6093C8.63131 9.35214 8.42284 9.14368 8.16568 9.14368H7.23443ZM10.4938 5.8844C10.4938 5.62724 10.7023 5.41878 10.9595 5.41878H11.8907C12.1479 5.41878 12.3563 5.62724 12.3563 5.8844V6.81565C12.3563 7.07281 12.1479 7.28128 11.8907 7.28128H10.9595C10.7023 7.28128 10.4938 7.07281 10.4938 6.81565V5.8844ZM10.9595 9.14368C10.7023 9.14368 10.4938 9.35214 10.4938 9.6093V10.5406C10.4938 10.7977 10.7023 11.0062 10.9595 11.0062H11.8907C12.1479 11.0062 12.3563 10.7977 12.3563 10.5406V9.6093C12.3563 9.35214 12.1479 9.14368 11.8907 9.14368H10.9595Z" fill="black"/>
</svg>
