<svg width="18" height="18" viewBox="0 0 18 18" fill="none" xmlns="http://www.w3.org/2000/svg">
<path d="M1.12852 2.25781H16.868C17.4902 2.25781 17.9965 2.76406 17.9965 3.38633C17.9965 4.00859 17.4902 4.51484 16.868 4.51484H1.12852C0.50625 4.51836 0 4.01211 0 3.38633C0 2.76406 0.50625 2.25781 1.12852 2.25781Z" fill="black"/>
<path d="M1.12852 7.87305H11.1727C11.7949 7.87305 12.3012 8.3793 12.3012 9.00156C12.3012 9.62383 11.7949 10.1301 11.1727 10.1301H1.12852C0.50625 10.1301 0 9.62383 0 9.00156C0 8.3793 0.50625 7.87305 1.12852 7.87305Z" fill="black"/>
<path d="M1.12852 13.4824H5.47734C6.09961 13.4824 6.60586 13.9887 6.60586 14.6109C6.60586 15.2332 6.09961 15.7395 5.47734 15.7395H1.12852C0.50625 15.743 0 15.2367 0 14.6145C0 13.9887 0.50625 13.4824 1.12852 13.4824Z" fill="black"/>
</svg>
